<svg width="81" height="97" fill="none" xmlns="http://www.w3.org/2000/svg"><g filter="url('#filter0_d_427_4858')"><path d="M20.388 67.418 18.626 38.45 62.9 40.364l-6.692 46.432-19.378 9.2-11.94-3.132-4.502-25.446Z" fill="#FF641E"/></g><path d="M41.505 47.74c12.807 0 23.996-3.69 22.642-13.909-.735-1.363-2.453-4.207-3.448-4.675-1.76-4.345-9.582-9.233-19.334-9.233-7.61 0-13.364 1.613-16.23 4.127-.586.463-2.14 1.52-2.843 1.99-2.51 2.223-3.976 4.904-3.976 7.791 0 7.682 10.382 13.909 23.19 13.909Z" fill="#fff"/><path d="m18.351 34.99 2.037 32.428 4.502 25.446 11.94 3.132 19.378-9.2 6.879-46.803" stroke="#000"/><path d="M23.381 25.741s-.91 4.67-.91 5.85c0 2.658 5.133 10.852 18.527 11.445 12.389 0 17.558-3.004 19.677-7.325.716-1.46.399-6.312.399-6.312" stroke="#000"/><path d="M24.461 24.718c-4.645 2.288-6.195 6.226-6.195 9.113 0 7.682 10.564 13.02 23.06 13.88 10.353.715 24.394-4.476 22.82-13.88-.406-2.431-2.474-4.534-3.935-5.728" stroke="#000"/><path d="M61.07 30.916c0 4.656-7.357 8.504-18.46 8.504-11.104 0-19.498-6.752-19.498-11.408s7.15-8.09 18.253-8.09S61.07 26.26 61.07 30.916Z" stroke="#000"/><defs><filter id="filter0_d_427_4858" x=".626" y=".449" width="80.274" height="95.546" filterUnits="userSpaceOnUse" color-interpolation-filters="sRGB"><feFlood flood-opacity="0" result="BackgroundImageFix"/><feColorMatrix in="SourceAlpha" values="0 0 0 0 0 0 0 0 0 0 0 0 0 0 0 0 0 0 127 0" result="hardAlpha"/><feOffset dy="-20"/><feGaussianBlur stdDeviation="9"/><feComposite in2="hardAlpha" operator="out"/><feColorMatrix values="0 0 0 0 1 0 0 0 0 0.392157 0 0 0 0 0.117647 0 0 0 1 0"/><feBlend in2="BackgroundImageFix" result="effect1_dropShadow_427_4858"/><feBlend in="SourceGraphic" in2="effect1_dropShadow_427_4858" result="shape"/></filter></defs></svg>