<svg width="84" height="101" fill="none" xmlns="http://www.w3.org/2000/svg"><g filter="url('#filter0_d_427_4885')"><path d="m26.457 89.87-6.933-61.015 44.81-1.087L60.09 89.87H26.457Z" fill="#FF641E"/><path d="M59.623 89.37h-32.72l-6.82-60.028 43.714-1.061-4.174 61.09Z" stroke="#000"/></g><path d="M23.764 21.481c0-1.063 8.022-1.926 17.917-1.926 9.896 0 17.918.863 17.918 1.926v3.488c4.295.453 7.044 4.456.897 6.877-10.5 4.134-31.482 2.807-39.037-.884-3.519-1.718-2.246-4.883 2.305-5.54v-3.94Z" fill="#fff"/><path d="M59.6 21.481c0 1.064-8.023 1.926-17.919 1.926-9.895 0-17.917-.862-17.917-1.926m35.835 0c0-1.063-8.022-1.926-17.918-1.926-9.895 0-17.917.863-17.917 1.926m35.835 0v3.488m-35.835-3.488v3.941m0 0c-4.551.657-5.824 3.822-2.305 5.54 7.556 3.69 28.537 5.018 39.037.884 6.147-2.42 3.398-6.424-.897-6.877m-35.835.453v2.494s-.905 2.418 15.174 3.046c8.887.076 19.543-.824 20.661-3.046v-2.947" stroke="#000"/><defs><filter id="filter0_d_427_4885" x=".524" y=".768" width="82.81" height="100.103" filterUnits="userSpaceOnUse" color-interpolation-filters="sRGB"><feFlood flood-opacity="0" result="BackgroundImageFix"/><feColorMatrix in="SourceAlpha" values="0 0 0 0 0 0 0 0 0 0 0 0 0 0 0 0 0 0 127 0" result="hardAlpha"/><feOffset dy="-8"/><feGaussianBlur stdDeviation="9.5"/><feComposite in2="hardAlpha" operator="out"/><feColorMatrix values="0 0 0 0 1 0 0 0 0 0.392157 0 0 0 0 0.117647 0 0 0 1 0"/><feBlend in2="BackgroundImageFix" result="effect1_dropShadow_427_4885"/><feBlend in="SourceGraphic" in2="effect1_dropShadow_427_4885" result="shape"/></filter></defs></svg>