<svg width="387" height="524" fill="none" xmlns="http://www.w3.org/2000/svg"><path d="M58.478 481.01c-2.284 8.857-13.079 30.524-14.718 41.529h163.788l-10.307-86.398H58.478c0 17.239 3.702 30.512 0 44.869Z" fill="#fff"/><path d="M157.269 473.122c-5.82 13.096-16.593 40.728-18.317 46.978m-95.192 2.439c1.639-11.005 12.434-32.672 14.718-41.529 3.702-14.357 0-27.63 0-44.869H197.24l10.307 86.398H43.76Z" stroke="#000"/><path d="M231.615 176.842h-24.114l-10.941-1.786-4.912 18.532v18.086l-2.679 44.656 10.494 13.173 11.69 8.043 12.871-38.632 29.919-38.181-9.824-14.959-6.029-10.718-6.475 1.786Z" fill="#fff"/><path d="M101.772 105.11h8.934l54.193 15.513 2.45 3.704 6.615 5.9 3.82 26.411v36.101l5.145 10.849 15.431 81.294v91.831l17.689 62.1-46.669 3.387-32.367-148.662-12.796-121.564c-.058-6.524-1.041-20.636-4.508-24.891-3.467-4.254-15.762-9.639-21.477-11.799-4.045-1.124-11.889-3.723-15.934-3.723-4.046 0-6.648 4.946-9.014 6.926-4.227 3.538-9.103 7.586-9.103 7.586l3.856-14.512 3.297-3.112-2.056-5.457s5.718-13.763 14.552-16.45c5.8-1.764 12.179.085 17.942-1.432Z" fill="#fff"/><path d="M101.772 105.11h8.934l54.193 15.513 2.45 3.704 6.615 5.9 3.82 26.411v36.101l5.145 10.849 15.431 81.294v91.831l17.689 62.1-46.669 3.387-32.367-148.662-12.796-121.564c-.058-6.524-1.041-20.636-4.508-24.891-3.467-4.254-15.762-9.639-21.477-11.799-4.045-1.124-11.889-3.723-15.934-3.723-4.046 0-6.648 4.946-9.014 6.926-4.227 3.538-9.103 7.586-9.103 7.586l3.856-14.512 3.297-3.112-2.056-5.457s5.718-13.763 14.552-16.45c5.8-1.764 12.179.085 17.942-1.432Z" fill="#FF641E" fill-opacity=".5"/><path d="m30.457 172.245 34.634-26.814 12.547-13.042s4.994-1.916 8.332-1.575c14.038 1.435 26.948 7.693 36.047 17.963 5.347 9.003 7.935 18.001 11.237 28.114 6.355 22.241 16.679 74.366 17.587 79.842 5.929 35.768 9.161 48.673 13.554 69.268.497 2.327 8.108 47.514 11.478 66.593l13.106 23.68v33.05s-33.536 9.173-61.011 8.743c-30.304-.473-43.913 2.611-77.604-8.619-4.524-8.444-1.885-18.094 0-21.864-.503-3.644-1.885-11.535-3.393-13.948-1.885-3.016-2.639-30.462-3.016-39.581-.301-7.296-4.37-12.626-6.367-14.379-11.455-4.482-30.22-22.412-34.69-27.392-3.575-3.984-1.49-22.699 0-31.558 1.366-4.345 4.171-18.323 4.47-39.475.297-21.153 15.516-68.151 23.089-89.006ZM207.915 272.214l-6.259-69.568-6.32-6.32-16.5 33.001 14.745 44.587 14.334-1.7Z" fill="#000"/><path d="m30.457 172.245 34.634-26.814 12.547-13.042s4.994-1.916 8.332-1.575c14.038 1.435 26.948 7.693 36.047 17.963 5.347 9.003 7.935 18.001 11.237 28.114 6.355 22.241 16.679 74.366 17.587 79.842 5.929 35.768 9.161 48.673 13.554 69.268.497 2.327 8.108 47.514 11.478 66.593l13.106 23.68v33.05s-33.536 9.173-61.011 8.743c-30.304-.473-43.913 2.611-77.604-8.619-4.524-8.444-1.885-18.094 0-21.864-.503-3.644-1.885-11.535-3.393-13.948-1.885-3.016-2.639-30.462-3.016-39.581-.301-7.296-4.37-12.626-6.367-14.379-11.455-4.482-30.22-22.412-34.69-27.392-3.575-3.984-1.49-22.699 0-31.558 1.366-4.345 4.171-18.323 4.47-39.475.297-21.153 15.516-68.151 23.089-89.006ZM207.915 272.214l-6.259-69.568-6.32-6.32-16.5 33.001 14.745 44.587 14.334-1.7Z" stroke="#000"/><path d="M219.189 203.433c-6.814 4.542-14.909 45.799-11.053 68.872-10.258 18.372-20.068 21.792-24.37 21.938.096 1.533 3.465 5.972 4.473 7.815l-.761 80.357 3.842 138.437h194.752c-1.747-9.318-44.347-132.708-45.111-138.437-.611-4.584-12.986-29.92-19.097-42.015 1.847-5.474 5.045-18.104 3.055-24.826-2.487-8.403 4.273-22.765 2.487-35.218-1.785-12.453 0-25.446 0-31.124 0-5.678-6.939-24.92-10.094-29.021-3.154-4.1-40.06-28.074-51.416-26.181-11.356 1.893-38.19 3.725-46.707 9.403Z" fill="#fff"/><path d="m188.239 302.058-.761 80.357 3.614 138.437h194.98c-1.747-9.318-44.347-132.708-45.111-138.437-.611-4.583-12.986-29.919-19.097-42.014 1.847-5.475 5.045-18.105 3.055-24.827-2.487-8.403 4.273-22.765 2.487-35.218-1.785-12.453 0-25.446 0-31.124.109-2.433-1.146-9.386-7.034-17.727M155.127 163.429c-1.01-2.576-1.636-7.152 3.94-4.849.505.909 1.485 2.94 1.364 3.788m1.765-1.878c-.753-1.665-1.665-5.09.713-5.47 2.379-.381 2.894 2.616 2.854 4.162m0 38.763c-.674-8.323-2.497-26.611-4.399-33.175-1.903-6.564-6.466-6.159-5.351-4.28 1.114 1.878 6.897 25.845 6.183 39.294m8.205-31.565c-.191-3.806-4.75-9.164-7.168-11.146-.436-.238-.89 1.707-.324 3.768 1.308 4.757 4.995-.47 8.562 33.894m-38.817-15.618c1.161 3.009 5.13 4.676 10.452 3.42 4.215-.994 8.917-8.502 13.501-7.001m7.565-.887h3.481m-44.27-25.97c1.459 3.34 5.498 16.091 9.271 16.091m9.277 1.546 13.196 3.258m-54.653-63.546c1.523-.358 5.402.242 8.734 5.509m-37.38 15.651c3.673-4.121 5.71-10.817 14-13.098 2.799-.77 8.018 0 10.212 0m-28.623 23.888 10.12-11.526m37.415-10.666c5.649 7.261 19.188 23.489 28.154 28.899 11.207 6.763 10.602 6.41 14.687 10.335m-1.186-7.848c-.029 1.522.167 4.736 1.186 5.41m7.97-30.669 6.84 7.018m-108.63 17.105c1.149-4.386 3.444-13.304 3.444-13.889 0-.731 3.766-3.947 3.766-3.947m-2.092-3.656c2.679-6.172 9.776-18.516 16.738-18.516 8.702 0 23.229-1.384 24.257-.988" stroke="#000"/><path d="M172.698 324.259c-6.894-.46-13.469 3.511-15.894 5.553l-3 13.388s-4.343 22.963-3.187 33.905c.343 3.254 2.482 5.414 2.482 5.414 1.053-.21 3.349-.505 4.864 0 1.894.631 2.936 3.396 5.566 3.135 8.313-.825 11.974-2.533 13.466-3.135 1.493-.601 7.374 1.211 9.336 1.211 1.961 0 4.086-.807 4.903-1.211 5.189-2.119 16.247-7.04 18.976-9.769 2.729-2.729 3.554-5.615 3.625-6.716-.071-.676-.555-2.047-1.919-2.132l2.878-3.732c1.35-2.523 2.878-7.547-1.812-7.462.711-2.381 1.345-7.247-3.346-6.565-5.709.831-5.502 2.407-11.472 3.473-3.988.713-21.351 2.151-28.266-4.627-.933-2.385-2.239-7.299 0-7.871 2.24-.572 3.492-2.375 3.956-3.195l-1.156-9.664Z" fill="#fff"/><path d="M152.831 382.519c1.052-.21 3.061-.505 4.576 0 1.894.631 3.716 3.209 7.046 2.879 5.795-.575 9.432-1.561 10.796-2.321m36.667-19.175c1.364.085 1.848 1.457 1.919 2.132-.071 1.101-.896 3.987-3.625 6.716-.867.867-2.575 1.955-4.667 3.104m6.373-11.952 2.878-3.732c1.35-2.523 2.878-7.547-1.812-7.462m-1.066 11.194c-6.271 3.139-13.752 8.848-18.639 9.59-7.418 1.126-18.068-.932-25.147-.742m44.852-20.042c.71-2.381 1.344-7.247-3.346-6.564-5.709.83-5.502 2.407-11.472 3.473-3.988.712-21.351 2.151-28.266-4.628-.933-2.385-1.91-6.569 0-7.871 1.932-1.317 2.634-1.895 3.636-2.815l-.536-10.101c-6.045-.403-12.036 2.626-15.097 4.774m55.081 23.732c-11.647 10.942-26.829 9.761-41.706 8.28m-7.748 17.657c3.54 1.265 13.467 3.874 13.467 3.874s7.374 1.211 9.336 1.211c1.961 0 4.086-.807 4.903-1.211 2.648-1.081 6.823-2.892 10.641-4.769" stroke="#000"/><path d="M41.843 361.302c20.653 15.637 62.98 24.77 71.945 25.766 8.964.996 22.525 0 30.17 0 6.115 0 10.01-2.596 11.193-3.894-1.729.637-5.132-1.146-4.914-13.377.218-12.231 4.641-32.762 6.825-41.498-7.231-.729-22.744-6.422-29.384 3.933m0 0c-7.073-6.705-25.562-20.202-42.936-20.543l-13.704-19.786L74.4 227.4m53.278 104.832c-2.476 1.319-13.89 32.398-4.601 42.441m-89.83-201.255c6.995-3.283 25.532-2.369 32.639 15.266M10.138 317.816c3.975-6.981 15.882-21.234 31.706-22.397m-15.417 22.397 36.069-20.361m-11.212 43.618c2.664-9.795 11.017-29.384 23.116-29.384m4.734-176.666c1.87 4.494 5.608 15.489 5.608 23.516-.615 2.926-.466 8.904 5.053 9.406 6.898.627 25.397-5.473 32.922 0 6.02 4.378 10.242 33.388 11.601 47.345 1.723 11.497 6.064 37.187 9.64 47.973 3.575 10.786 7.605 45.255 9.173 61.141m-80.564 58.77-10.071 30.893m18.8-26.999c-3.929 10.454-11.481 32.309-10.258 36.092l-8.542-4.001m-11.212 10.184c16.204 2.304 51.391 7.056 62.504 7.638 11.112.582 49.166-3.152 66.804-5.092" stroke="#fff"/><path d="M232.464 74.183c-6.341-1.396-13.723-1.187-16.176 0l-23.888 9.08-15.63 37.094c-2.557 4.639-6.642 18.981-5.279 26.026 1.364 7.044 2.522 12.21 3.09 13.252l-3.09 11.641c0 12.076 3.09 21.645 4.847 33.787l19.213 4.977c-.915-1.243 17.195-16.328 15.216-25.416-1.98-9.088-.786-7.851-2.552-12.071l19.224-3.114 22.083-14.753c-3.804 8.685-18.258 17.922-17.633 25.834.5 6.329-32.121 29.52-11.496 73.514 1.622-10.766 2.737-26.216 11.496-35.681 9.426-10.186 15.068-12.815 21.56-17.151 7.844-5.239 13.966-7.315 21.383-5.239 5.933 1.66 8.031 3.826 14.799 7.846 8.756 5.2 18.761 8.012 24.426 16.417 4.6 6.824 9.097 17.236 12.258 20.901-1.241-2.864-3.895-10.596-4.582-18.614-.859-10.023-11.425-22.235-16.072-26.55-4.647-4.316-1.992-12.946-3.983-21.908-1.992-8.963-13.134-13.635-17.571-16.766-6.534-4.613-6.843-12.897-7.081-21.679-.189-7.025-5.459-13.054-8.07-15.19-.756-.672-1.205-2.421-1.335-3.212 0-9.642-5.916-24.698-11.14-29.484-5.93-5.432-13.783-11.287-24.017-13.54Z" fill="#000"/><path d="M247.318 132.177c.542 5.653 3.199 2.934 6.003 5.653 1.414 3.57 1.164 14.754-6.963 18.561l3.266-1.183s-5.764 9.35-13.092 15.952c-5.944 5.357-2.872 7.736-5.207 11.739-1.924 3.299-5.154 7.549-9.562 14.966-4.093 6.888-5.808 12.492-5.808 12.492l-6.456-29.213c-8.253-1.276-15.545-9.929-19.912-20.599-4.188-17.681 0-19.125 0-38.563 4.084-16.101 1.541-19.506 12.632-24.269 6.012-1.403 7.957-.129 9.619-.854 2.732-1.193 7.026-2.39 12.349-1.931 17.895 1.539 21.761 22.959 23.131 37.249Z" fill="#fff"/><path d="M193.877 104.391c-3.17 3.642-4.289 13.564-4.098 19.753 0 12.977-6.358 27.501 1.423 39.671 5.196 8.123 9.83 16.031 18.298 17.317 3.858.585 10.416-3.056 16.973-6.329 8.009-3.985 17.088-9.473 17.801-22.015m-47.36-52.049c.233-1.06 4.126-4.627 15.119-3.843m37.371 27.248c-1.115-5.684 3.042-15.336-3.286-24.14-5.209-7.247-26.521-11.09-34.834-5m-1.505 87.045L215.611 211" stroke="#000" stroke-linejoin="bevel"/><path d="M211.25 126.813c-.751 7.22-2.674 10.339-4.787 12.135-2.114 1.795.585 5.615 5.831 7.563M213.911 142.512c1.796.421 2.445 1.796 2.445 2.331M219.895 118.625c3.196-1.986 10.48-2.98 14.783.777M222.297 155.067c-4.788 3.184-15.853 5.03-22.589-.496M206.526 119.339c-3.196-1.987-10.479-2.98-14.783.776M204.896 132.848c-2.495-1.553-8.162-2.317-11.523.598M233.049 132.848c-2.496-1.553-8.162-2.317-11.524.598M250.781 143.264c-1.579.637-3.4 3.922-3.184 6.494" stroke="#000" stroke-linejoin="bevel"/><path d="M244.821 157.538c12.898-4.139 11.638-34.01 0-13.638M219.355 156.329c-7.067-6.329-6.952-2.56-9.219-2.471-2.05.077-4.354-3.985-7.805 1.847M205.247 160.708c2.496 1.554 8.162 2.318 11.524-.598" stroke="#000" stroke-linejoin="bevel"/><path d="M253.195 84.893c10.714 8.459 13.476 25.907 14.426 32.316m1.335 3.211c2.611 2.136 7.88 8.165 8.07 15.19.238 8.782 2.822 18.999 6.62 21.373 3.797 2.373 16.04 8.109 18.031 17.072 1.992 8.962-.663 17.592 3.984 21.908 4.647 4.315 15.213 16.527 16.072 26.55.687 8.018 3.341 15.75 4.582 18.614m-74.458-123.918c-4.287 7.918 0 21.104 4.313 19.529m-7.897 20.245c-3.804 8.685-21.671 12.83-16.699 41.48m-55.752-76.014c-2.557 4.639-5.465 17.417-4.102 24.462 1.364 7.044 2.268 12.284 2.836 13.325m9.243-34.885c2.427 12.881-10.822 30.838-12.079 46.753-.683 8.661 2.836 23.079 3.538 24.736m49.993-105.905c-1.8-5.32-22.587-11.073-31.819 7.089m44.16-5.934c2.099-2.571 0-10.058-11.187-12.228m17.722 15.367c.197-2.529 2.882-6.278 12.043-1.046m-7.596 5.231c6.711-.368 18.879 4.656 13.864 27.704-5.015 23.048 13.258 37.524 23.021 41.881m-26.237 26.964c3.356-.728 11.616-5.797 17.804-20.25m-79.72 31.929c3.558-4.323 11.186-12.36 13.535-18.921" stroke="#fff"/><path d="M167.487 246.576c-6.367-.707-8.934 1.433-9.13 2.472-.197 1.039-.968 4.497 3.628 5.811 0 0-4.073-.252-5.598 1.12-1.524 1.371-2.605 4.874 2.381 6.609 4.987 1.734 11.607 1.222 23.717 9.025-3.026.723-15.697-3.262-22.091-6.18-4.02-1.151-8.456 4.116-2.71 7.525 2.135 1.267 7.011 4.117 9.144 4.952-3.177 0-4.812 2.795-3.558 5.113.846 1.158 1.979 2.822 7.105 5.188 5.127 2.366 11.844 5.086 13.841 5.839 15.156-1.091 22.622-17.451 23.464-21.262.515-2.328-3.794-10.452-9.352-14.805-8.357-6.546-20.597-10.269-30.841-11.407Z" fill="#fff"/><path d="M184.584 293.445c-1.997-.753-9.082-2.868-14.209-5.234-5.126-2.366-6.259-4.03-7.105-5.188-1.019-1.883-.131-4.081 1.942-4.839m18.689-6.294c-3.342-.859-7.214-6.457-25.133-9.302-5.213-.828-3.905-5.238-2.381-6.609 1.525-1.372 5.598-1.12 5.598-1.12 3.119-.044 10.426.521 14.702 3.124 4.277 2.603 10.155 4.155 12.559 4.605m-9.882 19.072c-3.631.547-9.87-2.272-12.536-3.75-2.133-.835-7.009-3.685-9.144-4.952-5.746-3.409-1.31-8.676 2.71-7.525 5.237 2.39 15.634 5.681 20.889 6.397m-21.639-18.121c-1.939-1.587-1.44-3.854-1.287-4.661.196-1.039 2.763-3.179 9.13-2.472 10.244 1.138 22.484 4.861 30.841 11.407 4.231 3.314 7.602 8.895 9.127 12.411M222.8 273.618c4.747-12.849 13.867-38.162 13.867-43.997-.348-2.546-2.23-5.611-2.23-5.611s8.134-9.206 14.385-12.795l2.243-7.234m-43.14 68.081c2.837.211 10.141 5.862 11.428 5.862m-11.428-5.862c-4.636 16.39-17.312 20.967-24.336 22.35l4.635 7.449m19.701-29.799c-1.191-10.236-3.695-36.775 9.098-63.32m68.501 107.694c-5.509-10.212-17.778-31.121-22.776-33.056-6.249-2.419-13.405-2.266-21.212-3.242-6.048-.756-18.935-4.706-24.222-5.739m57.846 20.842c2.868-.932 10.757-1.807 19.362 2.152 8.606 3.958 22.949 16.422 29.044 22.159m-40.873-12.101c4.056 1.794 13.43 7.628 18.484 16.612m-16.846 5.616c9.905 9.243 28.123 19.536 21.759-13.243m-11.568-66.211c8.889 15.042 25.071 44.047 26.973 53.728m-72.673-71.258c-2.531 6.946-4.049 28.636 7.168 44.577m-41.033-1.809c3.455-3.952 4.893 3.095 5.234 7.917.599 8.474-1.862 17.046-5.111 24.071m-.123 31.972c6.646.869 22.724 4.23 33.865 10.721 11.141 6.49 20.058 8.886 23.124 9.272h29.231c3.006 0 9.829-.637 13.074-3.187 3.246-2.55 6.182-11.108 7.244-15.068m-72.673 53.775c12.576-4.852 43.609-14.558 67.135-14.558m1.747 4.077c-36.57.698-61.159 9.802-68.882 14.266.796 5.001 2.848 15.427 4.689 17.126 2.301 2.124 3.185 6.548 16.282 1.062 10.476-4.389 37.518-9.379 49.729-11.326 2.478-.268 7.221-2.016 6.372-6.862l-6.372-11.897" stroke="#000"/><path d="M104.941 85.983c.555 6.656 4.045 16.579 8.437 21.66 28.756-29.005 82.343-26.708 82.948-23.48.485 2.582 3.062 2.289 4.29 1.82 14.952 0 21.215-16.49 18.773-21.79-2.442-5.302-4.566-5.302-4.566-5.302 3.441-3.44 5.878-12.89 6.666-17.185.516-12.041-7.311-16.574-13.331-14.853-.836-9.16-10.096-14.568-14.622-16.127-5.663-5.334-12.661-6.066-15.452-5.765-11.44-7.973-22.879-1.733-35.358 0-9.984 1.387-14.56 5.893-15.6 7.973-15.807 3.328-17.91 12.941-16.985 17.332-3.761 1.715-14.661 11.65-7.708 16.382 2.006 1.365 2.508 2.82 2.508 3.377-.555 2.219-4.853 4.391-6.933 5.2-9.429 4.992 1.502 23.016 6.933 30.758Z" fill="#000"/><path d="M200.722 43.353c-1.725-2.683-6.71-4.013-9.425-4.572-.757-.155-2.193-.37-1.881 0-3.918 9.015-12.123 15.405-24.717 16.99-3.361 0-5.605-1.33-6.905-2.863-4.559 1.723-10.718 0-18.296 19.788-1.757-7.139-5.695-12.156-9.906-10.67-1.269.448-4.179 2.09-4.627 5.262-.246 1.74-.443 4.575-.669 6.242-1.193 8.8-7.379 32.727-12.034 38.269 28.456 35.296 41.413 41.546 45.785 33.873-.202-1.817 4.351-17.104 6.652-24.52 2.103.241 4.116.378 6.209.535 10.799.808 13.083-3.47 12.847-10.881l.238-3.085c1.896-.563 4.304-2.799 3.241-3.938l-.995-.718c2.205.877 3.047-1.722 3.192-3.131v-7.569c1.339.306 2.561.526 4.058.526 3.395 0 4.33-4.408 2.735-7.246-.266-.563-.111-1.603 0-2.053 2.768-10.945 7.723-12.03 6.498-17.467-.462-4.231-1.308-18.457-1.308-20.618l-.692-2.154Z" fill="#fff"/><path d="M113.378 107.643c-4.392-5.081-7.882-15.004-8.437-21.66m0 0c-5.43-7.742-16.362-25.766-6.933-30.758 2.08-.809 6.378-2.981 6.933-5.2m0 35.958v-5.398m-3.84-38.88c0 5.069 27.875 13.52 34.487-8.665m-25.447-2.774c-.925-4.39 1.862-14.852 17.669-18.18m0 0c1.04-2.08 4.932-5.738 14.916-7.125 12.479-1.733 23.918-7.973 35.358 0 2.791-.301 9.789.43 15.452 5.765m-65.726 1.36c-1.4 2.163-3.324 7.106-1.966 11.385m74.772 18.235c6.24-6.933 12.965-22.394-10.053-28.772-7.279 2.889-23.364 5.893-29.465-5.2m47.06 19.119c6.02-1.72 13.847 2.812 13.331 14.853-.788 4.295-3.225 13.744-6.666 17.184 0 0 2.124 0 4.566 5.302 2.442 5.302-3.821 21.79-18.773 21.79m7.542-49.884c2.938.932 7.525 4.688 2.365 12.257-6.451 9.46-7.311 9.675-2.365 19.996m-14.622-41.498c-2.245 10.842-7.987 25.82-28.277 29.35-4.114-.19-12.188-3.275-11.091-14.497m-42.85 29.458c9.208 1.674 14.569-6.592 17.539-8.578" stroke="#fff"/><path d="M202.414 70.303c-1.219-1.438-3.247-3.049-4.524-3.902-1.917-1.284-1.307-4.65 3.79-1.989.621.323.841.627 1.366 1.14.386 2.773.177 3.878-.632 4.75ZM172.631 57.08c4.334.371 10.21 1.845 13.492 4.177 1.883 1.333 4.811-.435.509-4.251-3.351-2.977-10.131-2.68-14.001.074Z" fill="#000"/><path d="M170.595 63.97c6.778-.67 8.416-.745 9.384 2.98M199.794 74.25c-.747-2.871-1.892-3.485-5.485-3.308" stroke="#000" stroke-width="1.5" stroke-linejoin="bevel"/><ellipse cx="176.643" cy="66.341" rx="1.824" ry="2.822" transform="rotate(20.702 176.643 66.341)" fill="#000"/><ellipse cx="196.457" cy="73.642" rx="1.824" ry="2.822" transform="rotate(20.702 196.457 73.642)" fill="#000"/><path d="M123.714 74.737c-1.193 8.8-6.797 31.52-11.452 37.062m12.353-45.508c-.05 4.16 4.749 15.473 10.034 12.103m-2.446-10.537c-1.091.851-2.618 2.987 0 4.717M191.297 38.78c2.715.56 7.7 1.89 9.425 4.573m-18.077 47.529c-1.825-.394-4.644-2.71-2.495-5.81m5.794 6.33c2.924.614 4.977 1.49 7.545 1.49 3.396 0 4.33-4.41 2.735-7.247-1.574-2.803-3.078-7.848-3.634-12.495-.125-.742 0-4.691.899-6.373m-24.29 29.768c5.318 2.7 12.312 4.537 17.04 6.52 2.205.877 2.672-1.002 2.794-2.744 0 0-1.02-1.447-4.41-1.447-7.239 0-10.592-.352-13.124-1.252m-4.598 1.87c-.638-1.87-.479-4.776 3.492-4.776m1.889 6.324c6.193 4.591 9.285 5.447 11.24 5.356m3.712-2.613c.331 1.028-.672 2.469-1.804 3.197-.831.534-1.24 1.157-1.24 1.157-1.969 2.932 3.338 14.071-12.464 13.688-2.223-.054-4.924-.432-7.027-.673m-25.974-18.087c3.357 5.917 16.869 17.044 25.974 18.087m0 0c-2.301 7.416-6.854 22.703-6.652 24.52" stroke="#000"/></svg>