<svg width="347" height="728" fill="none" xmlns="http://www.w3.org/2000/svg"><path d="M110.478 568.441C97.309 538.34 84.61 470.716 79.907 440.667v-29.908l75.921 7.539 82.929-7.539 21.11 109.316-9.856 5.252c-3.658 16.985-9.877 81.055-5.487 201.46l-110.529-35.275c-2.351-28.481-10.347-92.969-23.517-123.071Z" fill="#fff"/><path d="M179.461 463.4c-17.602 34.058-4.032 88.736-4.032 105.041m4.032 39.841 6.523 90.468m-51.192-223.649 24.696 29.84m-79.581-64.274c4.703 30.049 17.402 97.673 30.571 127.774 13.17 30.102 21.166 94.59 23.517 123.071l110.529 35.275c-4.39-120.405 1.829-184.475 5.487-201.46l9.856-5.252-21.11-109.316-82.929 7.539-75.921-7.539v29.908Z" stroke="#000"/><path d="M301.22 459.886c-1.839-3.679.406-16.91 1.939-21.618 5.397-7.875 20.659-17.977 38.525 4.617-.657 9.862-2.317 30.572-3.698 34.517-1.381 3.945-8.629 8.054-12.081 9.615h-1.759c-1.791 1.973-6.706.822-7.856 0l-1.726 1.973c-.986 2.219-7.686 1.726-7.193-1.973.395-2.958 1.361-15.765 1.522-23.915l-1.403 17.946c-.98 3.805-3.061 3.25-4.236 2.067-2.253-2.269.266-18.631-2.034-23.229Z" fill="#fff"/><path d="M303.159 438.268c-1.533 4.708-3.778 17.939-1.939 21.618 2.3 4.598-.219 20.96 2.034 23.229 1.175 1.183 3.256 1.738 4.236-2.067m1.924-22.649c-.161 8.15-1.648 25.66-2.043 28.618-.493 3.699 6.207 4.192 7.193 1.973.789-1.775 1.479-15.04 1.726-21.45m0 19.477c1.15.822 6.065 1.973 7.856 0 2.612-2.876 1.759-14.464 1.759-19.477m0 19.477c3.452-1.561 10.7-5.67 12.081-9.615 1.381-3.945 3.041-24.655 3.698-34.517m-8.515 22.718-1.962 15.445m-23.836-32.702c1.361 1.036 4.216 3.685 4.748 5.993" stroke="#000"/><path d="m196.895 108.772-76.331 6.877-33.48 201.335-6.182 97.066s41.573 23.832 75.886 14.455c31.705-8.665 94.677-7.95 94.677-7.95l-18.803-245.092-35.767-66.691Z" fill="#fff" stroke="#000"/><path d="M87.897 404.101c11.92 3.362 50.042 7.389 64.714 5.921 14.671-1.467 42.276-6.738 58.781-8.877" stroke="#000"/><path d="m93.283 139.517-45.37 21.551c-4.036 5.357-12.34 17.681-13.26 24.12-1.15 8.05-28.55 60.959-33.25 107.419-5.797 57.292 27.625 65.075 27.625 65.075l21.737-3.07 9.066-27.82v34.037L45.47 453.911 23.13 609.276c31.893 1.805 43.878 11.283 45.884 15.796v-40.243l47.765-1.88-12.788-31.593-15.796-63.937-5.345-30.023 13.537-110.002 11.741-79.619 7.148-70.194 3.969-37.957 10.851-38.089-2.416-12.239h-2.569c-5.213 0-23.391 15.587-31.828 23.381v6.84ZM225.321 127.542c-2.481-4.108-13.227-13.876-18.289-18.246l-11.889-8.167-4.612 15.064c.866 4.883 6.375 10.017 9.048 19.076 2.673 9.06 9.582 32.542 9.582 54.198 0 29.816-7.432 93.16-9.582 110.923-3.661 30.24 0 83.132 11.321 112.123 10.687 29.382 33.307 94.373 38.291 119.29l-2.255 50.903 16.164 6.209a798.55 798.55 0 0 0 3.221 11.409l42.826-7.786-11.605-46.719s-7.301-35.018-5.069-66.744c.756-10.75-2.563-31.949-2.51-42.726.097-19.596-4.211-26.913-9.099-45.89-4.167-16.176-7.788-26.711-11.189-43.065-5.836-28.059-6.027-73.138-6.027-73.138l6.027 7.048-2.465 14.426 7.213 8.732 3.038 15.945 9.87 11.01 2.632 32.801 9.695 75.073s11.702-6.622 24.53-4.747c8.779 1.284 21.358 7.74 21.358 7.74v-66.299l-9.697-62.333c-9.815-34.714-31.218-110.433-38.307-135.6-8.861-31.458-23.04-29.243-27.027-31.458-3.988-2.215-42.092-13.917-45.194-19.052Z" fill="#000"/><path d="m299.658 439.291-9.695-75.073-2.632-32.801-9.87-11.01-3.038-15.945-7.213-8.732 2.465-14.426-6.027-7.048s.191 45.079 6.027 73.138c3.401 16.354 7.022 26.889 11.189 43.065 4.888 18.977 9.196 26.294 9.099 45.89-.053 10.777 3.266 31.976 2.51 42.726-2.232 31.726 5.069 66.744 5.069 66.744l11.605 46.719-42.826 7.786a798.55 798.55 0 0 1-3.221-11.409l-16.164-6.209 2.255-50.903c-4.984-24.917-27.604-89.908-38.291-119.29-11.321-28.991-14.982-81.883-11.321-112.123 2.15-17.763 9.582-81.107 9.582-110.923 0-21.656-6.909-45.138-9.582-54.198-2.673-9.059-8.182-14.193-9.048-19.076l4.612-15.064 11.889 8.167c5.062 4.37 15.808 14.138 18.289 18.246 3.102 5.135 41.206 16.837 45.194 19.052 3.987 2.215 18.166 0 27.027 31.458 7.089 25.167 28.492 100.886 38.307 135.6l9.697 62.333v66.299m-45.888-2.993s11.702-6.622 24.53-4.747c8.779 1.284 21.358 7.74 21.358 7.74m-45.888-2.993c.03.779.553 2.281 2.405 2.049m43.483.944c-.265 1.518-1.405 4.439-3.836 3.976M47.913 161.068l45.37-21.551v-6.84c8.437-7.794 26.615-23.381 31.828-23.381h2.569l2.416 12.239-10.851 38.089-3.969 37.957-7.148 70.194-11.74 79.619L82.85 457.396l5.345 30.023 15.796 63.937 12.788 31.593-47.765 1.88v40.243c-2.006-4.513-13.991-13.991-45.885-15.796l22.34-155.365 14.362-93.082v-34.037l-9.066 27.82-21.738 3.07s-33.421-7.783-27.625-65.075c4.701-46.46 32.101-99.369 33.251-107.419.92-6.439 9.224-18.763 13.26-24.12Z" stroke="#000"/><path d="m93.995 143.31 3.761 10.91-23.892 8.628c2.133 16.954 6.114 51.994 6.696 69.529M68.813 623.34s-8.007-82.946-4.328-143.222c2.673-43.8 16.132-123.155 16.132-123.155-.085-21.785-.192-59.16-.172-86.784m8.479 144.222c-3.935 32.671-20.111 157.046-20.111 167.501m33.737-431.124 16.535-7.468m107.699-9.327 5.801 16.795 15.57 12.07c-7.281 20.682-22.787 69.132-26.567 97.478-4.724 35.433-20.677 112.932-11.891 144.36m-2.467-267.248 19.554 10.745m24.184 387.175 11.902 51.077M30.867 316.625s7.19-10.572 20.566-12.919c6.016-1.056 14.618 1.017 14.618 1.017m-25.668-17.017 11.05 13.62m9.076-64.162v46.345M48.24 161.442c5.043-2.643 8.18 41.749 8.819 48.38m217.215-60.115c-3.343 19.076-4.745 50.05-4.745 50.05m-6.603 75.209c6.821-16.718 13.48-48.731 13.48-48.731" stroke="#fff"/><path d="M110.431 72.561c1.251 6.361 7.708 13.948 7.708 13.948l9.724-1.337 64.579-7.19 11.676-1.499c4.363-.687 6.314-12.74 5.169-19.715-1.3-7.927-10.57-30.435-14.414-36.117-3.433-5.074-4.405-7.437-7.852-12.351-2.757-3.932-9.586-4.17-12-4.705 0 0-15.075-2.648-27.116.406-13.984 3.547-21.347 11.482-30.832 18.55-2.715 2.024-4.989 11.015-5.326 18.968-.544 12.835-3.395 20.472-1.316 31.042Z" fill="#FF641E"/><path d="M125.287 93.472c1.945 4.695.991 17.834 4.648 24.904 0 10.417-.248 15.482-3.334 19.055-8.877 2.253 17.625 117.592 39.086 117.592 21.989 0 24.167-112.643 22.421-115.458-4.304 0-1.741-15.813-2.788-22.539 5.688-11.911 6.562-16.703 6.562-22.593 8.2-.535 14.189-12.11 15.048-20.17.684-6.417-2.127-10.49-7.897-5.84-1.675-3.713-2.33-9.362-1.421-14.21-6.37-10.687-6.329-20.73-16.702-27.182-3.574-2.223-15.101 3.033-19.714 3.033-22.051-3.58-32.708-.946-31.261 21.07-4.648 4.238-6.99 12.774-6.99 19.187-11.105-14.629-13.987 13.867 2.342 23.151Z" fill="#fff"/><path d="m129.735 115.171-27.937 20.028c3.801 2.471 15.068 11.939 15.068 11.939s6.304-.887 6.975 0c20.022 26.452 36.095 83.441 36.095 100.921 8.162-23.131 17.332-76.06 31.504-102.867.899-1.701 7.626-1.564 7.626-1.564l16.118-13.45s-17.938-14.26-23.744-16.526l-61.705 1.519Z" fill="#fff" stroke="#000"/><path d="M186.991 141.162c-1.656-5.428-2.168-17.847-1.465-21.385m-58.752 19.547c-1.465 14.364 48.279 26.6 60.217 3.721m-61.278-5.614c-4.795 23.844 56.926 29.057 62.362 5.614.273-1.177.718-3.402-1.084-3.65m4.094-19.618 5.573 19.618m-69.884-12.84-8.792 17.494m70.093-8.543 4.26 1.925" stroke="#000"/><path d="M126.536 137.998c2.736-4.533 3.439-13.906 2.736-17.444M193.163 87.675c-6.101 20.548-8.39 27.113-14.092 33.697-16.123 18.615-31.517 16.015-42.437 2.423-10.085-12.554-8.466-26.48-11.988-35.125" stroke="#000"/><path d="M198.058 53.492C185 55.318 189.57 27.13 171.686 31.453M199.032 66.481c-6.568-2.307-9.23-8.343-9.23-13.845M121.42 66.481c6.568-2.307 9.231-8.343 9.231-13.845" stroke="#fff"/><path d="M197.977 70.95c3.914-8.532 10.798-4.461 8.76 5.018-2.039 9.478-6.326 15.097-11.28 17.523m3.386-12.12c.331-2.582 1.099-4.44 1.997-5.723m3.389-2.394c-.929.084-2.261.785-3.389 2.394m0 0c.087-2.202 2.167-5.613 3.141-6.066M122.795 70.95c-3.913-8.532-10.797-4.461-8.759 5.018 2.038 9.478 6.325 15.097 11.279 17.523m-3.385-12.12c-.331-2.582-1.099-4.44-1.998-5.723m-3.389-2.394c.93.084 2.262.785 3.389 2.394m0 0c-.087-2.202-2.167-5.613-3.14-6.066" stroke="#000"/><path d="M144.676 101.359c2.296 9.492 4.702 20.974 12.204 20.974 7.501 0 12.094-12.248 14.544-20.974-7.461-.98-19.244-1.072-26.748 0Z" fill="#000"/><path d="M146.824 101.236c2.572 4.333 20.569 3.651 22.452 0-6.263-.823-16.153-.9-22.452 0Z" fill="#fff"/><path d="M170.784 101.782c-7.257-.883-18.216-.962-25.492-.003l.179.744c1.057 4.4 2.169 9.029 3.811 12.677 1.81 4.021 4.164 6.633 7.598 6.633 3.457 0 6.353-2.832 8.733-6.964 2.26-3.924 3.958-8.854 5.171-13.087Z" stroke="#000"/><path d="M159.498 66.483c-.177 3.068 0 11.621.859 16.45.863 4.848 1.386 5.95.645 8.42M156.104 91.832c-1.135-1.588-2.849-.497-4.052 0M164.331 92.722c.859-.936 1.013-2.215 1.013-2.215M150.5 92.421c-.859-.936-1.013-2.215-1.013-2.215" stroke="#000" stroke-miterlimit="10"/><path d="M203.199 61.07c-1.702 3.553-2.164 6.696-3.445 9.577-.365 7.24-2.248 18.936-3.831 26.027-1.165 5.214-2.265 10.707-4.811 19.931-1.49 5.397-8.513 10.86-15.363 14.823-3.408 2.973-7.502 5.203-12.043 5.908-2.987.029-5.976.029-8.963 0-4.541-.705-8.635-2.935-12.043-5.908-6.851-3.963-13.278-9.426-14.768-14.823-1.197-10.225-2.62-16.598-3.784-21.812-1.535-6.871-3.195-14.513-2.62-21.584-.597-4.858 1.156-9.01 3.758-7.271.054.705-.059 7.325 0 8.222.52 7.916.97 17.471 5.582 26.431 2.295 3.587 4.985 3.903 8.055 3.627 4.059-2.682 9.239-9.714 18.345-9.714h4.481c9.105 0 13.717 7.032 17.776 9.714 3.07.276 5.474-.04 7.769-3.627 5.714-8.932 6.205-19.466 6.725-27.382.059-.898-.457-18.499-1.022-20.696 0 0 12.473 3.816 10.202 8.558Z" fill="#000"/><path d="M186.76 66.003c-3.552-2.58-11.091-2.857-17.509-1.59-4.247.843-5.436-.937-4.75-4.558 7.356 1.302 10.803-.938 17.699 1.441 2.866.99 4.56 4.707 4.56 4.707ZM130.381 66.003c3.552-2.58 11.09-2.857 17.508-1.59 4.247.843 5.437-.937 4.751-4.558-7.356 1.302-10.804-.938-17.699 1.441-2.866.99-4.56 4.707-4.56 4.707ZM174.593 75.394a3.009 3.009 0 1 0 0-6.017 3.009 3.009 0 0 0 0 6.017Z" fill="#000"/><path d="M181.009 71.76c-4.394-3.028-9.158-2.373-10.933-1.158" stroke="#000" stroke-miterlimit="10"/><path d="M143.29 75.394a3.009 3.009 0 1 0 0-6.017 3.009 3.009 0 0 0 0 6.017Z" fill="#000"/><path d="M136.865 71.76c4.394-3.028 9.158-2.373 10.933-1.158" stroke="#000" stroke-miterlimit="10"/><path d="M147.058 104.358c4.085 3.575 16.649 4.803 23.693.641m1.537 2.981c-.219-2.495-2.013-4.29-3.458-4.902M154.764 116.297c1.312-.312 7.686.244 8.303.504" stroke="#fff" stroke-miterlimit="10"/><path d="M148.66 105.639c2.881 8.965 17.929 7.044 19.85.648M148.98 105.319c4.162-1.921 5.989-1.508 8.004-.961 2.918.79 4.162-2.241 11.846 1.536" stroke="#fff" stroke-miterlimit="10"/><path d="M187.02 79.617c-1.355 5.89-2.873 15.444-2.059 19.199m-52.044-10.678c1.282 3.916 2.815 10.712 2.815 12.762" stroke="#000"/><path d="M124 37.834c-8.573 7.395-12.752 25.734-9.99 33.283 0 0 3.171-7.41 7.092.871 2.159 4.56 4.562 10.656 4.562 10.656s-2.062-17.016 0-24.79c3.088-11.643 12.992-7.744 24.49-11.735 16.759-5.817 13.446-19.236 30.048-17.753 1.661.635 5.525 3.417 7.685 9.468 2.7 7.564 8.724 24.596 10.801 26.673 1.661 1.662 5.954-6.647 7.893-11.009 1.938-4.361.975-10.337.975-10.337-1.727.962-6.975 2.51-10.249-1.292-6.092-7.797-20.858-23.435-33.559-21.357l-.045.008c-16.308 2.668-24.224 3.963-39.703 17.314Z" fill="#000" stroke="#000"/><path d="M192.064 47.07c3.995 4.993 16.573-.536 15.167-4.253m-81.718-5.41c1.293 6.787 8.814 10.707 19.07 9.662m35.274-18.288c.735-.072 2.206-.539 2.206-1.827m12.384 28.122c2.398 1.255 7.753 3.388 9.989 1.882" stroke="#fff"/><path d="M59 300.11c-1.092-20.58 17.156-49.464 26.591-58.042-.807.27-2.295.498-3.523 0-.575-.233-1.944-.838-2.307-1.461-1.423-2.441-2.56-9.257 0-13.593 3.285-5.564 6.753-9.369 11.227-9.572 4.474-.204 8.536-2.653 12.196-2.246 2.928.325 8.762-.271 11.676 0 1.763-.813 6.261-.976 8.864 0 3.254 1.22 9.556 5.491 9.963 9.558.325 3.253-.949 6.371-1.627 7.524-.678 1.152-3.05-2.782-3.05-2.782v5.823l1.423 3.263 9.394 6.771c.695.801.427 3.459.427 6.022 0 3.205-7.097 7.181-9.821 8.636-3.743 1.999-13.069 2.46-16.435 1.683 1.877 1.683 5.831 6.518 7.041 8.405 3.353 5.229 1.066 49.193-7.041 63.547 3.752 3.752 13.134 15.217 13.134 21.451 0 7.791-7.721 21.349-7.432 25.677.288 4.329-.982 4.614 2.702 9.46 4.209 5.536 5.118 6.96 4.73 9.19-4.604 3.099-13.849 3.844-16.278-14.605-2.398-18.209-4.529-21.929-5.035-23.141-3.184 1.72-5.194 1.494-6.362 0 3.033 8.64 1.521 9.806 4.502 23.141 2.994 13.396 5.378 14.142 6.895 18.93 1.517 4.787-7.429 11.082-9.804 2.838-2.559-8.877-4.8-13.645-7.673-18.634-3.321-5.769-9.565-11.564-14.42-15.747a137.38 137.38 0 0 1-2.577 2.292c-10.988 9.549-23.51 5.15-24.432.681 7.402-1.77 16.284-4.157 17.424-11.788-16.759-19.189-9.295-43.013-10.371-63.281Z" fill="#fff"/><path d="m119.559 381.499.499-.033-.499.033Zm3.751 9.523.398-.303-.398.303ZM111.767 386l.496-.066-.496.066ZM74.26 368.053l.338-.369-.034-.031-.04-.024-.264.424Zm20.03 21.08-.433.25.433-.25Zm5.869 15.315-.495.071.495-.071Zm4.18-18.448.488-.109-.488.109Zm-52.37-10.685-.135-.482a.501.501 0 0 0-.365.482h.5Zm26.776-3.33.33-.376-.33.376Zm36.132-35.727c1.856 1.856 4.648 5.034 6.971 8.516 2.34 3.506 4.137 7.22 4.137 10.176h1c0-3.278-1.955-7.21-4.305-10.731-2.366-3.546-5.202-6.774-7.096-8.669l-.707.708Zm11.108 18.692c0 1.882-.438 4.195-1.106 6.698-.667 2.497-1.555 5.152-2.438 7.712-.881 2.553-1.761 5.02-2.4 7.114-.632 2.071-1.06 3.87-.981 5.058l.998-.066c-.065-.977.3-2.604.939-4.7.633-2.071 1.503-4.51 2.389-7.08.884-2.562 1.782-5.246 2.459-7.78.675-2.529 1.14-4.942 1.14-6.956h-1Zm-6.925 26.582c.141 2.123.159 3.385.63 4.703.472 1.318 1.387 2.675 3.222 5.09l.796-.606c-1.848-2.431-2.665-3.671-3.076-4.821-.411-1.15-.427-2.226-.574-4.432l-.998.066Zm3.852 9.793c1.049 1.38 1.821 2.465 2.362 3.349.544.888.837 1.544.956 2.069.114.505.068.893-.092 1.267-.169.397-.475.801-.933 1.319l.749.663c.467-.528.867-1.034 1.104-1.589.246-.577.305-1.18.147-1.881-.154-.681-.512-1.446-1.078-2.37-.568-.928-1.364-2.045-2.419-3.433l-.796.606Zm2.293 8.004c-.376.426-1.215.944-2.329 1.186a5.883 5.883 0 0 1-3.773-.434c-2.685-1.262-5.633-4.981-6.84-14.147l-.991.131c1.222 9.284 4.255 13.441 7.405 14.921a6.875 6.875 0 0 0 4.411.506c1.269-.276 2.316-.879 2.866-1.5l-.749-.663Zm-31.348-9.946c1.471 2.555 2.567 4.02 3.5 6.058.918 2.002 1.657 4.532 2.307 9.078l.99-.141c-.657-4.599-1.415-7.232-2.387-9.354-.956-2.086-2.141-3.706-3.543-6.14l-.867.499Zm5.807 15.136c.417 2.918 1.382 4.732 2.689 5.638 1.329.921 2.88.816 4.241.193 1.355-.62 2.584-1.774 3.377-3.087.789-1.306 1.195-2.851.756-4.235l-.954.302c.32 1.009.048 2.248-.658 3.416-.701 1.16-1.784 2.167-2.937 2.695-1.147.525-2.302.555-3.255-.106-.976-.676-1.869-2.16-2.269-4.957l-.99.141Zm11.063-1.491c-.768-2.424-1.548-3.481-2.423-5.417-.895-1.978-1.984-5.039-3.477-11.72l-.976.218c1.501 6.714 2.608 9.849 3.542 11.914.953 2.109 1.631 2.943 2.38 5.307l.954-.302Zm-48.666-53.535c.374 3.541 2.439 7.704 4.831 11.239 2.39 3.531 5.183 6.545 7.103 7.745l.53-.848c-1.742-1.089-4.44-3.965-6.805-7.458-2.362-3.491-4.317-7.489-4.664-10.783l-.995.105Zm55.97-85.07c.979.836 1.695 2.08 2.252 3.521.555 1.438.935 3.025 1.269 4.517l.976-.219c-.334-1.491-.727-3.144-1.312-4.659-.584-1.511-1.376-2.93-2.536-3.92l-.649.76Zm-5.768 121.511c-1.038-7.88-2.07-13.424-3.122-17.263-1.046-3.815-2.132-6.031-3.337-7.163l-.684.729c.986.927 2.016 2.901 3.057 6.699 1.034 3.774 2.059 9.265 3.095 17.129l.991-.131Zm-7.436-.043c-.621-2.777-1.103-5.587-1.567-8.408-.464-2.817-.909-5.647-1.455-8.445-1.091-5.598-2.588-11.107-5.465-16.244l-.873.488c2.802 5.002 4.274 10.391 5.357 15.947.541 2.779.984 5.59 1.449 8.416.464 2.823.951 5.657 1.578 8.464l.976-.218Zm-4.042-22.874c3.195-.399 6.21-3.178 6.791-6.373l-.984-.178c-.501 2.753-3.158 5.213-5.931 5.559l.124.992Zm-48.681 12.779c2.269-.636 6.185-1.377 9.796-3.04 3.63-1.673 7.069-4.324 8.366-8.858l-.961-.275c-1.185 4.141-4.328 6.614-7.824 8.224-3.514 1.62-7.264 2.318-9.647 2.986l.27.963Zm21.818-7.375c.97.889 2.589 2.262 4.493 3.939l.66-.751c-1.929-1.699-3.515-3.043-4.477-3.925l-.676.737Zm4.493 3.939c4.929 4.341 11.864 10.808 15.442 17.023l.867-.499c-3.672-6.378-10.732-12.944-15.648-17.275l-.661.751Zm-26.946 2.955c0 .647.32 1.281.805 1.848.49.573 1.187 1.121 2.033 1.608 1.694.974 4.05 1.734 6.755 1.933 5.428.401 12.282-1.455 18.067-8.399l-.768-.64c-5.569 6.683-12.103 8.42-17.225 8.042-2.57-.189-4.778-.911-6.33-1.803-.778-.447-1.375-.928-1.772-1.392-.403-.47-.565-.88-.565-1.197h-1Z" fill="#000"/><path d="M123.724 215.196c-2.603-.976-7.101-.813-8.864 0 2.418 2.39 7.268 7.746 7.328 10.047.076 2.876-.42 7.041 2.834 9.603 2.603 2.049 4.555 3.502 5.411 3.736l-1.423-3.263v-5.823s2.372 3.934 3.05 2.782c.678-1.153 1.952-4.271 1.627-7.524-.407-4.067-6.709-8.338-9.963-9.558ZM95.867 252.894c-6.566-1.287-8.53-8.582-8.69-12.069l-1.586 1.243c-.807.27-2.295.498-3.523 0-.575-.233-1.944-.838-2.307-1.461-1.424-2.44-2.56-9.257 0-13.593 3.285-5.564 6.753-9.369 11.227-9.572 4.474-.204 8.535-2.653 12.196-2.246 2.593.246 5.732 1.19 6.261 1.058.745-.186 9.033 8.568 8.94 12.014-.093 3.446 4.999 9.178 4.999 10.304 0 1.127-3.862 3.541-5.954 3.862-2.092.322 0 5.472 0 8.368 0 2.897-4.023 6.92-5.632 6.92s-7.724-3.218-15.931-4.828Z" fill="#FF641E" fill-opacity=".5"/><path d="M114.915 230.39c-.437-.875-3.341-.972-4.738-.911-1.003-.912 3.827-4.192 5.285-2.461 1.458 1.732 0 4.466-.547 3.372ZM128.805 230.259c-.32-.641-1.44-2.047-2.463-2.002-.733-.667 1.687-1.887 2.754-.62 1.068 1.267.109 3.422-.291 2.622Z" fill="#000"/><path d="M139.113 244.771c-1.996-2.577-14.811-7.794-16.179-13.467" stroke="#000"/><ellipse cx="110.932" cy="233.654" rx="1.704" ry="2.25" transform="rotate(12.143 110.932 233.654)" fill="#000"/><ellipse cx="127.728" cy="233.215" rx="1.044" ry="2.25" transform="rotate(6.015 127.728 233.215)" fill="#000"/><path d="M106.399 249.119c4.341 8.268 17.157 10.659 21.859 9.778 4.701-.882 8.217-3.668 9.319-4.464" stroke="#000"/><path d="M132.245 254.862c-1.818-6.682-1.635-9.208-1.635-9.208 0-2.407 6.656-2.798 8.757-2.102 2.102.697 2.413 2.906 2.311 5.199-.116 2.611-1.209 4.764-3.509 6.111-1.715 1.004-5.403 1.917-5.924 0Z" fill="#000"/><path d="M112.312 263.077c-21.388 4.967-32.886-6.479-35.128-12.056-4.636 0-4.462 3.919-3.887 5.414 12.418 21.56 36.273 15.611 41.447 13.024 4.645-2.323 3.528-8.145-2.432-6.382Z" fill="#FF641E"/><path d="M81.019 241.73c4.244 2.4 8.47-2.615 9.813-7.23 1.678-5.768-1.43-11.109 3.263-14.156.49-.318 2.267-1.295 2.628-1.544m26.027-.973c1.317 1.224 4.127 4.242 4.83 6.525m0 36.846c-5.678 1.602-12.192 1.268-18.464-.449" stroke="#000"/><path d="M140.307 277.481c-1.308 3.183-1.593 3.934-3.417 7.101-1.212 3.388-4.681 4.231-6.429 5.757l9.846 27.777c6.093-6.98 17.086-11.807 19.902-12.423 3.678-.804 10.915-1.655 14.375-3.236 3.655-1.665 5.869-4.898 9.081-7.171.789-.562 2.663-1.132 2.837-1.876 1.724-1.062 1.776-1.952 2.267-3.934.412-1.599-.414-4.276 0-5.828.463-1.709 1.052-3.568 1.572-5.304.548-1.844.819-2.406.63-4.318-.116-1.197-1.026-3.835-1.686-4.51.423-.726 1.287-1.76 1.686-2.495 1.598-2.92.496-6.046-3.605-5.278.483-.718 1.475-1.828 1.919-2.591 1.304-2.202.974-4.921-1.178-5.991-2.383-1.185-4.989-.075-6.296 2.08a4.759 4.759 0 0 0-1.963.83 62.043 62.043 0 0 1-17.869 8.736c-7.067 1.153-7.326-5.559-6.572-9.059-3.57 2.881-6.895 5.907-9.622 10.243-4.195 3.943-5.525 9.511-5.478 11.49Z" fill="#fff"/><path d="M133.864 288.667c10.69-13.576 2.299-11.622 12.816-23.922 3.656-4.276 6.59-6.891 9.059-8.918" stroke="#000" stroke-linejoin="bevel"/><path d="M176.173 270.505c2.41-1.215 5.927-3.178 11.142-8.823 5.216-5.645 1.474-11.71-4.607-7.152-4.17 3.118-18.645 12.095-24.401 10.631-3.585-2.113-3.604-6.579-3.166-8.548M189.264 261.857c1.954.943 3.918.81.497 7.325-3.42 6.516-4.943 6.525-5.378 9.341" stroke="#000" stroke-linejoin="bevel"/><path d="M190.885 272.343c.445 8.143-1.721 6.849-2.083 10.735-.363 3.887 1.818 7.484-3.293 11.185-5.618 4.066-11.656 10.475-20.246 10.786-11.11.411-18.919 8.913-25.336 13.565" stroke="#000" stroke-linejoin="bevel"/><path d="M151.161 315.389c-9.298-1.134-17.014-27.129-17.992-32.004 0 0-43.264 8.096-68.348 18.825-5.118 2.189-12.517 5.732-12.517 5.732l-22.758 49.665 34.774.854 19.57-6.596s15.502-4.014 21.416-7.283c24.26-13.411 45.855-29.193 45.855-29.193Z" fill="#000"/><path d="M133.169 283.385c.978 4.875 8.694 30.87 17.992 32.004m-17.992-32.004s-43.264 8.096-68.348 18.825c-5.118 2.189-12.517 5.732-12.517 5.732l-22.758 49.665 34.774.854 19.57-6.596s15.502-4.014 21.416-7.283c24.26-13.411 45.855-29.193 45.855-29.193m-17.992-32.004c1.562-1.116 2.056-1.356 3.636.669m14.356 31.335c.909-.432 2.763-2.888.707-4.62" stroke="#000"/><path d="M123.538 273.264c-3.467-.452-7.977 5.465-9.799 8.48l3.448 3.529c3.447 2.488 1.517 6.514 0 15.279-1.517 8.766 9.271 7.08 11.439 2.023 1.735-4.045.723-15.573 0-20.831-.251-2.638-1.62-8.028-5.088-8.48ZM99.885 285.273c-3.107-3.402-15.326-6.494-20.086-5.502l8.783 9.747c6.129 4.133 3.848 7.697 4.989 16.819.912 7.297 7.172 6.249 10.19 3.515 2.753-2.493 0-20.334-3.876-24.579Z" fill="#fff"/><path d="M113.739 281.744c1.822-3.015 6.332-8.932 9.799-8.48 3.468.452 4.837 5.842 5.088 8.48.723 5.258 1.735 16.786 0 20.831-2.168 5.057-12.956 6.743-11.439-2.023 1.517-8.765 3.447-12.791 0-15.279m-37.388-5.502c4.76-.992 14.368-.757 20.086 5.502 3.876 4.245 6.629 22.086 3.876 24.579-3.018 2.734-9.278 3.782-10.19-3.515-1.14-9.122.39-13.714-4.202-14.678" stroke="#000"/></svg>