<svg width="345" height="727" fill="none" xmlns="http://www.w3.org/2000/svg"><path d="m156.678 214.75 25.145-1.671a2 2 0 0 1 2.128 1.863l2.318 34.884" stroke="#000"/><rect width="31.538" height="64.631" rx="2" transform="scale(-1 1) rotate(3.802 -3316.006 -2658.177)" fill="#FF641E"/><g filter="url('#filter0_d_665_1076')"><path d="M185.358 214.36a1.999 1.999 0 0 0-2.111-1.864l-29.275 1.694a2 2 0 0 0-1.875 2.186l5.762 60.65a2 2 0 0 0 2.124 1.806l27.534-1.829a2 2 0 0 0 1.863-2.129l-4.022-60.514Z" fill="#FF641E"/></g><path d="m185.241 239.596-1.567-23.589a2 2 0 0 0-2.129-1.863l-27.477 1.826a2 2 0 0 0-1.863 2.128l4.02 60.498a2 2 0 0 0 2.128 1.863l27.478-1.826a2 2 0 0 0 1.863-2.128l-2.019-30.376" stroke="#000"/><path d="m184.411 271.33-24.785 1.647" stroke="#fff"/><defs><filter id="filter0_d_665_1076" x="142.088" y="202.492" width="57.296" height="86.344" filterUnits="userSpaceOnUse" color-interpolation-filters="sRGB"><feFlood flood-opacity="0" result="BackgroundImageFix"/><feColorMatrix in="SourceAlpha" values="0 0 0 0 0 0 0 0 0 0 0 0 0 0 0 0 0 0 127 0" result="hardAlpha"/><feOffset/><feGaussianBlur stdDeviation="5"/><feComposite in2="hardAlpha" operator="out"/><feColorMatrix values="0 0 0 0 1 0 0 0 0 0.392157 0 0 0 0 0.117647 0 0 0 1 0"/><feBlend in2="BackgroundImageFix" result="effect1_dropShadow_665_1076"/><feBlend in="SourceGraphic" in2="effect1_dropShadow_665_1076" result="shape"/></filter></defs></svg>