<svg width="58" height="87" fill="none" xmlns="http://www.w3.org/2000/svg"><path d="m15.04 12.39 25.145-1.67a2 2 0 0 1 2.128 1.863l2.318 34.884" stroke="#000"/><rect width="31.538" height="64.631" rx="2" transform="scale(-1 1) rotate(3.802 -196.502 -625.483)" fill="#FF641E"/><g filter="url('#filter0_d_546_103')"><path d="M43.72 12a2 2 0 0 0-2.11-1.863L12.335 11.83a2 2 0 0 0-1.876 2.186l5.763 60.65a2 2 0 0 0 2.124 1.806l27.533-1.83a2 2 0 0 0 1.863-2.128l-4.021-60.514Z" fill="#FF641E"/></g><path d="m43.604 37.237-1.568-23.59a2 2 0 0 0-2.128-1.862L12.43 13.61a2 2 0 0 0-1.863 2.128l4.02 60.498a2 2 0 0 0 2.129 1.863l27.477-1.826a2 2 0 0 0 1.863-2.129L44.038 43.77" stroke="#000"/><path d="m42.774 68.97-24.785 1.648" stroke="#fff"/><defs><filter id="filter0_d_546_103" x=".45" y=".133" width="57.296" height="86.344" filterUnits="userSpaceOnUse" color-interpolation-filters="sRGB"><feFlood flood-opacity="0" result="BackgroundImageFix"/><feColorMatrix in="SourceAlpha" values="0 0 0 0 0 0 0 0 0 0 0 0 0 0 0 0 0 0 127 0" result="hardAlpha"/><feOffset/><feGaussianBlur stdDeviation="5"/><feComposite in2="hardAlpha" operator="out"/><feColorMatrix values="0 0 0 0 1 0 0 0 0 0.392157 0 0 0 0 0.117647 0 0 0 1 0"/><feBlend in2="BackgroundImageFix" result="effect1_dropShadow_546_103"/><feBlend in="SourceGraphic" in2="effect1_dropShadow_546_103" result="shape"/></filter></defs></svg>