<svg width="69" height="72" fill="none" xmlns="http://www.w3.org/2000/svg"><path d="M13.307 29.48c-1.308 3.184-1.594 3.935-3.417 7.102-1.212 3.388-4.681 4.23-6.43 5.758l9.847 27.776c6.093-6.98 17.086-11.807 19.902-12.423 3.678-.804 10.915-1.655 14.375-3.236 3.655-1.666 5.869-4.898 9.08-7.171.79-.562 2.664-1.132 2.838-1.876 1.724-1.062 1.776-1.952 2.267-3.934.412-1.6-.414-4.276 0-5.828.463-1.709 1.052-3.568 1.572-5.304.548-1.844.819-2.406.63-4.318-.116-1.197-1.026-3.834-1.686-4.51.423-.726 1.287-1.76 1.686-2.495 1.598-2.92.496-6.046-3.605-5.278.483-.718 1.475-1.828 1.92-2.59 1.303-2.203.973-4.922-1.178-5.992-2.384-1.185-4.99-.075-6.297 2.08-.642.115-1.31.36-1.963.83a62.035 62.035 0 0 1-17.869 8.736c-7.067 1.153-7.326-5.559-6.572-9.059-3.57 2.881-6.895 5.907-9.622 10.243-4.196 3.944-5.524 9.51-5.478 11.49Z" fill="#fff"/><path d="M6.864 40.667c10.69-13.576 2.3-11.622 12.816-23.922 3.656-4.276 6.59-6.891 9.059-8.918" stroke="#000" stroke-linejoin="bevel"/><path d="M49.173 22.505c2.41-1.215 5.927-3.177 11.142-8.823 5.216-5.645 1.474-11.71-4.607-7.152-4.17 3.118-18.645 12.095-24.401 10.631-3.585-2.113-3.604-6.58-3.166-8.548M62.264 13.857c1.954.943 3.918.81.497 7.325-3.42 6.516-4.943 6.524-5.378 9.341" stroke="#000" stroke-linejoin="bevel"/><path d="M63.885 24.343c.446 8.143-1.721 6.849-2.084 10.735-.362 3.887 1.819 7.484-3.292 11.185-5.618 4.066-11.656 10.475-20.246 10.786-11.11.411-18.92 8.913-25.336 13.565" stroke="#000" stroke-linejoin="bevel"/></svg>