<svg width="67" height="63" fill="none" xmlns="http://www.w3.org/2000/svg"><path d="M22.698 1.259C15.804.799 9.23 4.769 6.804 6.812l-3 13.387S-.54 43.163.617 54.105c.343 3.254 2.482 5.414 2.482 5.414 1.053-.21 3.35-.505 4.864 0 1.894.631 2.936 3.396 5.565 3.135 8.314-.825 11.975-2.534 13.467-3.135 1.493-.601 7.374 1.211 9.336 1.211 1.961 0 4.086-.807 4.903-1.21 5.189-2.12 16.247-7.041 18.976-9.77 2.73-2.73 3.554-5.615 3.625-6.716-.071-.675-.555-2.047-1.92-2.133l2.88-3.73c1.35-2.524 2.877-7.548-1.813-7.463.71-2.38 1.344-7.247-3.346-6.564-5.71.83-5.502 2.406-11.472 3.473-3.988.712-21.351 2.15-28.266-4.628-.933-2.385-2.24-7.299 0-7.871 2.24-.572 3.492-2.375 3.956-3.195L22.698 1.26Z" fill="#fff"/><path d="M2.83 59.52c1.053-.211 3.062-.506 4.577 0 1.894.63 3.716 3.208 7.046 2.878 5.795-.575 9.432-1.561 10.796-2.321m36.667-19.175c1.364.085 1.848 1.456 1.919 2.132-.072 1.101-.896 3.987-3.625 6.716-.867.867-2.575 1.955-4.667 3.104m6.373-11.952 2.878-3.732c1.35-2.523 2.878-7.547-1.812-7.462m-1.066 11.194c-6.27 3.139-13.752 8.848-18.64 9.59-7.417 1.126-18.068-.932-25.146-.742m44.852-20.042c.71-2.38 1.344-7.247-3.346-6.564-5.71.83-5.502 2.407-11.472 3.473-3.988.712-21.351 2.15-28.266-4.628-.933-2.385-1.91-6.569 0-7.87 1.932-1.318 2.634-1.896 3.636-2.816l-.536-10.1C16.953.798 10.962 3.827 7.9 5.975m55.08 23.732c-11.646 10.942-26.828 9.76-41.705 8.28m-7.748 17.657c3.54 1.265 13.467 3.874 13.467 3.874s7.374 1.211 9.336 1.211c1.961 0 4.086-.807 4.903-1.21 2.648-1.082 6.823-2.893 10.64-4.77" stroke="#000"/></svg>