<svg width="273" height="568" fill="none" xmlns="http://www.w3.org/2000/svg"><path d="M47.956 106.023c0-3.345.091-9.827 5.457-11.55.43-.138.918-.293 1.369-.324 0 0 1.557-1.306 4.277-1.306s20.42 1.305 26.62 18.056c.499 1.346-.052 2.466-.337 3.659.387 2.007.002 5.759-4.055 6.52l-33.331-15.055Z" fill="#fff"/><path d="M85.342 114.558c.387 2.007.002 5.759-4.055 6.52l-33.331-15.055c0-3.345.091-9.827 5.457-11.55.43-.138.918-.293 1.369-.324m30.56 20.409c-4.008-16.333-22.28-20.978-30.56-20.41m30.56 20.41c.285-1.193.836-2.313.337-3.659-6.2-16.75-23.9-18.056-26.62-18.056-2.72 0-4.277 1.306-4.277 1.306" stroke="#000"/><g filter="url('#filter0_d_665_1663')"><path d="M60.01 152.12c-1.696 3.381-8.605 3.345-15.43-.081-6.825-3.426-10.983-8.944-9.286-12.325l14.333-38.384c1.41-2.838 7.014-7.25 18.147-2.19 13.687 6.222 16.603 13.128 15.052 18.634a1.839 1.839 0 0 1-.242.517L60.01 152.12Z" fill="#FF641E"/><path d="m59.595 151.843-.017.025-.014.028c-.717 1.428-2.608 2.25-5.343 2.236-2.7-.014-6.058-.854-9.417-2.54s-6.038-3.877-7.663-6.033c-1.646-2.185-2.117-4.193-1.4-5.62l.012-.024.01-.026 14.324-38.359c.648-1.286 2.282-2.991 5.101-3.775 2.83-.786 6.891-.654 12.38 1.84 6.8 3.092 10.862 6.327 13.037 9.418 2.162 3.074 2.473 6.022 1.74 8.625a1.314 1.314 0 0 1-.177.375l-22.573 33.83Z" stroke="#000"/></g><defs><filter id="filter0_d_665_1663" x="24.915" y="92.828" width="68.287" height="77.804" filterUnits="userSpaceOnUse" color-interpolation-filters="sRGB"><feFlood flood-opacity="0" result="BackgroundImageFix"/><feColorMatrix in="SourceAlpha" values="0 0 0 0 0 0 0 0 0 0 0 0 0 0 0 0 0 0 127 0" result="hardAlpha"/><feOffset dy="6"/><feGaussianBlur stdDeviation="5"/><feComposite in2="hardAlpha" operator="out"/><feColorMatrix values="0 0 0 0 1 0 0 0 0 0.392157 0 0 0 0 0.117647 0 0 0 1 0"/><feBlend in2="BackgroundImageFix" result="effect1_dropShadow_665_1663"/><feBlend in="SourceGraphic" in2="effect1_dropShadow_665_1663" result="shape"/></filter></defs></svg>