<svg width="273" height="568" viewBox="0 0 273 568" fill="none" xmlns="http://www.w3.org/2000/svg">
<path d="M47.9556 106.023C47.9554 102.678 48.047 96.1958 53.4126 94.4732C53.8429 94.3351 54.3311 94.1795 54.7817 94.1486C54.7817 94.1486 56.3386 92.8428 59.0586 92.8428C61.7785 92.8428 79.4799 94.1485 85.6794 110.899C86.1776 112.245 85.6272 113.365 85.3418 114.558C85.7292 116.565 85.3442 120.317 81.2869 121.078L47.9556 106.023Z" fill="white"></path>
<path d="M85.3418 114.558C85.7292 116.565 85.3442 120.317 81.2869 121.078L47.9556 106.023C47.9554 102.678 48.047 96.1958 53.4126 94.4732C53.8429 94.3351 54.3311 94.1795 54.7817 94.1486M85.3418 114.558C81.3336 98.2246 63.062 93.5796 54.7817 94.1486M85.3418 114.558C85.6272 113.365 86.1776 112.245 85.6794 110.899C79.4799 94.1485 61.7785 92.8428 59.0586 92.8428C56.3386 92.8428 54.7817 94.1486 54.7817 94.1486" stroke="black"></path>
<g filter="url('#filter0_d_665_1663')">
<path d="M60.0108 152.12C58.3139 155.501 51.4053 155.465 44.58 152.039C37.7547 148.613 33.5973 143.095 35.2942 139.714L49.6274 101.33C51.0374 98.4919 56.6409 94.0799 67.7743 99.1405C81.4608 105.362 84.3767 112.268 82.8259 117.774C82.7741 117.958 82.69 118.131 82.5838 118.291L60.0108 152.12Z" fill="#FF641E"></path>
<path d="M59.5949 151.843L59.5778 151.868L59.5639 151.896C58.8473 153.324 56.9563 154.146 54.2212 154.132C51.521 154.118 48.1632 153.278 44.8043 151.592C41.4454 149.906 38.7655 147.715 37.1406 145.559C35.4947 143.374 35.0244 141.366 35.741 139.939L35.7531 139.915L35.7626 139.889L50.0865 101.53C50.7346 100.244 52.3693 98.5387 55.1885 97.755C58.0172 96.9687 62.0792 97.101 67.5674 99.5957C74.3678 102.687 78.4301 105.922 80.6051 109.013C82.7672 112.087 83.0781 115.035 82.3447 117.638C82.3088 117.766 82.249 117.892 82.1679 118.013L59.5949 151.843Z" stroke="black"></path>
</g>
<defs>
<filter id="filter0_d_665_1663" x="24.915" y="92.8281" width="68.2866" height="77.8042" filterUnits="userSpaceOnUse" color-interpolation-filters="sRGB">
<feFlood flood-opacity="0" result="BackgroundImageFix"></feFlood>
<feColorMatrix in="SourceAlpha" type="matrix" values="0 0 0 0 0 0 0 0 0 0 0 0 0 0 0 0 0 0 127 0" result="hardAlpha"></feColorMatrix>
<feOffset dy="6"></feOffset>
<feGaussianBlur stdDeviation="5"></feGaussianBlur>
<feComposite in2="hardAlpha" operator="out"></feComposite>
<feColorMatrix type="matrix" values="0 0 0 0 1 0 0 0 0 0.392157 0 0 0 0 0.117647 0 0 0 1 0"></feColorMatrix>
<feBlend mode="normal" in2="BackgroundImageFix" result="effect1_dropShadow_665_1663"></feBlend>
<feBlend mode="normal" in="SourceGraphic" in2="effect1_dropShadow_665_1663" result="shape"></feBlend>
</filter>
</defs>
</svg>
