<svg width="273" height="568" viewBox="0 0 273 568" fill="none" xmlns="http://www.w3.org/2000/svg">
<g clip-path="url('#clip0_665_1491')">
<path d="M52.2447 393.031L47.04 410.959L55.7146 483.248L85.2084 566.524L147.087 539.344L192.774 435.248L206.653 388.983L178.316 369.899L61.4977 380.887L52.2447 393.031Z" fill="white" stroke="black"></path>
<path d="M94.5947 485.011L115.058 422.691M94.5947 393.856L105.757 416.18M115.058 410.575L142.035 393.856" stroke="black"></path>
<path d="M204.662 448.94L213.69 443.445C222.063 438.343 240.302 428.059 246.268 427.745C253.726 427.352 263.931 457.575 263.931 464.248L263.931 484.658C273.979 500.045 272.043 511.218 269.818 514.881C259.221 522.47 237.083 538.589 233.315 542.357C228.605 547.067 210.157 547.459 197.597 542.357C187.549 538.275 188.439 517.106 190.14 507.031L204.662 448.94Z" fill="white" stroke="black"></path>
<path d="M213.682 444.044C215.031 443.563 221.518 444.496 224.756 448.428M231.677 433.893C233.412 433.797 240.905 435.739 243.558 439.314M205.023 449.449C209.552 450.509 219.419 456.387 222.657 471.419C226.705 490.21 229.017 491.366 237.112 490.788C243.587 490.326 257.733 479.996 263.997 474.888M222.657 546.152C227.765 544.385 236.94 533.125 232.775 502.223" stroke="black"></path>
<path d="M216.992 413.645C213.838 415.565 214.261 434.151 214.489 443.237L222.218 445.775C222.218 437.431 222.718 419.234 224.364 415.531C226.421 410.902 228.135 416.217 231.221 417.245C233.69 418.068 233.507 428.674 233.107 433.874C233.621 434.16 237.118 434.367 239.175 435.739C242.183 437.744 241.164 433.532 241.164 428.903C241.164 424.274 237.907 415.702 235.679 410.045C233.45 404.388 220.935 411.245 216.992 413.645Z" fill="black" stroke="black"></path>
<path d="M216.688 413.594C214.372 411.663 215.723 400.242 216.688 394.772C230.146 392.108 237.457 395.882 239.43 398.102L236.44 411.817L233.777 413.594C233.282 415.049 231.553 417.96 228.589 417.96C225.624 417.96 223.648 415.049 223.03 413.594C221.882 414.398 219.005 415.524 216.688 413.594Z" fill="white"></path>
<path d="M224.659 400.036L224.659 411.817M233.777 403.201L233.777 410.234M216.688 394.772C215.723 400.242 214.372 411.663 216.688 413.594C219.005 415.524 221.882 414.398 223.03 413.594C223.648 415.049 225.624 417.96 228.589 417.96C231.553 417.96 233.282 415.049 233.777 413.594L236.44 411.817L239.43 398.102C237.457 395.882 230.146 392.108 216.688 394.772Z" stroke="black"></path>
<path d="M154.876 142.368C141.009 158.546 121.56 146.53 112.412 140.752L63.8765 206.886L83.617 297.885L83.617 389.847C92.8614 385.225 145.567 384.069 170.764 384.069L186.653 219.886L170.764 134.183L151.834 130.401L154.876 142.368Z" fill="black" stroke="black"></path>
<path d="M155.83 139.814C157.609 140.897 158.613 143.848 156.786 146.773C141.626 171.048 118.662 166.23 111.523 156.855C110.786 155.468 110.062 152.431 113.064 151.371M91.4526 374.908C110.215 373.395 150.008 370.823 159.087 372.638" stroke="white"></path>
<path d="M70.892 149.173C65.741 154.978 42.6418 170.069 31.7361 176.888L43.8739 189.246L31.0793 214.914L27.9738 227.151L20.5692 243.495L16.2798 282.349L42.6803 292.766C41.7279 331.222 42.3894 352.457 40.97 364.716C39.2218 371.359 37.1582 375.299 36.6968 378.151L35.3906 418.699L76.7643 424.433L93.2743 353.703L106.696 256.851L101.509 214.443L99.8262 171.562L113.999 141.9L114.903 117.783L99.3863 119.979C92.0344 127.291 76.043 143.367 70.892 149.173Z" fill="white"></path>
<path d="M224.417 170.447C217.948 166.943 192.917 136.381 181.21 121.538C181.21 121.538 159.94 117.031 153.162 121.538C141.329 129.407 163.777 136.067 163.777 136.067L169.849 156.023L172.302 185.819C165.695 186.474 162.81 203.057 162.193 211.266L148.963 242.969L158.537 322.681L165.837 379.823L176.2 438.212L216.334 424.814L216.736 398.802L244.534 406.952L253.212 386.366L258.529 347.997L264.847 337.413L258.785 271.376L253.111 261.353L244.348 222.65L224.417 170.447Z" fill="white"></path>
<path d="M70.892 149.173C65.741 154.978 42.6418 170.069 31.7361 176.888L43.8739 189.246L31.0793 214.914L27.9738 227.151L20.5692 243.495L16.2798 282.349L42.6803 292.766C41.7279 331.222 42.3894 352.457 40.97 364.716C39.2218 371.359 37.1582 375.299 36.6968 378.151L35.3906 418.699L76.7643 424.433L93.2742 353.703L106.696 256.851L101.509 214.443L99.8262 171.562L113.999 141.9L114.903 117.783L99.3863 119.979C92.0344 127.291 76.043 143.367 70.892 149.173Z" fill="#FF641E" fill-opacity="0.5"></path>
<path d="M224.417 170.447C217.948 166.943 192.917 136.381 181.21 121.538C181.21 121.538 159.94 117.031 153.162 121.538C141.329 129.407 163.777 136.067 163.777 136.067L169.849 156.023L172.302 185.819C165.695 186.474 162.81 203.057 162.193 211.266L148.963 242.969L158.537 322.681L165.837 379.823L176.2 438.212L216.334 424.814L216.736 398.801L244.534 406.952L253.212 386.366L258.529 347.997L264.847 337.413L258.785 271.376L253.111 261.353L244.348 222.65L224.417 170.447Z" fill="#FF641E" fill-opacity="0.5"></path>
<path d="M181.21 121.539C192.917 136.381 217.948 166.943 224.417 170.448L244.349 222.651L253.112 261.353L258.786 271.376L264.847 337.413L258.529 347.998L253.212 386.367L244.534 406.952L216.736 398.802L216.334 424.815L176.2 438.212L165.837 379.823L158.537 322.681L148.964 242.969L162.194 211.266C162.81 203.057 165.696 186.474 172.303 185.819L169.849 156.023L163.778 136.067M36.6971 378.152L35.3909 418.7L76.7646 424.433L93.2746 353.703L106.696 256.851L101.509 214.443L99.8265 171.563L114 141.9L114.904 117.783L99.3866 119.98C92.0347 127.292 76.0433 143.367 70.8923 149.173C65.7413 154.979 42.6421 170.069 31.7364 176.889L43.8742 189.246M16.28 274.449L20.5694 243.495L27.9741 227.152L31.0795 214.915L41.2521 194.507" stroke="black"></path>
<path d="M32.1736 178.145C42.2001 187.511 63.828 206.815 70.1279 209.106C76.4278 211.397 85.667 210.668 89.4991 210.018L90.2514 221.643C95.4029 226.394 105.585 236.766 105.103 240.245M153.54 242.232C159.289 230.33 172.188 205.805 177.798 202.912C183.407 200.019 210.687 181.345 223.626 172.369M172.814 186.668C180.168 184.07 195.335 177.635 197.178 172.682M73.0701 204.315C79.5904 196.658 93.2598 181.431 95.7755 181.78M28.7956 224.945L48.3834 235.419M17.932 278.452L43.9893 282.062M56.9491 304.208L80.8162 307.515M53.4698 238.539L47.0452 284.9L42.5825 292.215L41.0934 340.295L41.1479 364.791L38.307 372.847M48.7895 363.09L70.2385 366.063M40.4193 409.872L63.7201 413.101M103.94 248.637L72.4006 420.512M170.939 252.403L200.106 248.685M207.539 195.049L206.71 249.6L212.042 299.162L216.85 364.65L215.896 392.922M220.63 337.372L247.504 337.731L258.808 335.09M217.441 293.599L234.555 285.454L254.825 284.897M213.376 246.34L228.395 235.801L243.902 233.186M220.124 389.592L244.564 395.378M179.413 373.729L210.149 367.471M173.884 310.41L203.03 306.516M71.3387 244.119L91.6168 246.929M163.091 256.833L174.555 377.087L185.632 432.065M189.167 421.038L209.625 416.787M193.425 324.869L197.367 361.661L206.71 359.033L203.03 322.241L193.425 324.869ZM53.1478 318.529L60.6738 321.11L56.9491 355.562L48.7895 351.644L53.1478 318.529Z" stroke="black"></path>
<path d="M101.611 44.2245C107.899 36.8314 119.688 33.8848 125.348 33.6584L128.148 33.3684C128.148 33.3684 128.607 31.8455 128.668 30.3618C128.721 29.0508 128.336 27.5657 128.548 26.2707C128.767 24.925 129.929 23.0638 129.929 23.0638C129.59 22.3622 128.392 20.1521 126.304 16.9246C123.693 12.8901 125.617 0.956503 133.103 -0.0929305C139.092 -0.932477 146.75 4.14868 149.83 6.79421C152.91 9.43973 156.495 17.221 160.751 26.088C162.541 29.8174 161.545 35.2803 159.63 37.0167C158.478 38.0618 156.329 39.7555 155.369 39.8017C164.195 42.3761 168.844 58.8453 169.62 62.1969C170.977 68.0656 170.527 76.9623 169.594 83.9924C174.375 90.5996 169.501 95.14 166.542 101.655C164.175 106.866 158.717 108.91 156.284 109.28C151.543 120.725 153.31 135.814 155.418 142.26C155.958 143.479 155.418 148.018 150.869 151.834C129.518 169.749 115.036 159.391 113.722 154.244L112.706 136.974C103.839 137.769 100.781 130.912 100.36 127.384L97.4882 119.796C95.9132 113.825 92.4814 100.817 91.3539 96.5489C90.2264 92.2804 92.5521 85.117 93.856 82.0688L91.7732 75.6679C92.2202 68.4295 94.351 52.7597 101.611 44.2245Z" fill="white"></path>
<path d="M134.925 54.6128C151.841 58.8419 144.112 73.4769 151.841 89.0496C157.306 100.06 146.404 111.741 136.725 118.955C127.46 125.862 135.85 141.298 136.725 145.589" stroke="black"></path>
<path d="M93.3672 58.2695C85.9736 62.029 80.7724 81.0185 89.772 102.773C97.4486 121.329 88.2677 126.845 83.0019 130.607" stroke="black"></path>
<path d="M108.301 79.2942C108.706 82.9882 107.822 91.0347 103.434 96.6019C102.232 98.1515 100.701 102.018 104.804 103.922C106.75 104.825 108.26 105.303 108.445 106.663M114.499 105.597C116.291 105.253 119.017 103.318 116.821 99.4442M109.466 103.532C110.568 103.396 112.927 103.248 113.547 103.747" stroke="black"></path>
<path d="M125.348 33.6584C119.688 33.8848 107.899 36.8314 101.611 44.2246C97.9784 48.4952 94.5952 57.6094 93.0994 63.5026C91.6057 69.3872 91.9968 72.0514 91.7735 75.6679L93.8563 82.0689C92.9529 84.1808 91.5589 88.2683 91.1629 91.9997M112.706 136.974C103.839 137.769 100.781 130.912 100.36 127.384L97.4885 119.796C95.9135 113.825 92.4817 100.817 91.3542 96.5489C91.2123 96.0119 91.1251 95.4291 91.0837 94.8145M112.706 136.974L113.723 154.244M112.706 136.974C116.65 136.462 123.5 135.064 130.086 132.608M155.418 142.26C153.31 135.814 151.543 120.725 156.284 109.28M156.284 109.28C158.718 108.91 164.176 106.866 166.543 101.655C169.501 95.1401 174.375 90.5997 169.595 83.9924M156.284 109.28C154.916 109.396 152.551 108.646 154.043 104.722C154.043 104.722 159.274 96.3885 159.521 95.9077C162.594 89.9333 165.425 83.9809 169.674 87.0647M169.595 83.9924C170.527 76.9623 170.977 68.0656 169.62 62.1969C168.845 58.8453 165.546 43.4651 156.072 39.543M169.595 83.9924C167.902 82.7339 163.818 81.6194 161.02 87.2298C160.492 88.5038 159.315 91.7425 158.838 94.505M156.072 39.543C156.072 39.543 158.478 38.0618 159.63 37.0167C161.545 35.2803 162.542 29.8174 160.751 26.088C156.495 17.221 152.91 9.43974 149.83 6.79421C146.75 4.14869 139.092 -0.932472 133.103 -0.0929263C125.618 0.956506 123.693 12.8901 126.304 16.9246C128.392 20.1522 129.591 22.3622 129.929 23.0638M156.072 39.543C153.079 37.7952 137.519 34.9268 129.007 33.5168M129.929 23.0638C138.284 23.8399 155.586 27.1477 157.955 34.1705M129.929 23.0638C128.327 25.6301 128.784 27.5402 128.668 30.3618C128.607 31.8456 128.148 33.3684 128.148 33.3684M152.97 110.184C151.089 116.929 146.774 122.024 144.608 123.898C141.651 126.536 138.593 128.8 134.994 130.531M157.196 100.04C163.045 98.1234 163.972 94.8734 166.165 95.7712M143.855 7.38101C142.676 8.38104 141.951 11.225 148.481 14.6003C155.012 17.9757 155.288 17.9968 154.61 17.5854M138.926 4.91009C135.66 4.72593 129.351 5.9075 130.247 12.1071M141.123 9.54891C138.212 9.04583 132.313 14.3831 138.063 21.0135M134.33 24.5663C133.398 27.442 134.994 33.9159 148.116 37.1663M127.557 36.7932C119.255 37.8877 116.073 44.3727 116.403 45.4744M133.89 37.8877C131.545 40.5832 126.81 46.228 126.635 47.2426M138.063 39.543L138.063 48.8374M155.636 82.2893C155.26 80.5118 155.333 78.3746 155.209 75.9802C154.978 71.5191 150.536 57.8894 143.476 54.7056C140.322 53.2832 116.624 48.6886 113.068 48.8374C105.122 49.17 98.483 56.646 94.6448 61.5081M156.731 84.8283C157.156 85.3831 157.714 85.869 158.447 86.2791C158.904 86.5268 159.88 87.0327 160.122 87.0744" stroke="black"></path>
<path d="M101.966 72.4313C98.5365 71.3692 93.9252 72.5153 92.373 73.0572C91.4678 73.6697 91.5799 75.6539 92.0213 76.536C95.4729 73.9808 98.9422 74.617 103.453 76.7589C104.745 77.3724 106.178 76.9399 106.274 75.9913C106.394 74.8054 106.017 73.6856 101.966 72.4313Z" fill="black"></path>
<path d="M131.643 72.1975C126.078 71.5253 119.188 72.4418 117.152 74.2353C116.038 75.2161 115.561 78.0261 119.19 77.7347C123.727 77.3705 130.514 75.1471 132.686 75.1892C136.024 75.2539 140.54 77.627 143.482 78.6365C141.854 76.7702 137.207 72.8697 131.643 72.1975Z" fill="black"></path>
<ellipse cx="102.047" cy="82.7568" rx="2.98575" ry="2.88084" transform="rotate(9.8037 102.047 82.7568)" fill="black"></ellipse>
<ellipse cx="130.173" cy="83.4463" rx="2.98575" ry="2.88084" transform="rotate(9.8037 130.173 83.4463)" fill="black"></ellipse>
<path d="M100.267 114.784C100.533 115.268 101.492 115.705 102.428 115.762C103.363 115.819 103.988 114.96 105.035 114.659C108.639 113.622 110.911 114.314 114.578 115.578C117.655 116.638 120.684 115.816 122.133 115.465M101.732 114.088C102.426 112.747 104.08 110.131 105.754 110.499C107.845 110.959 108.775 110.725 109.496 110.553C110.217 110.381 112.723 111.012 115.025 112.99C117.328 114.969 119.2 115.941 120.401 115.852M122.813 112.854C122.551 113.75 123.199 115.771 124.868 116.06" stroke="black"></path>
<path d="M102.147 117.161C101.509 120.854 113.877 124.258 119.506 117.767M105.118 116.266C106.902 116.809 111.293 117.699 114.583 116.916" stroke="black"></path>
<path d="M95.5453 81.6336C97.3671 79.8099 102.183 77.6481 106.872 83.5908M122.526 83.7907C124.54 81.7026 130.095 78.6519 136.208 83.1534" stroke="black"></path>
<path d="M104.618 89.6885C104.673 93.3113 97.0829 94.8041 90.9505 93.6752C84.8182 92.5464 82.3446 90.5795 82.6672 88.8268C82.9899 87.0742 87.9576 84.8152 94.5702 86.0325C100.703 87.1614 104.94 87.9359 104.618 89.6885Z" fill="#FF641E" fill-opacity="0.5"></path>
<path d="M134.632 89.8341C134.784 93.5128 127.128 95.2399 120.995 94.111C114.863 92.9822 111.287 90.9994 111.609 89.2468C111.932 87.4942 118.823 85.0674 125.435 86.2847C131.568 87.4136 134.899 88.3808 134.632 89.8341Z" fill="#FF641E" fill-opacity="0.5"></path>
<path d="M156.663 83.5287L156.702 83.0303L156.624 83.024L156.547 83.0422L156.663 83.5287ZM81.7369 87.535L81.5224 87.0834C81.3788 87.1516 81.2762 87.284 81.246 87.4401C81.2158 87.5961 81.2616 87.7573 81.3694 87.8741L81.7369 87.535ZM104.618 89.6885L104.126 89.598L104.117 89.6466L104.118 89.6961L104.618 89.6885ZM134.632 89.8341L134.14 89.7436L134.13 89.7987L134.132 89.8547L134.632 89.8341ZM134.251 89.3484L156.778 84.0153L156.547 83.0422L134.021 88.3753L134.251 89.3484ZM156.623 84.0271L161.914 84.4488L161.993 83.4519L156.702 83.0303L156.623 84.0271ZM92.3526 81.9404L81.5224 87.0834L81.9514 87.9867L92.7816 82.8437L92.3526 81.9404ZM81.3694 87.8741L82.1681 88.7396L82.903 88.0615L82.1044 87.196L81.3694 87.8741ZM104.118 89.6961C104.129 90.4018 103.775 91.0396 103.058 91.6062C102.333 92.1788 101.271 92.6466 99.9797 92.9796C97.4001 93.6445 94.0434 93.7362 91.0411 93.1835L90.86 94.167C93.99 94.7432 97.4947 94.6529 100.229 93.9479C101.595 93.5959 102.803 93.0818 103.678 92.3909C104.56 91.694 105.135 90.7866 105.118 89.6808L104.118 89.6961ZM91.0411 93.1835C88.0039 92.6244 85.9234 91.8657 84.6559 91.0626C83.3709 90.2485 83.0539 89.488 83.159 88.9174L82.1755 88.7363C81.9579 89.9183 82.7164 91.0176 84.1207 91.9073C85.5424 92.8081 87.7649 93.5972 90.86 94.167L91.0411 93.1835ZM83.159 88.9174C83.2045 88.6702 83.4472 88.2988 84.0241 87.8864C84.5829 87.4869 85.3874 87.0993 86.4035 86.7949C88.4325 86.1872 91.2472 85.9292 94.4797 86.5243L94.6607 85.5408C91.2806 84.9186 88.3051 85.1814 86.1165 85.837C85.0238 86.1643 84.1125 86.594 83.4425 87.0729C82.7905 87.539 82.2913 88.1072 82.1755 88.7363L83.159 88.9174ZM94.4797 86.5243C97.5593 87.0912 100.116 87.5613 101.866 88.1042C102.746 88.377 103.369 88.6531 103.746 88.9362C104.108 89.2085 104.16 89.4154 104.126 89.598L105.109 89.779C105.237 89.0852 104.88 88.5381 104.347 88.137C103.828 87.7467 103.069 87.43 102.163 87.149C100.342 86.5843 97.7134 86.1027 94.6607 85.5408L94.4797 86.5243ZM134.132 89.8547C134.162 90.5752 133.818 91.2353 133.107 91.8293C132.389 92.4294 131.327 92.9296 130.035 93.2942C127.452 94.0225 124.082 94.1709 121.086 93.6193L120.905 94.6028C124.041 95.18 127.566 95.0294 130.306 94.2566C131.675 93.8707 132.882 93.32 133.748 92.5968C134.621 91.8677 135.178 90.9324 135.131 89.8135L134.132 89.8547ZM121.086 93.6193C118.047 93.0598 115.674 92.2939 114.115 91.4707C113.334 91.058 112.786 90.6457 112.457 90.2621C112.131 89.8813 112.057 89.5768 112.101 89.3373L111.118 89.1563C111 89.7931 111.253 90.3937 111.698 90.9129C112.141 91.4292 112.809 91.9118 113.648 92.3549C115.33 93.2434 117.812 94.0334 120.905 94.6028L121.086 93.6193ZM112.101 89.3373C112.116 89.2587 112.182 89.1164 112.378 88.9203C112.569 88.7296 112.851 88.5211 113.224 88.3073C113.97 87.8804 115.024 87.4651 116.29 87.1359C118.82 86.4777 122.121 86.183 125.345 86.7764L125.526 85.793C122.137 85.1691 118.687 85.4791 116.038 86.1681C114.714 86.5126 113.571 86.9565 112.728 87.4395C112.306 87.6807 111.945 87.9398 111.672 88.2125C111.404 88.4798 111.184 88.7968 111.118 89.1563L112.101 89.3373ZM125.345 86.7764C128.413 87.3412 130.741 87.8591 132.264 88.4081C133.03 88.6842 133.546 88.9525 133.848 89.2073C134.137 89.4517 134.163 89.6188 134.14 89.7436L135.124 89.9246C135.234 89.3227 134.944 88.824 134.493 88.443C134.053 88.0724 133.403 87.7558 132.603 87.4674C130.994 86.8872 128.59 86.3571 125.526 85.793L125.345 86.7764ZM103.467 89.8864C104.909 89.1871 108.718 88.1807 112.244 89.7794L112.657 88.8686C108.767 87.1051 104.632 88.21 103.031 88.9866L103.467 89.8864Z" fill="black"></path>
<path d="M16.6267 172.781C19.1816 171.041 21.7942 169.856 24.4115 169.121C33.1534 169.986 51.0771 172.456 52.8369 175.413C55.2491 177.043 57.2858 178.731 58.8189 180.227L55.9304 191.006L55.9304 214.782L58.8189 246.354L52.8369 289.252C50.3621 294.743 36.4733 292.912 29.8383 291.311L16.6267 282.388L13.9478 260.768L1.35449 226.107L3.41359 206.202L13.9478 182.01L16.6267 172.781Z" fill="white"></path>
<path d="M16.6267 172.781C19.1816 171.041 21.7942 169.856 24.4115 169.121C33.1534 169.986 51.0771 172.456 52.8369 175.413C55.2491 177.043 57.2858 178.731 58.8189 180.227L55.9304 191.006L55.9304 214.782L58.8189 246.354L52.8369 289.252C50.3621 294.743 36.4733 292.912 29.8383 291.311L16.6267 282.388L13.9478 260.768L1.35449 226.107L3.41359 206.202L13.9478 182.01L16.6267 172.781Z" fill="#FF641E" fill-opacity="0.5"></path>
<path d="M58.8188 180.227C49.7735 187.436 18.8206 180.227 16.6266 172.781L13.9478 182.009C24.4989 188.229 46.8674 195.804 55.9303 191.006L58.8188 180.227Z" fill="white"></path>
<path d="M58.8188 180.227C49.7735 187.436 18.8206 180.227 16.6266 172.781L13.9478 182.009C24.4989 188.229 46.8674 195.804 55.9303 191.006L58.8188 180.227Z" fill="#FF641E" fill-opacity="0.5"></path>
<path d="M16.6267 172.781C18.8206 180.227 49.7736 187.436 58.8189 180.227M16.6267 172.781C19.1816 171.041 21.7942 169.856 24.4115 169.121M16.6267 172.781L13.9478 182.01M58.8189 180.227C57.2858 178.731 55.2491 177.043 52.8369 175.413M58.8189 180.227L55.9304 191.006M13.9478 182.01C24.499 188.229 46.8675 195.804 55.9304 191.006M13.9478 182.01L3.41359 206.202L1.35449 226.107L13.9478 260.768L16.6267 282.388L29.8383 291.311C36.4733 292.912 50.3621 294.743 52.8369 289.252L58.8189 246.354L55.9304 214.782L55.9304 191.006M8.56117 208.605C17.6614 212.037 38.1576 218.076 47.3404 214.782M8.56117 232.284C17.255 238.233 37.9373 249.374 51.1154 246.354M19.8861 263.857C26.1742 265.916 40.4684 269.416 47.3404 266.945" stroke="black"></path>
</g>
<defs>
<clipPath id="clip0_665_1491">
<rect width="272" height="568" fill="white" transform="translate(0.242188)"></rect>
</clipPath>
</defs>
</svg>
