<svg width="424" height="622" fill="none" xmlns="http://www.w3.org/2000/svg"><path d="m116.242 410.893-5.205 17.927 8.675 72.289 29.494 83.277 61.879-27.181 45.686-104.095 13.88-46.265-28.337-19.085-116.819 10.988-9.253 12.145Z" fill="#fff" stroke="#000"/><path d="m158.592 502.873 20.463-62.321m-20.463-28.834 11.162 22.323m9.301-5.605 26.977-16.718" stroke="#000"/><path d="m268.659 466.802 9.028-5.495c8.373-5.103 26.612-15.386 32.578-15.7 7.458-.393 17.663 29.83 17.663 36.503v20.41c10.048 15.386 8.112 26.56 5.887 30.223-10.597 7.588-32.735 23.707-36.503 27.475-4.71 4.71-23.157 5.103-35.718 0-10.048-4.082-9.158-25.251-7.457-35.325l14.522-58.091Z" fill="#fff" stroke="#000"/><path d="M277.679 461.906c1.349-.482 7.836.452 11.074 4.383m6.921-14.534c1.735-.097 9.229 1.845 11.882 5.421M269.02 467.31c4.529 1.06 14.397 6.938 17.635 21.971 4.047 18.791 6.36 19.947 14.454 19.369 6.476-.463 20.622-10.793 26.885-15.9m-41.339 71.264c5.108-1.767 14.283-13.027 10.118-43.93" stroke="#000"/><path d="M280.989 431.507c-3.154 1.92-2.731 20.506-2.503 29.592l7.729 2.537c0-8.343.5-26.54 2.146-30.243 2.057-4.629 3.772.686 6.857 1.714 2.469.823 2.286 11.429 1.886 16.629.514.286 4.011.493 6.068 1.865 3.008 2.005 1.99-2.208 1.99-6.836 0-4.629-3.258-13.201-5.486-18.858-2.229-5.657-14.744 1.2-18.687 3.6Z" fill="#000" stroke="#000"/><path d="M280.685 431.455c-2.316-1.93-.965-13.352 0-18.821 13.458-2.664 20.768 1.109 22.742 3.329l-2.99 13.716-2.664 1.776c-.494 1.456-2.223 4.367-5.187 4.367-2.965 0-4.941-2.911-5.559-4.367-1.149.805-4.026 1.931-6.342 0Z" fill="#fff"/><path d="M288.656 417.897v11.782m9.117-8.617v7.034m-17.088-15.462c-.965 5.469-2.316 16.891 0 18.821 2.316 1.931 5.193.805 6.342 0 .618 1.456 2.594 4.367 5.559 4.367 2.964 0 4.693-2.911 5.187-4.367l2.664-1.776 2.99-13.716c-1.974-2.22-9.284-5.993-22.742-3.329Z" stroke="#000"/><path d="M218.873 160.229c-13.867 16.178-33.316 4.162-42.464-1.616l-48.535 66.134 19.74 90.999v91.962c9.244-4.622 61.95-5.777 87.147-5.777l15.889-164.184-15.889-85.703-18.93-3.782 3.042 11.967Z" fill="#000" stroke="#000"/><path d="M219.827 157.676c1.779 1.082 2.783 4.034.956 6.958-15.16 24.275-38.124 19.458-45.263 10.082-.737-1.386-1.461-4.424 1.542-5.484M155.45 392.769c18.762-1.513 58.555-4.085 67.634-2.269" stroke="#fff"/><path d="M134.889 167.034c-5.151 5.806-28.25 20.896-39.156 27.716l12.138 12.357-12.794 25.669-3.106 12.237-7.404 16.343-4.29 38.854 26.401 10.417c-.953 38.457-.291 59.692-1.711 71.95-1.748 6.644-3.812 10.584-4.273 13.436l-1.306 40.548 41.374 5.733 16.51-70.73 13.421-96.852-5.187-42.408-1.683-42.88 14.174-29.662.904-24.118-15.517 2.197c-7.352 7.312-23.344 23.387-28.495 29.193ZM288.414 188.309c-6.468-3.505-31.5-34.066-43.207-48.909 0 0-21.27-4.507-28.048 0-11.833 7.868 10.616 14.528 10.616 14.528l6.071 19.956 2.454 29.796c-6.607.655-9.493 17.238-10.109 25.447l-13.23 31.703 9.573 79.712 7.3 57.142 10.363 58.389 40.134-13.397.402-26.013 27.798 8.151 8.678-20.586 5.317-38.369 6.318-10.585-6.061-66.037-5.674-10.023-8.763-38.702-19.932-52.203Z" fill="#fff"/><path d="M134.889 167.034c-5.151 5.806-28.25 20.896-39.156 27.716l12.138 12.357-12.794 25.669-3.106 12.237-7.404 16.343-4.29 38.854 26.401 10.417c-.953 38.457-.291 59.692-1.711 71.951-1.748 6.643-3.812 10.583-4.273 13.435l-1.306 40.548 41.374 5.733 16.51-70.73 13.421-96.852-5.187-42.408-1.683-42.88 14.174-29.662.904-24.118-15.517 2.197c-7.352 7.312-23.344 23.387-28.495 29.193ZM288.414 188.309c-6.468-3.505-31.5-34.066-43.207-48.909 0 0-21.27-4.507-28.048 0-11.833 7.868 10.616 14.528 10.616 14.528l6.071 19.956 2.454 29.796c-6.607.655-9.493 17.238-10.109 25.447l-13.23 31.703 9.573 79.712 7.3 57.142 10.363 58.389 40.134-13.397.402-26.013 27.798 8.151 8.678-20.586 5.317-38.369 6.318-10.585-6.061-66.037-5.674-10.023-8.763-38.702-19.932-52.203Z" fill="#FF641E" fill-opacity=".5"/><path d="M245.207 139.4c11.707 14.843 36.739 45.404 43.207 48.909l19.932 52.203 8.763 38.702 5.674 10.023 6.061 66.037-6.318 10.585-5.317 38.369-8.678 20.586-27.798-8.151-.402 26.013-40.134 13.397-10.363-58.389-7.3-57.142-9.573-79.712 13.23-31.703c.616-8.209 3.502-24.792 10.109-25.447l-2.454-29.796-6.071-19.956M100.694 396.013l-1.306 40.548 41.374 5.733 16.51-70.73 13.421-96.852-5.187-42.408-1.682-42.88 14.173-29.662.904-24.118-15.517 2.197c-7.352 7.312-23.344 23.387-28.495 29.193-5.151 5.806-28.25 20.896-39.156 27.716l12.138 12.357M80.277 292.31l4.29-30.954 7.404-16.343 3.106-12.237 10.172-20.408" stroke="#000"/><path d="M96.171 196.006c10.027 9.366 31.655 28.67 37.954 30.961 6.3 2.291 15.54 1.563 19.372.912l.752 11.625c5.151 4.752 15.334 15.124 14.852 18.602m48.437 1.987c5.748-11.901 18.648-36.427 24.257-39.32 5.61-2.892 32.89-21.567 45.829-30.543m-50.812 14.299c7.353-2.598 22.52-9.032 24.364-13.985m-124.108 31.632c6.52-7.657 20.189-22.884 22.705-22.535m-66.98 43.166 19.588 10.474M81.93 296.313l26.057 3.611m12.96 22.145 23.867 3.307M117.467 256.4l-6.424 46.362-4.463 7.314-1.489 48.08.055 24.496-2.841 8.057m10.482-9.757 21.449 2.972m-29.819 43.81 23.301 3.229m40.22-164.465-31.54 171.876m98.539-168.11 29.167-3.718m7.432-53.636-.828 54.551 5.332 49.562 4.807 65.489-.953 28.271m4.733-55.55 26.875.359 11.303-2.64m-41.367-41.491 17.115-8.146 20.27-.556m-41.45-38.558 15.019-10.539 15.507-2.614m-23.777 156.406 24.439 5.785M243.41 391.59l30.736-6.258m-36.265-57.061 29.147-3.894M135.336 261.98l20.278 2.81m71.475 9.905 11.464 120.254 11.077 54.977m3.535-11.027 20.458-4.251m-16.2-91.917 3.942 36.791 9.343-2.628-3.68-36.791-9.605 2.628Zm-140.278-6.34 7.526 2.58-3.724 34.452-8.16-3.918 4.358-33.114Z" stroke="#000"/><path d="M165.608 62.086c6.288-7.393 18.077-10.34 23.737-10.566l2.801-.29s.458-1.523.519-3.006c.054-1.311-.331-2.796-.12-4.091.22-1.346 1.381-3.207 1.381-3.207-.338-.702-1.536-2.912-3.625-6.14-2.611-4.034-.686-15.968 6.8-17.017 5.988-.84 13.646 4.242 16.726 6.887 3.081 2.646 6.665 10.427 10.922 19.294 1.79 3.73.793 9.192-1.121 10.928-1.153 1.046-3.302 2.74-4.262 2.785 8.826 2.575 13.476 19.044 14.251 22.396 1.357 5.868.908 14.765-.025 21.795 4.78 6.607-.093 11.148-3.052 17.662-2.367 5.212-7.825 7.256-10.258 7.626-4.741 11.445-2.974 26.534-.867 32.979.54 1.219 0 5.758-4.548 9.575-21.351 17.915-35.834 7.557-37.147 2.41l-1.017-17.27c-8.866.795-11.925-6.062-12.346-9.59l-2.871-7.589c-1.575-5.97-5.007-18.978-6.135-23.246-1.127-4.269 1.199-11.432 2.503-14.48l-2.083-6.401c.447-7.239 2.578-22.909 9.837-31.444Z" fill="#fff"/><path d="M198.922 72.475c16.917 4.229 9.187 18.864 16.917 34.437 5.465 11.011-5.438 22.691-15.116 29.905-9.265 6.907-.876 22.344 0 26.634M157.365 76.131c-7.394 3.76-12.595 22.75-3.595 44.503 7.676 18.557-1.505 24.073-6.771 27.834M172.299 97.156c.405 3.694-.48 11.741-4.868 17.308-1.201 1.55-2.732 5.416 1.371 7.32 1.946.903 3.456 1.381 3.64 2.741m6.055-1.066c1.791-.344 4.517-2.279 2.321-6.153m-7.354 4.088c1.102-.136 3.461-.284 4.08.215" stroke="#000"/><path d="M189.345 51.52c-5.66.227-17.449 3.173-23.737 10.566-3.632 4.271-7.015 13.385-8.511 19.278-1.494 5.885-1.103 8.55-1.326 12.166l2.083 6.4c-.904 2.113-2.298 6.2-2.694 9.932m21.543 44.974c-8.866.795-11.925-6.062-12.346-9.59l-2.871-7.589c-1.575-5.97-5.007-18.978-6.135-23.246a9.29 9.29 0 0 1-.27-1.735m21.622 42.16 1.017 17.27m-1.017-17.27c3.944-.512 10.794-1.91 17.38-4.367m25.332 9.652c-2.107-6.445-3.874-21.534.867-32.979m0 0c2.433-.37 7.891-2.414 10.258-7.626 2.959-6.514 7.832-11.055 3.052-17.662m-13.31 25.288c-1.369.116-3.733-.634-2.242-4.558 0 0 5.231-8.334 5.478-8.814 3.073-5.975 5.905-11.927 10.153-8.843m-.079-3.073c.933-7.03 1.383-15.927.025-21.795-.775-3.352-4.074-18.732-13.547-22.654m13.522 44.449c-1.693-1.258-5.777-2.373-8.574 3.238-.529 1.274-1.706 4.512-2.183 7.275m-2.765-54.962s2.405-1.481 3.558-2.526c1.914-1.737 2.911-7.2 1.121-10.93-4.257-8.866-7.841-16.647-10.922-19.293-3.08-2.645-10.738-7.727-16.726-6.887-7.486 1.05-9.41 12.983-6.8 17.017 2.089 3.228 3.287 5.438 3.625 6.14m26.144 16.479c-2.994-1.748-18.553-4.616-27.066-6.026m.922-10.453c8.355.776 25.657 4.084 28.026 11.106m-28.026-11.106c-1.601 2.566-1.145 4.476-1.261 7.298-.061 1.483-.519 3.006-.519 3.006m24.821 76.815c-1.881 6.746-6.196 11.841-8.361 13.715-2.958 2.637-6.016 4.902-9.614 6.633m22.201-30.492c5.849-1.916 6.777-5.166 8.97-4.268m-22.311-88.39c-1.179 1-1.904 3.844 4.627 7.22 6.53 3.374 6.807 3.396 6.129 2.984m-15.684-12.675c-3.267-.184-9.576.997-8.68 7.197m10.877-2.558c-2.912-.503-8.811 4.834-3.061 11.464m-3.732 3.553c-.932 2.876.663 9.35 13.785 12.6m-20.559-.373c-8.302 1.094-11.483 7.58-11.154 8.681m17.488-7.587c-2.346 2.696-7.08 8.34-7.256 9.355m11.428-7.7V66.7m17.573 33.452c-.375-1.777-.303-3.915-.427-6.309-.231-4.461-4.672-18.09-11.732-21.275-3.154-1.422-26.853-6.017-30.409-5.868-7.946.333-14.585 7.809-18.423 12.67m62.086 23.321c.426.555.983 1.041 1.716 1.451.458.248 1.433.754 1.675.795" stroke="#000"/><path d="M165.963 90.293c-3.429-1.062-8.041.084-9.593.626-.905.612-.793 2.597-.351 3.479 3.451-2.555 6.921-1.92 11.431.223 1.292.613 2.726.18 2.822-.768.119-1.186-.258-2.305-4.309-3.56ZM195.64 90.06c-5.564-.673-12.455.244-14.491 2.037-1.114.981-1.591 3.79 2.039 3.5 4.536-.365 11.323-2.588 13.495-2.546 3.338.065 7.854 2.438 10.796 3.447-1.628-1.866-6.274-5.767-11.839-6.439Z" fill="#000"/><ellipse cx="166.044" cy="100.619" rx="2.986" ry="2.881" transform="rotate(9.804 166.044 100.619)" fill="#000"/><ellipse cx="194.171" cy="101.308" rx="2.986" ry="2.881" transform="rotate(9.804 194.171 101.308)" fill="#000"/><path d="M164.264 132.646c.267.484 1.226.921 2.161.978.935.056 1.56-.802 2.607-1.103 3.604-1.038 5.876-.346 9.544.918 3.076 1.06 6.106.239 7.555-.113m-20.402-1.376c.694-1.341 2.349-3.958 4.022-3.589 2.092.46 3.021.225 3.742.054.722-.172 3.227.458 5.53 2.437 2.302 1.978 4.175 2.951 5.376 2.862m2.411-2.998c-.262.895.387 2.917 2.056 3.205M166.144 135.023c-.638 3.693 11.731 7.097 17.359.606m-14.387-1.501c1.783.543 6.174 1.433 9.464.65M159.543 99.495c1.821-1.824 6.637-3.985 11.326 1.957m15.654.2c2.014-2.088 7.57-5.139 13.682-.637" stroke="#000"/><path d="M168.615 107.551c.055 3.622-7.535 5.115-13.667 3.986-6.133-1.129-8.606-3.095-8.284-4.848.323-1.753 5.291-4.012 11.903-2.794 6.133 1.128 10.37 1.903 10.048 3.656ZM198.629 107.696c.152 3.679-7.504 5.406-13.636 4.277-6.133-1.129-9.709-3.112-9.386-4.864.322-1.753 7.213-4.18 13.825-2.962 6.133 1.129 9.464 2.096 9.197 3.549Z" fill="#FF641E" fill-opacity=".5"/><path d="m220.66 101.391.039-.499-.078-.006-.076.018.115.487Zm-74.926 4.006-.215-.452a.503.503 0 0 0-.152.791l.367-.339Zm22.881 2.154-.492-.091-.009.049.001.049.5-.007Zm30.014.145-.492-.09-.01.055.002.056.5-.021Zm-.381-.486 22.527-5.333-.23-.973-22.527 5.333.23.973Zm22.372-5.321 5.291.422.079-.997-5.291-.422-.079.997Zm-64.27-2.087-10.831 5.143.429.904 10.831-5.143-.429-.904Zm-10.983 5.934.798.866.735-.678-.799-.866-.734.678Zm22.748 1.822c.011.706-.343 1.344-1.06 1.91-.725.573-1.787 1.041-3.078 1.374-2.58.665-5.937.756-8.939.204l-.181.983c3.13.576 6.635.486 9.369-.219 1.366-.352 2.575-.866 3.449-1.557.882-.697 1.457-1.604 1.44-2.71l-1 .015Zm-13.077 3.488c-3.037-.56-5.118-1.318-6.385-2.121-1.285-.814-1.602-1.575-1.497-2.146l-.983-.181c-.218 1.182.541 2.282 1.945 3.171 1.421.901 3.644 1.69 6.739 2.26l.181-.983Zm-7.882-4.267c.046-.247.288-.618.865-1.031.559-.399 1.363-.787 2.38-1.091 2.029-.608 4.843-.866 8.076-.271l.181-.983c-3.38-.622-6.356-.359-8.544.296-1.093.327-2.004.757-2.674 1.236-.652.466-1.152 1.034-1.267 1.663l.983.181Zm11.321-2.393c3.079.567 5.636 1.037 7.387 1.58.879.273 1.502.549 1.879.832.362.273.414.479.38.662l.983.181c.128-.694-.229-1.241-.762-1.642-.519-.39-1.278-.707-2.184-.988-1.821-.565-4.45-1.046-7.502-1.608l-.181.983Zm39.652 3.331c.03.72-.314 1.38-1.025 1.974-.718.6-1.78 1.101-3.072 1.465-2.583.729-5.953.877-8.949.325l-.181.984c3.136.577 6.661.426 9.401-.346 1.369-.386 2.576-.937 3.442-1.66.873-.729 1.43-1.665 1.383-2.783l-.999.041Zm-13.046 3.764c-3.039-.559-5.412-1.325-6.971-2.148-.781-.413-1.329-.825-1.658-1.209-.326-.381-.4-.685-.356-.925l-.983-.181c-.117.637.135 1.238.58 1.757.443.516 1.111.999 1.95 1.442 1.682.889 4.164 1.678 7.257 2.248l.181-.984Zm-8.985-4.282c.015-.078.081-.221.277-.417.191-.19.473-.399.846-.613.746-.426 1.8-.842 3.066-1.171 2.53-.658 5.831-.953 9.055-.36l.181-.983c-3.389-.624-6.839-.314-9.488.375-1.324.345-2.467.789-3.31 1.272a5.02 5.02 0 0 0-1.056.773c-.268.267-.488.584-.554.943l.983.181Zm13.244-2.561c3.068.565 5.396 1.083 6.919 1.632.766.276 1.282.545 1.584.799.289.245.315.412.292.537l.984.181c.11-.602-.18-1.101-.631-1.482-.44-.371-1.09-.687-1.89-.976-1.609-.58-4.013-1.11-7.077-1.674l-.181.983Zm-21.878 3.11c1.443-.699 5.251-1.705 8.777-.107l.413-.91c-3.89-1.764-8.024-.659-9.626.118l.436.899Z" fill="#000"/><path d="M80.624 190.643c2.555-1.74 5.168-2.925 7.785-3.66 8.742.865 26.665 3.335 28.425 6.292 2.412 1.629 4.449 3.317 5.982 4.814l-2.888 10.778v23.777l2.888 31.572-5.982 42.897c-2.475 5.491-16.363 3.661-22.998 2.059l-13.212-8.922-2.679-21.62-12.593-34.662 2.059-19.904 10.534-24.193 2.679-9.228Z" fill="#fff"/><path d="M80.624 190.643c2.555-1.74 5.168-2.925 7.785-3.66 8.742.865 26.665 3.335 28.425 6.292 2.412 1.629 4.449 3.317 5.982 4.814l-2.888 10.778v23.777l2.888 31.572-5.982 42.897c-2.475 5.491-16.363 3.661-22.998 2.059l-13.212-8.922-2.679-21.62-12.593-34.662 2.059-19.904 10.534-24.193 2.679-9.228Z" fill="#FF641E" fill-opacity=".5"/><path d="M91.003 187.949c.886 5.359 0 10.085 0 13.908l23.473 6.771c0-5.395.342-16.658 1.711-18.553 1.368-1.895 8.788-12.845 12.327-18.083 6.349-5.503 16.72-21.482 14.815-23.587-1.524-1.683-5.557.192-7.436 1.34l-36.917 5.094c6.147-3.503 4.229-5.749 2.502-6.434l1.579-3.306c9.322-.497 5.779-7.238 2.531-7.238l1.733-2.946c6.629-1.347 4.396-5.476 1.515-6.855-.923-.442-4.307.656-5.779 1.024-1.471.368-3.91 5.047-4.944 7.577-1.035 2.529 0 4.024 0 4.024-.92.276-2.84 2.499-3.837 3.917-.996 1.418-1.18 5.143-1.18 5.143-1.265.115-6.087 7.456-6.087 11.311 0 9.387.261 10.517 1.304 16.079 1.043 5.563 2.11 7.302 2.69 10.814Z" fill="#fff"/><path d="M103.057 129.084c1.472-.368 4.856-1.466 5.779-1.024 2.881 1.379 5.114 5.508-1.515 6.855m-4.264.42c1.714-.038 3.121-.188 4.264-.42m0 0-1.733 2.946c3.248 0 6.791 6.741-2.531 7.238l-1.579 3.306c1.727.685 3.645 2.931-2.502 6.434m-10.104.438c-1.047 2.02-1.526 3.432-1.862 5.779-1.017 7.097.26 10.517 1.303 16.079 1.043 5.563 2.11 7.302 2.69 10.814.886 5.359 0 10.085 0 13.908l23.473 6.771c0-5.395.342-16.658 1.711-18.553 1.368-1.895 8.788-12.845 12.327-18.083 6.349-5.503 16.72-21.482 14.815-23.587-.77-.85-2.18-.792-3.629-.379" stroke="#000"/><path d="M94.276 144.602c-.997 1.418-1.18 5.143-1.18 5.143 1.417 1.698 4.579 5.094 5.88 5.094 6.147-3.503 4.229-5.749 2.501-6.434l1.58-3.306c9.322-.497 5.779-7.238 2.531-7.238l1.733-2.946c6.629-1.347 4.396-5.476 1.515-6.855-.924-.442-4.307.656-5.779 1.024-1.472.368-3.91 5.047-4.945 7.577-1.035 2.529 0 4.024 0 4.024-.92.276-2.84 2.499-3.836 3.917Z" fill="#fff"/><path d="M103.057 135.335c1.713-.038 3.121-.188 4.264-.42m0 0c6.629-1.347 4.396-5.476 1.515-6.855-.923-.442-3.744-.031-5.779 1.024-3.454 1.793-4.898 5.828-5.233 9.656m9.497-3.825-1.733 2.946m0 0c3.248 0 6.791 6.741-2.531 7.238l-1.579 3.306m4.11-10.544c-2.345.276-8.286 1.794-10.461 5.959-.761 1.217-2.317 4.125-2.45 6.02m8.801-1.435c1.727.685 3.645 2.931-2.502 6.434-1.049.169-3.418.405-4.51 0m7.012-6.434c-2.452-.001-7.946.757-10.308 3.803-.59.67-1.978 2.41-2.817 4.004m7.48-.612c.454 1.202.992 3.939-.49 5.266m-1.527 5.924c1.829-.292 4.674-2.365 4.674-4.393m7.098 22.223c-2.642-2.951-.899-9.166 2.045-12.042" stroke="#000"/><path d="M122.816 198.088c-9.045 7.209-39.998 0-42.192-7.445l-2.679 9.228c10.551 6.22 32.92 13.794 41.983 8.996l2.888-10.779Z" fill="#fff"/><path d="M122.816 198.088c-9.045 7.209-39.998 0-42.192-7.445l-2.679 9.228c10.551 6.22 32.92 13.794 41.983 8.996l2.888-10.779Z" fill="#FF641E" fill-opacity=".5"/><path d="M80.624 190.643c2.194 7.446 33.147 14.654 42.192 7.446m-42.192-7.446c2.555-1.74 5.168-2.925 7.785-3.66m-7.785 3.66-2.679 9.228m44.871-1.782c-1.533-1.497-3.57-3.185-5.982-4.814m5.982 4.814-2.888 10.778m-41.983-8.996c10.551 6.22 32.92 13.794 41.983 8.996m-41.983-8.996-10.534 24.193-2.06 19.904 12.594 34.662 2.679 21.62 13.212 8.922c6.635 1.602 20.523 3.432 22.998-2.059l5.982-42.897-2.888-31.572v-23.777m-47.37 17.599c9.1 3.432 29.597 9.472 38.78 6.178m-38.78 17.502c8.694 5.948 29.377 17.09 42.555 14.07m-31.23 17.502c6.288 2.059 20.583 5.56 27.455 3.089" stroke="#000"/></svg>