<svg width="54" height="50" fill="none" xmlns="http://www.w3.org/2000/svg"><path d="M13.487 1.576C7.12.87 4.553 3.01 4.357 4.048c-.197 1.039-.968 4.497 3.628 5.81 0 0-4.073-.25-5.598 1.12-1.524 1.372-2.605 4.876 2.381 6.61 4.987 1.734 11.607 1.222 23.717 9.025-3.026.723-15.697-3.262-22.09-6.18-4.02-1.151-8.457 4.116-2.71 7.525 2.134 1.267 7.01 4.117 9.143 4.952-3.177 0-4.812 2.795-3.558 5.113.846 1.158 1.98 2.822 7.105 5.188 5.127 2.366 11.844 5.086 13.84 5.84 15.157-1.092 22.623-17.452 23.465-21.263.515-2.328-3.794-10.452-9.352-14.805-8.357-6.546-20.597-10.269-30.84-11.407Z" fill="#fff"/><path d="M30.584 48.445c-1.997-.753-9.082-2.868-14.209-5.234-5.126-2.366-6.259-4.03-7.105-5.188-1.019-1.883-.13-4.081 1.942-4.84m18.69-6.293c-3.343-.859-7.215-6.457-25.134-9.302-5.213-.828-3.905-5.238-2.38-6.61 1.524-1.37 5.597-1.12 5.597-1.12 3.119-.043 10.426.521 14.702 3.125 4.277 2.603 10.155 4.155 12.559 4.605M25.363 36.66c-3.63.547-9.869-2.272-12.535-3.75-2.133-.835-7.01-3.685-9.144-4.952-5.746-3.409-1.31-8.676 2.71-7.525 5.237 2.39 15.634 5.68 20.889 6.397M5.643 8.71C3.706 7.121 4.205 4.854 4.358 4.047c.196-1.039 2.763-3.18 9.13-2.472 10.244 1.138 22.484 4.86 30.841 11.407 4.231 3.314 7.602 8.895 9.127 12.41" stroke="#000"/></svg>