<svg width="69" height="79" fill="none" xmlns="http://www.w3.org/2000/svg"><path d="M23.511 14.3c0-3.345.092-9.827 5.457-11.55.43-.138.919-.293 1.37-.324 0 0 1.556-1.306 4.276-1.306 2.72 0 20.422 1.306 26.621 18.056.498 1.346-.052 2.466-.338 3.66.388 2.007.003 5.758-4.054 6.519L23.51 14.3Z" fill="#fff"/><path d="M60.897 22.835c.388 2.008.003 5.759-4.054 6.52L23.51 14.3c0-3.345.092-9.827 5.457-11.55.43-.138.919-.293 1.37-.324m30.56 20.41c-4.009-16.334-22.28-20.98-30.56-20.41m30.56 20.41c.285-1.194.835-2.314.337-3.66-6.2-16.75-23.9-18.056-26.62-18.056-2.72 0-4.278 1.306-4.278 1.306" stroke="#000"/><g filter="url('#filter0_d_546_115')"><path d="M35.566 60.397c-1.696 3.38-8.605 3.344-15.43-.081C13.31 56.89 9.153 51.371 10.85 47.99L25.183 9.607c1.41-2.838 7.014-7.25 18.147-2.19 13.687 6.222 16.602 13.128 15.052 18.634a1.826 1.826 0 0 1-.242.517l-22.574 33.83Z" fill="#FF641E"/><path d="m35.15 60.12-.017.025-.013.028c-.717 1.428-2.608 2.25-5.343 2.236-2.7-.014-6.058-.854-9.417-2.54s-6.039-3.877-7.664-6.033c-1.646-2.185-2.116-4.193-1.4-5.62l.013-.025.01-.025L25.641 9.807c.648-1.286 2.283-2.991 5.102-3.775 2.829-.786 6.89-.654 12.38 1.84 6.8 3.092 10.862 6.326 13.037 9.418 2.162 3.073 2.473 6.022 1.74 8.625a1.327 1.327 0 0 1-.177.375L35.15 60.12Z" stroke="#000"/></g><defs><filter id="filter0_d_546_115" x=".471" y="1.105" width="68.287" height="77.804" filterUnits="userSpaceOnUse" color-interpolation-filters="sRGB"><feFlood flood-opacity="0" result="BackgroundImageFix"/><feColorMatrix in="SourceAlpha" values="0 0 0 0 0 0 0 0 0 0 0 0 0 0 0 0 0 0 127 0" result="hardAlpha"/><feOffset dy="6"/><feGaussianBlur stdDeviation="5"/><feComposite in2="hardAlpha" operator="out"/><feColorMatrix values="0 0 0 0 1 0 0 0 0 0.392157 0 0 0 0 0.117647 0 0 0 1 0"/><feBlend in2="BackgroundImageFix" result="effect1_dropShadow_546_115"/><feBlend in="SourceGraphic" in2="effect1_dropShadow_546_115" result="shape"/></filter></defs></svg>