<svg width="81" height="97" viewBox="0 0 81 97" fill="none" xmlns="http://www.w3.org/2000/svg">
<g filter="url(#filter0_d_427_4858)">
<path d="M20.3878 67.4184L18.6261 38.4495L62.9003 40.3637L56.2075 86.7963L36.8296 95.9959L24.8897 92.8642L20.3878 67.4184Z" fill="#FF641E"/>
</g>
<path d="M41.5052 47.7397C54.3125 47.7397 65.5009 44.05 64.1466 33.8311C63.412 32.4678 61.694 29.6242 60.6987 29.156C58.9397 24.8113 51.1174 19.9225 41.3649 19.9225C33.7542 19.9225 28.0013 21.5355 25.135 24.0497C24.5487 24.5126 22.9957 25.5695 22.2924 26.0401C19.782 28.2628 18.3156 30.9442 18.3156 33.8311C18.3156 41.5126 28.6979 47.7397 41.5052 47.7397Z" fill="white"/>
<path d="M18.3511 34.9905L20.3878 67.4185L24.8897 92.8642L36.8296 95.996L56.2075 86.7964L63.0866 39.9933" stroke="black"/>
<path d="M23.3812 25.741C23.3812 25.741 22.4701 30.4119 22.4701 31.5916C22.4701 34.2493 27.6042 42.4431 40.9978 43.0357C53.387 43.0357 58.5561 40.0321 60.6751 35.711C61.3911 34.251 61.0737 29.3989 61.0737 29.3989" stroke="black"/>
<path d="M24.4612 24.7183C19.816 27.0062 18.2664 30.9443 18.2664 33.8312C18.2664 41.5127 28.8304 46.8501 41.3267 47.7119C51.6791 48.4259 65.72 43.2349 64.1466 33.8312C63.7398 31.3996 61.6715 29.2975 60.2114 28.1028" stroke="black"/>
<path d="M61.0697 30.9157C61.0697 35.572 53.7128 39.4199 42.6094 39.4199C31.506 39.4199 23.1121 32.6682 23.1121 28.012C23.1121 23.3557 30.2615 19.9225 41.3649 19.9225C52.4683 19.9225 61.0697 26.2594 61.0697 30.9157Z" stroke="black"/>
<defs>
<filter id="filter0_d_427_4858" x="0.626099" y="0.449463" width="80.2742" height="95.5465" filterUnits="userSpaceOnUse" color-interpolation-filters="sRGB">
<feFlood flood-opacity="0" result="BackgroundImageFix"/>
<feColorMatrix in="SourceAlpha" type="matrix" values="0 0 0 0 0 0 0 0 0 0 0 0 0 0 0 0 0 0 127 0" result="hardAlpha"/>
<feOffset dy="-20"/>
<feGaussianBlur stdDeviation="9"/>
<feComposite in2="hardAlpha" operator="out"/>
<feColorMatrix type="matrix" values="0 0 0 0 1 0 0 0 0 0.392157 0 0 0 0 0.117647 0 0 0 1 0"/>
<feBlend mode="normal" in2="BackgroundImageFix" result="effect1_dropShadow_427_4858"/>
<feBlend mode="normal" in="SourceGraphic" in2="effect1_dropShadow_427_4858" result="shape"/>
</filter>
</defs>
</svg>
