<svg width="84" height="101" viewBox="0 0 84 101" fill="none" xmlns="http://www.w3.org/2000/svg">
<g filter="url(#filter0_d_427_4885)">
<path d="M26.4572 89.8704L19.5237 28.8555L64.3334 27.7676L60.09 89.8704H26.4572Z" fill="#FF641E"/>
<path d="M59.623 89.3704H26.9036L20.0822 29.3421L63.7972 28.2807L59.623 89.3704Z" stroke="black"/>
</g>
<path d="M23.7637 21.4812C23.7637 20.4176 31.7857 19.5554 41.6814 19.5554C51.577 19.5554 59.5991 20.4176 59.5991 21.4812V24.9695C63.8944 25.4223 66.6434 29.4255 60.4959 31.8458C49.9961 35.9795 29.0145 34.6525 21.4586 30.9624C17.9402 29.244 19.213 26.0795 23.7637 25.4223L23.7637 21.4812Z" fill="white"/>
<path d="M59.5991 21.4812C59.5991 22.5448 51.577 23.4071 41.6814 23.4071C31.7857 23.4071 23.7637 22.5448 23.7637 21.4812M59.5991 21.4812C59.5991 20.4176 51.577 19.5554 41.6814 19.5554C31.7857 19.5554 23.7637 20.4176 23.7637 21.4812M59.5991 21.4812V24.9695M23.7637 21.4812L23.7637 25.4223M23.7637 25.4223C19.213 26.0795 17.9402 29.244 21.4586 30.9624C29.0145 34.6525 49.9961 35.9795 60.4959 31.8458C66.6434 29.4255 63.8944 25.4223 59.5991 24.9695M23.7637 25.4223V27.9159C23.7637 27.9159 22.8593 30.3342 38.938 30.9624C47.8251 31.0383 58.4808 30.1381 59.5991 27.9159V24.9695" stroke="black"/>
<defs>
<filter id="filter0_d_427_4885" x="0.523682" y="0.767578" width="82.8097" height="100.103" filterUnits="userSpaceOnUse" color-interpolation-filters="sRGB">
<feFlood flood-opacity="0" result="BackgroundImageFix"/>
<feColorMatrix in="SourceAlpha" type="matrix" values="0 0 0 0 0 0 0 0 0 0 0 0 0 0 0 0 0 0 127 0" result="hardAlpha"/>
<feOffset dy="-8"/>
<feGaussianBlur stdDeviation="9.5"/>
<feComposite in2="hardAlpha" operator="out"/>
<feColorMatrix type="matrix" values="0 0 0 0 1 0 0 0 0 0.392157 0 0 0 0 0.117647 0 0 0 1 0"/>
<feBlend mode="normal" in2="BackgroundImageFix" result="effect1_dropShadow_427_4885"/>
<feBlend mode="normal" in="SourceGraphic" in2="effect1_dropShadow_427_4885" result="shape"/>
</filter>
</defs>
</svg>
