<svg width="223" height="181" viewBox="0 0 223 181" fill="none" xmlns="http://www.w3.org/2000/svg">
<path d="M83.0927 52.6426C85.0841 50.382 102.516 48.464 110.467 48.464C120.406 48.464 176.754 49.7996 180.352 49.7996C183.608 49.7996 189.15 51.6573 188.115 53.5548C187.167 62.2023 186.202 81.1868 189.919 87.9448C199.528 105.416 203.711 119.108 205.392 137.011C206.087 144.422 204.421 155.187 191.379 157.822C190.79 157.914 190.185 158.005 189.564 158.097C189.726 159.365 188.158 161.439 188.158 161.439C138.803 172.082 106.397 164.873 96.0442 158.79V156.86C93.192 155.872 90.6391 154.718 88.4569 153.376C83.9558 150.686 76.9283 143.784 78.4117 135.92C79.9749 127.634 85.6125 106.665 89.5259 87.7023C89.5877 87.403 93.1256 72.0885 92.6897 71.1942C92.4597 69.0689 91.402 64.9661 88.4569 61.3225C84.3399 56.2289 81.8454 56.8212 83.0927 52.6426Z" fill="white"/>
<path d="M146.373 77.0814C117.523 77.0814 96.0956 75.4127 96.0956 80.6789C94.8042 84.1399 83.6748 126.939 82.9976 134.049C82.1511 142.937 82.9384 151.696 105.158 155.928C127.378 160.161 180.705 157.41 188.958 154.447C197.211 151.484 201.143 146.774 201.143 134.049C201.143 113.003 184.61 83.2934 182.213 80.6789C182.213 75.4127 175.223 77.0814 146.373 77.0814Z" fill="black"/>
<path d="M83.0927 52.6426C85.0841 50.382 102.516 48.464 110.467 48.464C111.819 48.464 114.03 48.4887 116.85 48.5314M83.0927 52.6426C83.0927 55.9123 89.5767 55.4507 95.4792 55.9288C98.5479 56.1774 103.037 57.5465 107.145 58.0572C135.974 61.6416 164.93 59.0963 180.352 56.2289C185.386 55.4841 187.591 54.5144 188.115 53.5548M83.0927 52.6426C81.8454 56.8212 84.3399 56.2289 88.4569 61.3225C91.402 64.9661 92.4597 69.0689 92.6897 71.1942M188.115 53.5548C189.15 51.6573 183.608 49.7996 180.352 49.7996C178.832 49.7996 167.9 49.5613 155.029 49.286M188.115 53.5548C187.167 62.2023 186.202 81.1868 189.919 87.9448C199.528 105.416 203.711 119.108 205.392 137.011C206.087 144.422 204.421 155.187 191.379 157.822C190.79 157.914 190.185 158.005 189.564 158.097M96.0442 156.86C93.1921 155.872 90.6391 154.718 88.4569 153.376C83.9558 150.686 76.9283 143.784 78.4117 135.92C79.9749 127.634 85.6125 106.665 89.5259 87.7023C89.5877 87.403 89.6492 87.1049 89.7103 86.808M96.0442 156.86V158.79C102.272 165.71 153.044 169.783 188.158 161.439C188.158 161.439 189.726 159.365 189.564 158.097M96.0442 156.86C120.273 165.248 166.091 161.571 189.564 158.097M122.439 48.6246C125.933 48.687 130.549 48.8624 134.73 48.9465M138.927 48.9465C142.684 49.0239 146.528 49.1049 150.289 49.1849" stroke="black"/>
<path d="M89.8368 85.4723C87.7718 75.7917 89.9283 71.8938 91.5235 71.439C94.2524 73.9557 114.661 73.41 142.062 73.41C163.984 73.41 181.433 70.5887 187.417 69.1781L209.066 68.1293C217.847 68.2314 219.419 68.9065 220.629 73.41C223.647 84.6423 221.63 118.56 220.087 126.273C218.853 132.443 215.478 129.786 214.376 127.729C212.129 118.546 211.543 115.908 210.391 92.1161C209.997 83.9692 208.887 81.0979 206.463 81.0979H191.32C191.32 81.0979 191.821 84.8973 189.74 85.4724C153.652 95.4397 89.8368 90.2482 89.8368 85.4723Z" fill="#FF641E"/>
<path d="M138.298 54.345C136.111 48.4577 134.503 36.6686 139.751 27.3835C145.485 17.2385 141.258 5.72827 138.298 0.455688M154.627 54.345C152.272 49.6352 150.611 39.8128 153.437 35.7758C156.969 30.7295 163.792 25.0769 156.564 12.148M122.182 54.345C119.827 49.6352 118.166 39.8128 120.992 35.7758C124.524 30.7295 131.347 25.0769 124.12 12.148" stroke="#FF641E" stroke-opacity="0.5"/>
<path d="M21.2719 153.853C21.2618 153.842 21.2525 153.832 21.2438 153.823L16.3363 94.218L60.0078 94.2179L53.4966 153.849C53.4875 153.861 53.4771 153.874 53.4653 153.889C53.3942 153.978 53.2712 154.117 53.0773 154.289C52.6898 154.633 52.0156 155.115 50.9015 155.606C48.6705 156.588 44.6799 157.601 37.721 157.601C30.7641 157.601 26.5913 156.589 24.1769 155.601C22.9703 155.107 22.2026 154.619 21.7446 154.267C21.5155 154.09 21.3633 153.947 21.2719 153.853ZM21.1615 153.729L21.1618 153.73C21.1607 153.728 21.1602 153.728 21.1605 153.728L21.1615 153.729Z" fill="#FF641E" stroke="black"/>
<path d="M20.4756 86.7324C20.4756 85.6858 28.3691 84.8374 38.1062 84.8374C47.8433 84.8374 55.7368 85.6858 55.7368 86.7324V90.1647C59.9633 90.6103 62.6682 94.5493 56.6193 96.9308C46.2877 100.998 25.6422 99.6926 18.2074 96.0616C14.7454 94.3708 15.9978 91.257 20.4755 90.6103L20.4756 86.7324Z" fill="white"/>
<path d="M55.7368 86.7324C55.7368 87.7789 47.8433 88.6273 38.1062 88.6273C28.3691 88.6273 20.4756 87.7789 20.4756 86.7324M55.7368 86.7324C55.7368 85.6858 47.8433 84.8374 38.1062 84.8374C28.3691 84.8374 20.4756 85.6858 20.4756 86.7324M55.7368 86.7324V90.1647M20.4756 86.7324L20.4755 90.6103M20.4755 90.6103C15.9978 91.257 14.7454 94.3708 18.2074 96.0616C25.6422 99.6926 46.2877 100.998 56.6193 96.9308C62.6682 94.5493 59.9633 90.6103 55.7368 90.1647M20.4755 90.6103V93.0639C20.4755 93.0639 19.5857 95.4435 35.4068 96.0616C44.1515 96.1363 54.6364 95.2505 55.7368 93.0639V90.1647" stroke="black"/>
<path d="M0.809387 171.536H97.6775M68.0528 180H179.498" stroke="black"/>
</svg>
