<svg width="387" height="524" viewBox="0 0 387 524" fill="none" xmlns="http://www.w3.org/2000/svg">
<path d="M58.4778 481.01C56.1936 489.867 45.399 511.534 43.76 522.539H207.548L197.241 436.141L58.4778 436.141C58.4778 453.38 62.1799 466.653 58.4778 481.01Z" fill="white"/>
<path d="M157.269 473.122C151.449 486.218 140.676 513.85 138.952 520.1M43.76 522.539C45.399 511.534 56.1936 489.867 58.4778 481.01C62.1799 466.653 58.4778 453.38 58.4778 436.141L197.241 436.141L207.548 522.539H43.76Z" stroke="black"/>
<path d="M231.615 176.842H207.501L196.56 175.056L191.648 193.588V211.674L188.969 256.33L199.463 269.503L211.153 277.546L224.024 238.914L253.943 200.733L244.119 185.774L238.09 175.056L231.615 176.842Z" fill="white"/>
<path d="M101.772 105.11H110.706L164.899 120.623L167.349 124.327L173.964 130.227L177.784 156.638V192.739L182.929 203.588L198.36 284.882V376.713L216.049 438.813L169.38 442.2L137.013 293.538L124.217 171.974C124.159 165.45 123.176 151.338 119.709 147.083C116.242 142.829 103.947 137.444 98.2322 135.284C94.1866 134.16 86.3434 131.561 82.2978 131.561C78.2521 131.561 75.6496 136.507 73.2841 138.487C69.057 142.025 64.1814 146.073 64.1814 146.073L68.0371 131.561L71.3345 128.449L69.2783 122.992C69.2783 122.992 74.9959 109.229 83.8299 106.542C89.6299 104.778 96.009 106.627 101.772 105.11Z" fill="white"/>
<path d="M101.772 105.11H110.706L164.899 120.623L167.349 124.327L173.964 130.227L177.784 156.638V192.739L182.929 203.588L198.36 284.882V376.713L216.049 438.813L169.38 442.2L137.013 293.538L124.217 171.974C124.159 165.45 123.176 151.338 119.709 147.083C116.242 142.829 103.947 137.444 98.2322 135.284C94.1866 134.16 86.3434 131.561 82.2978 131.561C78.2521 131.561 75.6496 136.507 73.2841 138.487C69.057 142.025 64.1814 146.073 64.1814 146.073L68.0371 131.561L71.3345 128.449L69.2783 122.992C69.2783 122.992 74.9959 109.229 83.8299 106.542C89.6299 104.778 96.009 106.627 101.772 105.11Z" fill="#FF641E" fill-opacity="0.5"/>
<path d="M30.4566 172.245L65.0906 145.431L77.6375 132.389C77.6375 132.389 82.6323 130.473 85.9696 130.814C100.008 132.249 112.918 138.507 122.017 148.777C127.364 157.78 129.952 166.778 133.254 176.891C139.609 199.132 149.933 251.257 150.841 256.733C156.77 292.501 160.002 305.406 164.395 326.001C164.892 328.328 172.503 373.515 175.873 392.594L188.979 416.274V449.324C188.979 449.324 155.443 458.497 127.968 458.067C97.6642 457.594 84.0545 460.678 50.3638 449.448C45.8402 441.004 48.479 431.354 50.3638 427.584C49.8612 423.94 48.479 416.049 46.9711 413.636C45.0863 410.62 44.3324 383.174 43.9554 374.055C43.6538 366.759 39.5848 361.429 37.5879 359.676C26.1331 355.194 7.36723 337.264 2.89833 332.284C-0.676795 328.3 1.40869 309.585 2.89833 300.726C4.26382 296.381 7.0693 282.403 7.36723 261.251C7.66515 240.098 22.8843 193.1 30.4566 172.245Z" fill="black"/>
<path d="M207.915 272.214L201.656 202.646L195.336 196.326L178.836 229.327L193.581 273.914L207.915 272.214Z" fill="black"/>
<path d="M30.4566 172.245L65.0906 145.431L77.6375 132.389C77.6375 132.389 82.6323 130.473 85.9696 130.814C100.008 132.249 112.918 138.507 122.017 148.777C127.364 157.78 129.952 166.778 133.254 176.891C139.609 199.132 149.933 251.257 150.841 256.733C156.77 292.501 160.002 305.406 164.395 326.001C164.892 328.328 172.503 373.515 175.873 392.594L188.979 416.274V449.324C188.979 449.324 155.443 458.497 127.968 458.067C97.6642 457.594 84.0545 460.678 50.3638 449.448C45.8402 441.004 48.479 431.354 50.3638 427.584C49.8612 423.94 48.479 416.049 46.9711 413.636C45.0863 410.62 44.3324 383.174 43.9554 374.055C43.6538 366.759 39.5848 361.429 37.5879 359.676C26.1331 355.194 7.36723 337.264 2.89833 332.284C-0.676795 328.3 1.40869 309.585 2.89833 300.726C4.26382 296.381 7.0693 282.403 7.36723 261.251C7.66515 240.098 22.8843 193.1 30.4566 172.245Z" stroke="black"/>
<path d="M207.915 272.214L201.656 202.646L195.336 196.326L178.836 229.327L193.581 273.914L207.915 272.214Z" stroke="black"/>
<path d="M219.189 203.433C212.375 207.975 204.28 249.232 208.136 272.305C197.878 290.677 188.068 294.097 183.766 294.243C183.862 295.776 187.231 300.215 188.239 302.058L187.478 382.415L191.32 520.852H386.072C384.325 511.534 341.725 388.144 340.961 382.415C340.35 377.831 327.975 352.495 321.864 340.4C323.711 334.926 326.909 322.296 324.919 315.574C322.432 307.171 329.192 292.809 327.406 280.356C325.621 267.903 327.406 254.91 327.406 249.232C327.406 243.554 320.467 224.312 317.312 220.211C314.158 216.111 277.252 192.137 265.896 194.03C254.54 195.923 227.706 197.755 219.189 203.433Z" fill="white"/>
<path d="M188.239 302.058L187.478 382.415L191.092 520.852H386.072C384.325 511.534 341.725 388.144 340.961 382.415C340.35 377.832 327.975 352.496 321.864 340.401C323.711 334.926 326.909 322.296 324.919 315.574C322.432 307.171 329.192 292.809 327.406 280.356C325.621 267.903 327.406 254.91 327.406 249.232C327.515 246.799 326.26 239.846 320.372 231.505" stroke="black"/>
<path d="M155.127 163.429C154.117 160.853 153.491 156.277 159.067 158.58C159.572 159.489 160.552 161.52 160.431 162.368M162.196 160.49C161.443 158.825 160.531 155.4 162.909 155.02C165.288 154.639 165.803 157.636 165.763 159.182M165.763 197.945C165.089 189.622 163.266 171.334 161.364 164.77C159.461 158.206 154.898 158.611 156.013 160.49C157.127 162.368 162.91 186.335 162.196 199.784M170.401 168.219C170.21 164.413 165.651 159.055 163.233 157.073C162.797 156.835 162.343 158.78 162.909 160.841C164.217 165.598 167.904 160.371 171.471 194.735M132.654 179.117C133.815 182.126 137.784 183.793 143.106 182.537C147.321 181.543 152.023 174.035 156.607 175.536M164.172 174.649H167.653M123.383 148.679C124.842 152.019 128.881 164.77 132.654 164.77M141.931 166.316L155.127 169.574M100.474 106.028C101.997 105.67 105.876 106.27 109.208 111.537M71.8284 127.188C75.501 123.067 77.5373 116.371 85.8286 114.09C88.6269 113.32 93.8457 114.09 96.0403 114.09M67.4171 137.978L77.5373 126.452M114.952 115.786C120.601 123.047 134.14 139.275 143.106 144.685C154.313 151.448 153.708 151.095 157.793 155.02M156.607 147.172C156.578 148.694 156.774 151.908 157.793 152.582M165.763 121.913L172.603 128.931M63.9739 146.036C65.1216 141.65 67.4171 132.732 67.4171 132.147C67.4171 131.416 71.1829 128.2 71.1829 128.2M69.091 124.544C71.7696 118.372 78.8671 106.028 85.8286 106.028C94.5305 106.028 109.058 104.644 110.086 105.04" stroke="black"/>
<path d="M172.698 324.259C165.804 323.799 159.229 327.77 156.804 329.812L153.804 343.2C153.804 343.2 149.461 366.163 150.617 377.105C150.96 380.359 153.099 382.519 153.099 382.519C154.152 382.309 156.448 382.014 157.963 382.519C159.857 383.15 160.899 385.915 163.529 385.654C171.842 384.829 175.503 383.121 176.995 382.519C178.488 381.918 184.369 383.73 186.331 383.73C188.292 383.73 190.417 382.923 191.234 382.519C196.423 380.4 207.481 375.479 210.21 372.75C212.939 370.021 213.764 367.135 213.835 366.034C213.764 365.358 213.28 363.987 211.916 363.902L214.794 360.17C216.144 357.647 217.672 352.623 212.982 352.708C213.693 350.327 214.327 345.461 209.636 346.143C203.927 346.974 204.134 348.55 198.164 349.616C194.176 350.329 176.813 351.767 169.898 344.989C168.965 342.604 167.659 337.69 169.898 337.118C172.138 336.546 173.39 334.743 173.854 333.923L172.698 324.259Z" fill="white"/>
<path d="M152.831 382.519C153.883 382.309 155.892 382.014 157.407 382.519C159.301 383.15 161.123 385.728 164.453 385.398C170.248 384.823 173.885 383.837 175.249 383.077M211.916 363.902C213.28 363.987 213.764 365.359 213.835 366.034C213.764 367.135 212.939 370.021 210.21 372.75C209.343 373.617 207.635 374.705 205.543 375.854M211.916 363.902L214.794 360.17C216.144 357.647 217.672 352.623 212.982 352.708M211.916 363.902C205.645 367.041 198.164 372.75 193.277 373.492C185.859 374.618 175.209 372.56 168.13 372.75M212.982 352.708C213.692 350.327 214.326 345.461 209.636 346.144C203.927 346.974 204.134 348.551 198.164 349.617C194.176 350.329 176.813 351.768 169.898 344.989C168.965 342.604 167.988 338.42 169.898 337.118C171.83 335.801 172.532 335.223 173.534 334.303L172.998 324.202C166.953 323.799 160.962 326.828 157.901 328.976M212.982 352.708C201.335 363.65 186.153 362.469 171.276 360.988M163.528 378.645C167.068 379.91 176.995 382.519 176.995 382.519C176.995 382.519 184.369 383.73 186.331 383.73C188.292 383.73 190.417 382.923 191.234 382.519C193.882 381.438 198.057 379.627 201.875 377.75" stroke="black"/>
<path d="M41.8435 361.302C62.4957 376.939 104.823 386.072 113.788 387.068C122.752 388.064 136.313 387.068 143.958 387.068C150.073 387.068 153.968 384.472 155.151 383.174C153.422 383.811 150.019 382.028 150.237 369.797C150.455 357.566 154.878 337.035 157.062 328.299C149.831 327.57 134.318 321.877 127.678 332.232M127.678 332.232C120.605 325.527 102.116 312.03 84.7417 311.689L71.0378 291.903L74.4005 227.4M127.678 332.232C125.202 333.551 113.788 364.63 123.077 374.673M33.2476 173.418C40.2425 170.135 58.7789 171.049 65.8856 188.684M10.1379 317.816C14.1132 310.835 26.0198 296.582 41.8435 295.419M26.427 317.816L62.4957 297.455M51.2837 341.073C53.9477 331.278 62.3006 311.689 74.4005 311.689M79.1341 135.023C81.0033 139.517 84.7417 150.512 84.7417 158.539C84.1267 161.465 84.2762 167.443 89.7946 167.945C96.6926 168.572 115.192 162.472 122.717 167.945C128.737 172.323 132.959 201.333 134.318 215.29C136.041 226.787 140.382 252.477 143.958 263.263C147.533 274.049 151.563 308.518 153.131 324.404M72.5667 383.174L62.4957 414.067M81.296 387.068C77.367 397.522 69.8147 419.377 71.0378 423.16L62.4957 419.159M51.2837 429.343C67.4882 431.647 102.675 436.399 113.788 436.981C124.9 437.563 162.954 433.829 180.592 431.889" stroke="white"/>
<path d="M232.464 74.1832C226.123 72.7867 218.741 72.9964 216.288 74.1832L192.4 83.2628L176.77 120.357C174.213 124.996 170.128 139.338 171.491 146.383C172.855 153.427 174.013 158.593 174.581 159.635L171.491 171.276C171.491 183.352 174.581 192.921 176.338 205.063L195.551 210.04C194.636 208.797 212.746 193.712 210.767 184.624C208.787 175.536 209.981 176.773 208.215 172.553L227.439 169.439L249.522 154.686C245.718 163.371 231.264 172.608 231.889 180.52C232.389 186.849 199.768 210.04 220.393 254.034C222.015 243.268 223.13 227.818 231.889 218.353C241.315 208.167 246.957 205.538 253.449 201.202C261.293 195.963 267.415 193.887 274.832 195.963C280.765 197.623 282.863 199.789 289.631 203.809C298.387 209.009 308.392 211.821 314.057 220.226C318.657 227.05 323.154 237.462 326.315 241.127C325.074 238.263 322.42 230.531 321.733 222.513C320.874 212.49 310.308 200.278 305.661 195.963C301.014 191.647 303.669 183.017 301.678 174.055C299.686 165.092 288.544 160.42 284.107 157.289C277.573 152.676 277.264 144.392 277.026 135.61C276.837 128.585 271.567 122.556 268.956 120.42C268.2 119.748 267.751 117.999 267.621 117.208C267.621 107.566 261.705 92.5095 256.481 87.7236C250.551 82.2916 242.698 76.4372 232.464 74.1832Z" fill="black"/>
<path d="M247.318 132.177C247.86 137.83 250.517 135.111 253.321 137.83C254.735 141.4 254.485 152.584 246.358 156.391L249.624 155.208C249.624 155.208 243.86 164.558 236.532 171.16C230.588 176.517 233.66 178.896 231.325 182.899C229.401 186.198 226.171 190.448 221.763 197.865C217.67 204.753 215.955 210.357 215.955 210.357L209.499 181.144C201.246 179.868 193.954 171.215 189.587 160.545C185.399 142.864 189.587 141.42 189.587 121.982C193.671 105.881 191.128 102.476 202.219 97.7133C208.231 96.3097 210.176 97.5842 211.838 96.8589C214.57 95.6657 218.864 94.4698 224.187 94.9276C242.082 96.4669 245.948 117.887 247.318 132.177Z" fill="white"/>
<path d="M193.877 104.391C190.707 108.033 189.588 117.955 189.779 124.144C189.779 137.121 183.421 151.645 191.202 163.815C196.398 171.938 201.032 179.846 209.5 181.132C213.358 181.717 219.916 178.076 226.473 174.803C234.482 170.818 243.561 165.33 244.274 152.788M196.914 100.739C197.147 99.6782 201.04 96.1125 212.033 96.8958M249.404 124.144C248.289 118.46 252.446 108.808 246.118 100.004C240.909 92.7566 219.597 88.9137 211.284 95.0037M209.779 182.049L215.611 211" stroke="black" stroke-linejoin="bevel"/>
<path d="M211.25 126.813C210.499 134.033 208.576 137.152 206.463 138.948C204.349 140.743 207.048 144.563 212.294 146.511" stroke="black" stroke-linejoin="bevel"/>
<path d="M213.911 142.512C215.707 142.933 216.356 144.308 216.356 144.843" stroke="black" stroke-linejoin="bevel"/>
<path d="M219.895 118.625C223.091 116.639 230.375 115.645 234.678 119.402" stroke="black" stroke-linejoin="bevel"/>
<path d="M222.297 155.067C217.509 158.251 206.444 160.097 199.708 154.571" stroke="black" stroke-linejoin="bevel"/>
<path d="M206.526 119.339C203.33 117.352 196.047 116.359 191.743 120.115" stroke="black" stroke-linejoin="bevel"/>
<path d="M204.896 132.848C202.401 131.295 196.734 130.531 193.373 133.446" stroke="black" stroke-linejoin="bevel"/>
<path d="M233.049 132.848C230.553 131.295 224.887 130.531 221.525 133.446" stroke="black" stroke-linejoin="bevel"/>
<path d="M250.781 143.264C249.202 143.901 247.381 147.186 247.597 149.758" stroke="black" stroke-linejoin="bevel"/>
<path d="M244.821 157.538C257.719 153.399 256.459 123.528 244.821 143.9" stroke="black" stroke-linejoin="bevel"/>
<path d="M219.355 156.329C212.288 150 212.403 153.769 210.136 153.858C208.086 153.935 205.782 149.873 202.331 155.705" stroke="black" stroke-linejoin="bevel"/>
<path d="M205.247 160.708C207.743 162.262 213.409 163.026 216.771 160.11" stroke="black" stroke-linejoin="bevel"/>
<path d="M253.195 84.8933C263.909 93.3519 266.671 110.8 267.621 117.209M268.956 120.42C271.567 122.556 276.836 128.585 277.026 135.61C277.264 144.392 279.848 154.609 283.646 156.983C287.443 159.356 299.686 165.092 301.677 174.055C303.669 183.017 301.014 191.647 305.661 195.963C310.308 200.278 320.874 212.49 321.733 222.513C322.42 230.531 325.074 238.263 326.315 241.127M251.857 117.209C247.57 125.127 251.857 138.313 256.17 136.738M248.273 156.983C244.469 165.668 226.602 169.813 231.574 198.463M175.822 122.449C173.265 127.088 170.357 139.866 171.72 146.911C173.084 153.955 173.988 159.195 174.556 160.236M183.799 125.351C186.226 138.232 172.977 156.189 171.72 172.104C171.037 180.765 174.556 195.183 175.258 196.84M225.251 90.9346C223.451 85.6155 202.664 79.8625 193.432 98.0237M237.592 92.0899C239.691 89.519 237.592 82.032 226.405 79.8625M244.127 95.229C244.324 92.7003 247.009 88.9507 256.17 94.1826M248.574 99.4145C255.285 99.0457 267.453 104.07 262.438 127.118C257.423 150.166 275.696 164.642 285.459 168.999M259.222 195.963C262.578 195.235 270.838 190.166 277.026 175.713M197.306 207.642C200.864 203.319 208.492 195.282 210.841 188.721" stroke="white"/>
<path d="M167.487 246.576C161.12 245.869 158.553 248.009 158.357 249.048C158.16 250.087 157.389 253.545 161.985 254.859C161.985 254.859 157.912 254.607 156.387 255.979C154.863 257.35 153.782 260.853 158.768 262.588C163.755 264.322 170.375 263.81 182.485 271.613C179.459 272.336 166.788 268.351 160.394 265.433C156.374 264.282 151.938 269.549 157.684 272.958C159.819 274.225 164.695 277.075 166.828 277.91C163.651 277.91 162.016 280.705 163.27 283.023C164.116 284.181 165.249 285.845 170.375 288.211C175.502 290.577 182.219 293.297 184.216 294.05C199.372 292.959 206.838 276.599 207.68 272.788C208.195 270.46 203.886 262.336 198.328 257.983C189.971 251.437 177.731 247.714 167.487 246.576Z" fill="white"/>
<path d="M184.584 293.445C182.587 292.692 175.502 290.577 170.375 288.211C165.249 285.845 164.116 284.181 163.27 283.023C162.251 281.14 163.139 278.942 165.212 278.184M183.901 271.89C180.559 271.031 176.687 265.433 158.768 262.588C153.555 261.76 154.863 257.35 156.387 255.979C157.912 254.607 161.985 254.859 161.985 254.859C165.104 254.815 172.411 255.38 176.687 257.983C180.964 260.586 186.842 262.138 189.246 262.588M179.364 281.66C175.733 282.207 169.494 279.388 166.828 277.91C164.695 277.075 159.819 274.225 157.684 272.958C151.938 269.549 156.374 264.282 160.394 265.433C165.631 267.823 176.028 271.114 181.283 271.83M159.644 253.709C157.705 252.122 158.204 249.855 158.357 249.048C158.553 248.009 161.12 245.869 167.487 246.576C177.731 247.714 189.971 251.437 198.328 257.983C202.559 261.297 205.93 266.878 207.455 270.394" stroke="black"/>
<path d="M222.8 273.618C227.547 260.769 236.667 235.456 236.667 229.621C236.319 227.075 234.437 224.01 234.437 224.01C234.437 224.01 242.571 214.804 248.822 211.215L251.065 203.981M207.925 272.062C210.762 272.273 218.066 277.924 219.353 277.924M207.925 272.062C203.289 288.452 190.613 293.029 183.589 294.412L188.224 301.861M207.925 272.062C206.734 261.826 204.23 235.287 217.023 208.742M285.524 316.436C280.015 306.224 267.746 285.315 262.748 283.38C256.499 280.961 249.343 281.114 241.536 280.138C235.488 279.382 222.601 275.432 217.314 274.399M275.16 295.241C278.028 294.309 285.917 293.434 294.522 297.393C303.128 301.351 317.471 313.815 323.566 319.552M282.693 307.451C286.749 309.245 296.123 315.079 301.177 324.063M284.331 329.679C294.236 338.922 312.454 349.215 306.09 316.436M294.522 250.225C303.411 265.267 319.593 294.272 321.495 303.953M248.822 232.695C246.291 239.641 244.773 261.331 255.99 277.272M214.957 275.463C218.412 271.511 219.85 278.558 220.191 283.38C220.79 291.854 218.329 300.426 215.08 307.451M214.957 339.423C221.603 340.292 237.681 343.653 248.822 350.144C259.963 356.634 268.88 359.03 271.946 359.416H301.177C304.183 359.416 311.006 358.779 314.251 356.229C317.497 353.679 320.433 345.121 321.495 341.161M248.822 394.936C261.398 390.084 292.431 380.378 315.957 380.378M317.704 384.455C281.134 385.153 256.545 394.257 248.822 398.721C249.618 403.722 251.67 414.148 253.511 415.847C255.812 417.971 256.696 422.395 269.793 416.909C280.269 412.52 307.311 407.53 319.522 405.583C322 405.315 326.743 403.567 325.894 398.721L319.522 386.824" stroke="black"/>
<path d="M104.941 85.9829C105.496 92.6386 108.986 102.562 113.378 107.643C142.134 78.6375 195.721 80.9349 196.326 84.1626C196.811 86.7447 199.388 86.452 200.616 85.9829C215.568 85.9829 221.831 69.4937 219.389 64.1921C216.947 58.8905 214.823 58.8905 214.823 58.8905C218.264 55.4502 220.701 46.0005 221.489 41.7058C222.005 29.6647 214.178 25.1324 208.158 26.8526C207.322 17.6926 198.062 12.2849 193.536 10.7261C187.873 5.39155 180.875 4.66 178.084 4.96104C166.644 -3.01189 155.205 3.2278 142.726 4.96104C132.742 6.34763 128.166 10.8541 127.126 12.934C111.319 16.2618 109.216 25.8755 110.141 30.2664C106.38 31.9806 95.48 41.9168 102.433 46.6481C104.439 48.0132 104.941 49.4684 104.941 50.0253C104.386 52.2439 100.088 54.4162 98.008 55.2251C88.5792 60.2168 99.5102 78.2411 104.941 85.9829Z" fill="black"/>
<path d="M200.722 43.3531C198.997 40.6698 194.012 39.3399 191.297 38.7808C190.54 38.6264 189.104 38.4102 189.416 38.7808C185.498 47.7964 177.293 54.1863 164.699 55.7717C161.338 55.7717 159.094 54.441 157.794 52.9077C153.235 54.6314 147.076 52.9077 139.498 72.6959C137.741 65.5574 133.803 60.5401 129.592 62.0265C128.323 62.4742 125.413 64.1161 124.965 67.2879C124.719 69.028 124.522 71.8628 124.296 73.5304C123.103 82.3307 116.917 106.257 112.262 111.799C140.718 147.095 153.675 153.345 158.047 145.672C157.845 143.855 162.398 128.568 164.699 121.152C166.802 121.393 168.815 121.53 170.908 121.687C181.707 122.495 183.991 118.217 183.755 110.806L183.993 107.721C185.889 107.158 188.297 104.922 187.234 103.783L186.239 103.065C188.444 103.942 189.286 101.343 189.431 99.9339V94.1415V92.3648C190.77 92.6706 191.992 92.8913 193.489 92.8913C196.884 92.8913 197.819 88.4826 196.224 85.6449C195.958 85.0819 196.113 84.0417 196.224 83.592C198.992 72.6469 203.947 71.5624 202.722 66.1248C202.26 61.8936 201.414 47.6682 201.414 45.5072L200.722 43.3531Z" fill="white"/>
<path d="M113.378 107.643C108.986 102.562 105.496 92.6386 104.941 85.9829M104.941 85.9829C99.5102 78.2411 88.5792 60.2168 98.008 55.2251C100.088 54.4162 104.386 52.2439 104.941 50.0253M104.941 85.9829C104.941 85.1493 104.941 82.9027 104.941 80.5851M101.101 41.7058C101.101 46.7737 128.976 55.2251 135.588 33.0396M110.141 30.2664C109.216 25.8755 112.003 15.4141 127.81 12.0863M127.81 12.0863C128.85 10.0064 132.742 6.34763 142.726 4.96104C155.205 3.2278 166.644 -3.01189 178.084 4.96104C180.875 4.66 187.873 5.39155 193.536 10.7261M127.81 12.0863C126.41 14.2488 124.486 19.1924 125.844 23.4712M200.616 41.7058C206.856 34.7728 213.581 19.3123 190.563 12.934C183.284 15.8227 167.199 18.827 161.098 7.73425M208.158 26.8525C214.178 25.1324 222.005 29.6647 221.489 41.7058C220.701 46.0006 218.264 55.4502 214.823 58.8905C214.823 58.8905 216.947 58.8905 219.389 64.1921C221.831 69.4937 215.568 85.9829 200.616 85.9829M208.158 36.0984C211.096 37.0301 215.683 40.7858 210.523 48.3545C204.072 57.8154 203.212 58.0304 208.158 68.3513M193.536 26.8525C191.291 37.695 185.549 52.6729 165.259 56.2028C161.145 56.013 153.071 52.9277 154.168 41.7058M111.318 71.164C120.526 72.8381 125.887 64.5716 128.857 62.5855" stroke="white"/>
<path d="M202.414 70.3028C201.195 68.8647 199.167 67.2545 197.89 66.4014C195.973 65.1169 196.583 61.7512 201.68 64.412C202.301 64.7355 202.521 65.0388 203.046 65.552C203.432 68.3247 203.223 69.4297 202.414 70.3028Z" fill="black"/>
<path d="M172.631 57.0802C176.965 57.451 182.841 58.9251 186.123 61.2568C188.006 62.59 190.934 60.8218 186.632 57.006C183.281 54.0294 176.501 54.3266 172.631 57.0802Z" fill="black"/>
<path d="M170.595 63.9696C177.373 63.2994 179.011 63.2254 179.979 66.9491" stroke="black" stroke-width="1.5" stroke-linejoin="bevel"/>
<path d="M199.794 74.2498C199.047 71.3785 197.902 70.7653 194.309 70.9422" stroke="black" stroke-width="1.5" stroke-linejoin="bevel"/>
<ellipse cx="176.643" cy="66.3413" rx="1.82382" ry="2.82167" transform="rotate(20.702 176.643 66.3413)" fill="black"/>
<ellipse cx="196.457" cy="73.6421" rx="1.82382" ry="2.82167" transform="rotate(20.702 196.457 73.6421)" fill="black"/>
<path d="M123.714 74.7371C122.521 83.5374 116.917 106.257 112.262 111.799M124.615 66.2915C124.565 70.4512 129.364 81.7641 134.649 78.3938M132.203 67.857C131.112 68.7083 129.585 70.8436 132.203 72.5741" stroke="black"/>
<path d="M191.297 38.7808C194.012 39.3398 198.997 40.6697 200.722 43.3531M182.645 90.8816C180.82 90.488 178.001 88.1722 180.15 85.0714M185.944 91.4013C188.868 92.0158 190.921 92.8912 193.489 92.8912C196.885 92.8912 197.819 88.4826 196.224 85.6449C194.65 82.842 193.146 77.7967 192.59 73.1502C192.465 72.4082 192.59 68.459 193.489 66.7775M169.199 96.5449C174.517 99.2457 181.511 101.082 186.239 103.065C188.444 103.942 188.911 102.063 189.033 100.321C189.033 100.321 188.013 98.8735 184.623 98.8735C177.384 98.8735 174.031 98.5222 171.499 97.6219M166.901 99.492C166.263 97.6219 166.422 94.7161 170.393 94.7161M172.282 101.04C178.475 105.631 181.567 106.487 183.522 106.396M187.234 103.783C187.565 104.811 186.562 106.252 185.43 106.98C184.599 107.514 184.19 108.137 184.19 108.137C182.221 111.069 187.528 122.208 171.726 121.825C169.503 121.771 166.802 121.393 164.699 121.152M138.725 103.065C142.082 108.982 155.594 120.109 164.699 121.152M164.699 121.152C162.398 128.568 157.845 143.855 158.047 145.672" stroke="black"/>
</svg>
