<svg width="347" height="728" viewBox="0 0 347 728" fill="none" xmlns="http://www.w3.org/2000/svg">
<path d="M110.478 568.441C97.3091 538.34 84.6101 470.716 79.9067 440.667V410.759L155.828 418.298L238.757 410.759L259.867 520.075L250.011 525.327C246.353 542.312 240.134 606.382 244.524 726.787L133.995 691.512C131.644 663.031 123.648 598.543 110.478 568.441Z" fill="white"/>
<path d="M179.461 463.4C161.859 497.458 175.429 552.136 175.429 568.441M179.461 608.282L185.984 698.75M134.792 475.101L159.488 504.941M79.9067 440.667C84.6101 470.716 97.3091 538.34 110.478 568.441C123.648 598.543 131.644 663.031 133.995 691.512L244.524 726.787C240.134 606.382 246.353 542.312 250.011 525.327L259.867 520.075L238.757 410.759L155.828 418.298L79.9067 410.759V440.667Z" stroke="black"/>
<path d="M301.22 459.886C299.381 456.207 301.626 442.976 303.159 438.268C308.556 430.393 323.818 420.291 341.684 442.885C341.027 452.747 339.367 473.457 337.986 477.402C336.605 481.347 329.357 485.456 325.905 487.017H324.146C322.355 488.99 317.44 487.839 316.29 487.017L314.564 488.99C313.578 491.209 306.878 490.716 307.371 487.017C307.766 484.059 308.732 471.252 308.893 463.102L307.49 481.048C306.51 484.853 304.429 484.298 303.254 483.115C301.001 480.846 303.52 464.484 301.22 459.886Z" fill="white"/>
<path d="M303.159 438.268C301.626 442.976 299.381 456.207 301.22 459.886C303.52 464.484 301.001 480.846 303.254 483.115C304.429 484.298 306.51 484.853 307.49 481.048M309.414 458.399C309.253 466.549 307.766 484.059 307.371 487.017C306.878 490.716 313.578 491.209 314.564 488.99C315.353 487.215 316.043 473.95 316.29 467.54M316.29 487.017C317.44 487.839 322.355 488.99 324.146 487.017C326.758 484.141 325.905 472.553 325.905 467.54M325.905 487.017C329.357 485.456 336.605 481.347 337.986 477.402C339.367 473.457 341.027 452.747 341.684 442.885M333.169 465.603L331.207 481.048M307.371 448.346C308.732 449.382 311.587 452.031 312.119 454.339" stroke="black"/>
<path d="M196.895 108.772L120.564 115.649L87.0833 316.984L80.9023 414.05C80.9023 414.05 122.475 437.882 156.788 428.505C188.493 419.84 251.465 420.555 251.465 420.555L232.662 175.463L196.895 108.772Z" fill="white" stroke="black"/>
<path d="M87.8965 404.101C99.8171 407.463 137.939 411.49 152.611 410.022C167.282 408.555 194.887 403.284 211.392 401.145" stroke="black"/>
<path d="M93.2828 139.517L47.9132 161.068C43.8765 166.425 35.5729 178.749 34.653 185.188C33.5031 193.238 6.10334 246.147 1.40247 292.607C-4.39442 349.899 29.0275 357.682 29.0275 357.682L50.765 354.612L59.8313 326.792V360.829L45.4699 453.911L23.1293 609.276C55.0228 611.081 67.0079 620.559 69.0138 625.072V584.829L116.779 582.949L103.991 551.356L88.195 487.419L82.8495 457.396L96.3871 347.394L108.128 267.775L115.276 197.581L119.245 159.624L130.096 121.535L127.68 109.296H125.111C119.898 109.296 101.72 124.883 93.2828 132.677V139.517Z" fill="black"/>
<path d="M225.321 127.542C222.84 123.434 212.094 113.666 207.032 109.296L195.143 101.129L190.531 116.193C191.397 121.076 196.906 126.21 199.579 135.269C202.252 144.329 209.161 167.811 209.161 189.467C209.161 219.283 201.729 282.627 199.579 300.39C195.918 330.63 199.579 383.522 210.9 412.513C221.587 441.895 244.207 506.886 249.191 531.803L246.936 582.706L263.1 588.915C264.367 593.52 265.476 597.427 266.321 600.324L309.147 592.538L297.542 545.819C297.542 545.819 290.241 510.801 292.473 479.075C293.229 468.325 289.91 447.126 289.963 436.349C290.06 416.753 285.752 409.436 280.864 390.459C276.697 374.283 273.076 363.748 269.675 347.394C263.839 319.335 263.648 274.256 263.648 274.256L269.675 281.304L267.21 295.73L274.423 304.462L277.461 320.407L287.331 331.417L289.963 364.218L299.658 439.291C299.658 439.291 311.36 432.669 324.188 434.544C332.967 435.828 345.546 442.284 345.546 442.284V375.985L335.849 313.652C326.034 278.938 304.631 203.219 297.542 178.052C288.681 146.594 274.502 148.809 270.515 146.594C266.527 144.379 228.423 132.677 225.321 127.542Z" fill="black"/>
<path d="M299.658 439.291L289.963 364.218L287.331 331.417L277.461 320.407L274.423 304.462L267.21 295.73L269.675 281.304L263.648 274.256C263.648 274.256 263.839 319.335 269.675 347.394C273.076 363.748 276.697 374.283 280.864 390.459C285.752 409.436 290.06 416.753 289.963 436.349C289.91 447.126 293.229 468.325 292.473 479.075C290.241 510.801 297.542 545.819 297.542 545.819L309.147 592.538L266.321 600.324C265.476 597.427 264.367 593.52 263.1 588.915L246.936 582.706L249.191 531.803C244.207 506.886 221.587 441.895 210.9 412.513C199.579 383.522 195.918 330.63 199.579 300.39C201.729 282.627 209.161 219.283 209.161 189.467C209.161 167.811 202.252 144.329 199.579 135.269C196.906 126.21 191.397 121.076 190.531 116.193L195.143 101.129L207.032 109.296C212.094 113.666 222.84 123.434 225.321 127.542C228.423 132.677 266.527 144.379 270.515 146.594C274.502 148.809 288.681 146.594 297.542 178.052C304.631 203.219 326.034 278.938 335.849 313.652L345.546 375.985V442.284M299.658 439.291C299.658 439.291 311.36 432.669 324.188 434.544C332.967 435.828 345.546 442.284 345.546 442.284M299.658 439.291C299.688 440.07 300.211 441.572 302.063 441.34M345.546 442.284C345.281 443.802 344.141 446.723 341.71 446.26M47.9132 161.068L93.2828 139.517V132.677C101.72 124.883 119.898 109.296 125.111 109.296H127.68L130.096 121.535L119.245 159.624L115.276 197.581L108.128 267.775L96.3871 347.394L82.8495 457.396L88.195 487.419L103.991 551.356L116.779 582.949L69.0138 584.829V625.072C67.0079 620.559 55.0228 611.081 23.1293 609.276L45.4699 453.911L59.8313 360.829V326.792L50.765 354.612L29.0275 357.682C29.0275 357.682 -4.39442 349.899 1.40247 292.607C6.10334 246.147 33.5031 193.238 34.653 185.188C35.5729 178.749 43.8765 166.425 47.9132 161.068Z" stroke="black"/>
<path d="M93.9947 143.31L97.7561 154.22L73.8638 162.848C75.9971 179.802 79.9778 214.842 80.5601 232.377M68.8128 623.34C68.8128 623.34 60.8057 540.394 64.4846 480.118C67.158 436.318 80.6168 356.963 80.6168 356.963C80.5321 335.178 80.4254 297.803 80.4455 270.179M88.924 414.401C84.9894 447.072 68.8128 571.447 68.8128 581.902M102.55 150.778L119.085 143.31M226.784 133.983L232.585 150.778L248.155 162.848C240.874 183.53 225.368 231.98 221.588 260.326C216.864 295.759 200.911 373.258 209.697 404.686M207.23 137.438L226.784 148.183M250.968 535.358L262.87 586.435M30.8667 316.625C30.8667 316.625 38.0567 306.053 51.433 303.706C57.4491 302.65 66.0509 304.723 66.0509 304.723M40.3835 287.706L51.433 301.326M60.5089 237.164V283.509M48.2406 161.442C53.284 158.799 56.4206 203.191 57.0597 209.822M274.275 149.707C270.932 168.783 269.53 199.757 269.53 199.757M262.927 274.966C269.748 258.248 276.407 226.235 276.407 226.235" stroke="white"/>
<path d="M110.431 72.5611C111.682 78.9222 118.139 86.5086 118.139 86.5086L127.863 85.1722L192.442 77.9814L204.118 76.483C208.481 75.7959 210.432 63.743 209.287 56.7682C207.987 48.8408 198.717 26.3327 194.873 20.6508C191.44 15.5769 190.468 13.2145 187.021 8.29963C184.264 4.36776 177.435 4.13063 175.021 3.59477C175.021 3.59477 159.946 0.947369 147.905 4.00149C133.921 7.54833 126.558 15.4828 117.073 22.5518C114.358 24.5753 112.084 33.5665 111.747 41.5193C111.203 54.3541 108.352 61.9911 110.431 72.5611Z" fill="#FF641E"/>
<path d="M125.287 93.4724C127.232 98.1667 126.278 111.306 129.935 118.376C129.935 128.793 129.687 133.858 126.601 137.431C117.724 139.684 144.226 255.023 165.687 255.023C187.676 255.023 189.854 142.38 188.108 139.565C183.804 139.565 186.367 123.752 185.32 117.026C191.008 105.115 191.882 100.323 191.882 94.4329C200.082 93.8981 206.071 82.3229 206.93 74.2622C207.614 67.8461 204.803 63.7739 199.033 68.4227C197.358 64.7095 196.703 59.0614 197.612 54.2137C191.242 43.526 191.283 33.4824 180.91 27.0313C177.336 24.8084 165.809 30.0643 161.196 30.0643C139.145 26.4847 128.488 29.1184 129.935 51.1338C125.287 55.3722 122.945 63.9081 122.945 70.3214C111.84 55.6924 108.958 84.1875 125.287 93.4724Z" fill="white"/>
<path d="M129.735 115.171L101.798 135.199C105.599 137.67 116.866 147.138 116.866 147.138C116.866 147.138 123.17 146.251 123.841 147.138C143.863 173.59 159.936 230.579 159.936 248.059C168.098 224.928 177.268 171.999 191.44 145.192C192.339 143.491 199.066 143.628 199.066 143.628L215.184 130.178C215.184 130.178 197.246 115.918 191.44 113.652L129.735 115.171Z" fill="white" stroke="black"/>
<path d="M186.991 141.162C185.335 135.734 184.823 123.315 185.526 119.777M126.774 139.324C125.309 153.688 175.053 165.924 186.991 143.045M125.713 137.431C120.918 161.275 182.639 166.488 188.075 143.045C188.348 141.868 188.793 139.643 186.991 139.395M191.085 119.777L196.658 139.395M126.774 126.555L117.982 144.049M188.075 135.506L192.335 137.431" stroke="black"/>
<path d="M126.536 137.998C129.272 133.465 129.975 124.092 129.272 120.554" stroke="black"/>
<path d="M193.163 87.6748C187.062 108.223 184.773 114.788 179.071 121.372C162.948 139.987 147.554 137.387 136.634 123.795C126.549 111.241 128.168 97.3144 124.646 88.6698" stroke="black"/>
<path d="M198.058 53.4925C185 55.3169 189.57 27.1296 171.686 31.4521" stroke="white"/>
<path d="M199.032 66.4812C192.464 64.1735 189.802 58.1383 189.802 52.6355" stroke="white"/>
<path d="M121.42 66.4812C127.988 64.1735 130.651 58.1383 130.651 52.6355" stroke="white"/>
<path d="M197.977 70.9499C201.891 62.4179 208.775 66.4888 206.737 75.9677C204.698 85.4465 200.411 91.0649 195.457 93.4907M198.843 81.3708C199.174 78.7885 199.942 76.9301 200.84 75.6482M204.229 73.2535C203.3 73.3381 201.968 74.0391 200.84 75.6482M200.84 75.6482C200.927 73.4456 203.007 70.035 203.981 69.5816" stroke="black"/>
<path d="M122.795 70.9499C118.882 62.4179 111.998 66.4888 114.036 75.9677C116.074 85.4465 120.361 91.0649 125.315 93.4907M121.93 81.3708C121.599 78.7885 120.831 76.9301 119.932 75.6482M116.543 73.2535C117.473 73.3381 118.805 74.0391 119.932 75.6482M119.932 75.6482C119.845 73.4456 117.765 70.035 116.792 69.5816" stroke="black"/>
<path d="M144.676 101.359C146.972 110.851 149.378 122.333 156.88 122.333C164.381 122.333 168.974 110.085 171.424 101.359C163.963 100.379 152.18 100.287 144.676 101.359Z" fill="black"/>
<path d="M146.824 101.236C149.396 105.569 167.393 104.887 169.276 101.236C163.013 100.413 153.123 100.336 146.824 101.236Z" fill="white"/>
<path d="M170.784 101.782C163.527 100.899 152.568 100.82 145.292 101.779C145.351 102.026 145.411 102.274 145.471 102.523C146.528 106.923 147.64 111.552 149.282 115.2C151.092 119.221 153.446 121.833 156.88 121.833C160.337 121.833 163.233 119.001 165.613 114.869C167.873 110.945 169.571 106.015 170.784 101.782Z" stroke="black"/>
<path d="M159.498 66.4827C159.321 69.5507 159.498 78.1042 160.357 82.9324C161.22 87.7808 161.743 88.8833 161.002 91.3526" stroke="black" stroke-miterlimit="10"/>
<path d="M156.104 91.8317C154.969 90.2442 153.255 91.3353 152.052 91.8317" stroke="black" stroke-miterlimit="10"/>
<path d="M164.331 92.7218C165.19 91.7855 165.344 90.5067 165.344 90.5067" stroke="black" stroke-miterlimit="10"/>
<path d="M150.5 92.4215C149.641 91.4852 149.487 90.2064 149.487 90.2064" stroke="black" stroke-miterlimit="10"/>
<path d="M203.199 61.0708C201.497 64.6231 201.035 67.7659 199.754 70.6475C199.389 77.8868 197.506 89.5831 195.923 96.6742C194.758 101.888 193.658 107.381 191.112 116.605C189.622 122.002 182.599 127.465 175.749 131.428C172.341 134.401 168.247 136.631 163.706 137.336C160.719 137.365 157.73 137.365 154.743 137.336C150.202 136.631 146.108 134.401 142.7 131.428C135.849 127.465 129.422 122.002 127.932 116.605C126.735 106.38 125.312 100.007 124.148 94.7932C122.613 87.9216 120.953 80.2799 121.528 73.2086C120.931 68.3507 122.684 64.1982 125.286 65.938C125.34 66.6433 125.227 73.263 125.286 74.1601C125.806 82.0761 126.256 91.6313 130.868 100.591C133.163 104.178 135.853 104.494 138.923 104.218C142.982 101.536 148.162 94.5042 157.268 94.5042L161.749 94.5042C170.854 94.5042 175.466 101.536 179.525 104.218C182.595 104.494 184.999 104.178 187.294 100.591C193.008 91.659 193.499 81.1246 194.019 73.2086C194.078 72.3115 193.562 54.71 192.997 52.5127C192.997 52.5127 205.47 56.3286 203.199 61.0708Z" fill="black"/>
<path d="M186.76 66.0032C183.208 63.4239 175.669 63.146 169.251 64.4139C165.004 65.2563 163.815 63.476 164.501 59.8545C171.857 61.1572 175.304 58.9165 182.2 61.2961C185.066 62.2862 186.76 66.0032 186.76 66.0032Z" fill="black"/>
<path d="M130.381 66.0032C133.933 63.4239 141.471 63.146 147.889 64.4139C152.136 65.2563 153.326 63.476 152.64 59.8545C145.284 61.1572 141.836 58.9165 134.941 61.2961C132.075 62.2862 130.381 66.0032 130.381 66.0032Z" fill="black"/>
<path d="M174.593 75.3944C176.255 75.3944 177.602 74.0474 177.602 72.3859C177.602 70.7244 176.255 69.3774 174.593 69.3774C172.932 69.3774 171.585 70.7244 171.585 72.3859C171.585 74.0474 172.932 75.3944 174.593 75.3944Z" fill="black"/>
<path d="M181.009 71.7594C176.615 68.732 171.851 69.3868 170.076 70.6016" stroke="black" stroke-miterlimit="10"/>
<path d="M143.29 75.3944C144.952 75.3944 146.299 74.0474 146.299 72.3859C146.299 70.7244 144.952 69.3774 143.29 69.3774C141.629 69.3774 140.282 70.7244 140.282 72.3859C140.282 74.0474 141.629 75.3944 143.29 75.3944Z" fill="black"/>
<path d="M136.865 71.7594C141.259 68.732 146.023 69.3868 147.798 70.6016" stroke="black" stroke-miterlimit="10"/>
<path d="M147.058 104.358C151.143 107.933 163.707 109.161 170.751 104.999M172.288 107.98C172.069 105.485 170.275 103.69 168.83 103.078" stroke="white" stroke-miterlimit="10"/>
<path d="M154.764 116.297C156.076 115.985 162.45 116.541 163.067 116.801" stroke="white" stroke-miterlimit="10"/>
<path d="M148.66 105.639C151.541 114.604 166.589 112.683 168.51 106.287" stroke="white" stroke-miterlimit="10"/>
<path d="M148.98 105.319C153.142 103.398 154.969 103.811 156.984 104.358C159.902 105.148 161.146 102.117 168.83 105.894" stroke="white" stroke-miterlimit="10"/>
<path d="M187.02 79.6169C185.665 85.5066 184.147 95.0611 184.961 98.8156M132.917 88.1383C134.199 92.054 135.732 98.8497 135.732 100.9" stroke="black"/>
<path d="M124 37.8342C115.427 45.229 111.248 63.5682 114.01 71.1172C114.01 71.1172 117.181 63.7067 121.102 71.9881C123.261 76.5489 125.664 82.6437 125.664 82.6437C125.664 82.6437 123.602 65.6284 125.664 57.8544C128.752 46.211 138.656 50.1103 150.154 46.1191C166.913 40.302 163.6 26.883 180.202 28.3657C181.863 29.0007 185.727 31.7833 187.887 37.8342C190.587 45.3978 196.611 62.4299 198.688 64.507C200.349 66.1687 204.642 57.8603 206.581 53.4985C208.519 49.1366 207.556 43.1611 207.556 43.1611C205.829 44.123 200.581 45.6714 197.307 41.8694C191.215 34.0715 176.449 18.4338 163.748 20.5121L163.703 20.5195C147.395 23.188 139.479 24.4833 124 37.8342Z" fill="black" stroke="black"/>
<path d="M192.064 47.0693C196.059 52.0629 208.637 46.5343 207.231 42.8173M125.513 37.4061C126.806 44.1936 134.327 48.1137 144.583 47.0693M179.857 28.7813C180.592 28.709 182.063 28.2424 182.063 26.9541M194.447 55.0764C196.845 56.331 202.2 58.4639 204.436 56.9584" stroke="white"/>
<path d="M59.0006 300.11C57.9078 279.53 76.1558 250.646 85.5912 242.068C84.7842 242.338 83.2956 242.566 82.0683 242.068C81.4931 241.835 80.1244 241.23 79.761 240.607C78.3375 238.166 77.2009 231.35 79.761 227.014C83.0465 221.45 86.5143 217.645 90.9881 217.442C95.4619 217.238 99.5236 214.789 103.184 215.196C106.112 215.521 111.946 214.925 114.86 215.196C116.623 214.383 121.121 214.22 123.724 215.196C126.978 216.416 133.28 220.687 133.687 224.754C134.012 228.007 132.738 231.125 132.06 232.278C131.382 233.43 129.01 229.496 129.01 229.496V235.319L130.433 238.582L139.827 245.353C140.522 246.154 140.254 248.812 140.254 251.375C140.254 254.58 133.157 258.556 130.433 260.011C126.69 262.01 117.364 262.471 113.998 261.694C115.875 263.377 119.829 268.212 121.039 270.099C124.392 275.328 122.105 319.292 113.998 333.646C117.75 337.398 127.132 348.863 127.132 355.097C127.132 362.888 119.411 376.446 119.7 380.774C119.988 385.103 118.718 385.388 122.402 390.234C126.611 395.77 127.52 397.194 127.132 399.424C122.528 402.523 113.283 403.268 110.854 384.819C108.456 366.61 106.325 362.89 105.819 361.678C102.635 363.398 100.625 363.172 99.4573 361.678C102.49 370.318 100.978 371.484 103.959 384.819C106.953 398.215 109.337 398.961 110.854 403.749C112.371 408.536 103.425 414.831 101.05 406.587C98.4914 397.71 96.2496 392.942 93.3771 387.953C90.0557 382.184 83.8121 376.389 78.9561 372.206C78.2087 372.89 77.3547 373.65 76.3797 374.498C65.3924 384.047 52.8691 379.648 51.9478 375.179C59.35 373.409 68.2321 371.022 69.372 363.391C52.6133 344.202 60.0767 320.378 59.0006 300.11Z" fill="white"/>
<path d="M119.559 381.499L120.058 381.466L119.559 381.499ZM123.31 391.022L123.708 390.719L123.31 391.022ZM111.767 386L112.263 385.934L111.767 386ZM74.2599 368.053L74.5978 367.684L74.5639 367.653L74.5249 367.629L74.2599 368.053ZM94.2905 389.133L93.8572 389.383L94.2905 389.133ZM100.159 404.448L99.6639 404.519L100.159 404.448ZM104.339 386L104.827 385.891L104.339 386ZM51.969 375.315L51.834 374.833C51.6182 374.894 51.469 375.091 51.469 375.315H51.969ZM78.7454 371.985L79.0759 371.609L78.7454 371.985ZM114.877 336.258C116.733 338.114 119.525 341.292 121.848 344.774C124.188 348.28 125.985 351.994 125.985 354.95H126.985C126.985 351.672 125.03 347.74 122.68 344.219C120.314 340.673 117.478 337.445 115.584 335.55L114.877 336.258ZM125.985 354.95C125.985 356.832 125.547 359.145 124.879 361.648C124.212 364.145 123.324 366.8 122.441 369.36C121.56 371.913 120.68 374.38 120.041 376.474C119.409 378.545 118.981 380.344 119.06 381.532L120.058 381.466C119.993 380.489 120.358 378.862 120.997 376.766C121.63 374.695 122.5 372.256 123.386 369.686C124.27 367.124 125.168 364.44 125.845 361.906C126.52 359.377 126.985 356.964 126.985 354.95H125.985ZM119.06 381.532C119.201 383.655 119.219 384.917 119.69 386.235C120.162 387.553 121.077 388.91 122.912 391.325L123.708 390.719C121.86 388.288 121.043 387.048 120.632 385.898C120.221 384.748 120.205 383.672 120.058 381.466L119.06 381.532ZM122.912 391.325C123.961 392.705 124.733 393.79 125.274 394.674C125.818 395.562 126.111 396.218 126.23 396.743C126.344 397.248 126.298 397.636 126.138 398.01C125.969 398.407 125.663 398.811 125.205 399.329L125.954 399.992C126.421 399.464 126.821 398.958 127.058 398.403C127.304 397.826 127.363 397.223 127.205 396.522C127.051 395.841 126.693 395.076 126.127 394.152C125.559 393.224 124.763 392.107 123.708 390.719L122.912 391.325ZM125.205 399.329C124.829 399.755 123.99 400.273 122.876 400.515C121.777 400.753 120.45 400.713 119.103 400.081C116.418 398.819 113.47 395.1 112.263 385.934L111.272 386.065C112.494 395.349 115.527 399.506 118.677 400.986C120.248 401.724 121.803 401.771 123.088 401.492C124.357 401.216 125.404 400.613 125.954 399.992L125.205 399.329ZM93.8572 389.383C95.3281 391.938 96.4237 393.403 97.3574 395.441C98.2748 397.443 99.0144 399.973 99.6639 404.519L100.654 404.378C99.9969 399.779 99.2386 397.146 98.2666 395.024C97.3109 392.938 96.1255 391.318 94.7238 388.884L93.8572 389.383ZM99.6639 404.519C100.081 407.437 101.046 409.251 102.353 410.157C103.682 411.078 105.233 410.973 106.594 410.35C107.949 409.73 109.178 408.576 109.971 407.263C110.76 405.957 111.166 404.412 110.727 403.028L109.773 403.33C110.093 404.339 109.821 405.578 109.115 406.746C108.414 407.906 107.331 408.913 106.178 409.441C105.031 409.966 103.876 409.996 102.923 409.335C101.947 408.659 101.054 407.175 100.654 404.378L99.6639 404.519ZM110.727 403.028C109.959 400.604 109.179 399.547 108.304 397.611C107.409 395.633 106.32 392.572 104.827 385.891L103.851 386.109C105.352 392.823 106.459 395.958 107.393 398.023C108.346 400.132 109.024 400.966 109.773 403.33L110.727 403.028ZM62.0612 349.493C62.4347 353.034 64.4999 357.197 66.8922 360.732C69.2826 364.263 72.0749 367.277 73.9949 368.477L74.5249 367.629C72.7827 366.54 70.0848 363.664 67.7203 360.171C65.3577 356.68 63.4032 352.682 63.0557 349.388L62.0612 349.493ZM118.031 264.423C119.01 265.259 119.726 266.503 120.283 267.944C120.838 269.382 121.218 270.969 121.552 272.461L122.528 272.242C122.194 270.751 121.801 269.098 121.216 267.583C120.632 266.072 119.84 264.653 118.68 263.663L118.031 264.423ZM112.263 385.934C111.225 378.054 110.193 372.51 109.141 368.671C108.095 364.856 107.009 362.64 105.804 361.508L105.12 362.237C106.106 363.164 107.136 365.138 108.177 368.936C109.211 372.71 110.236 378.201 111.272 386.065L112.263 385.934ZM104.827 385.891C104.206 383.114 103.724 380.304 103.26 377.483C102.796 374.666 102.351 371.836 101.805 369.038C100.714 363.44 99.2168 357.931 96.3399 352.794L95.4674 353.282C98.2685 358.284 99.7408 363.673 100.824 369.229C101.365 372.008 101.808 374.819 102.273 377.645C102.737 380.468 103.224 383.302 103.851 386.109L104.827 385.891ZM100.785 363.017C103.98 362.618 106.995 359.839 107.576 356.644L106.592 356.466C106.091 359.219 103.434 361.679 100.661 362.025L100.785 363.017ZM52.104 375.796C54.3726 375.16 58.2895 374.419 61.9 372.756C65.5297 371.083 68.969 368.432 70.266 363.898L69.3046 363.623C68.1201 367.764 64.9768 370.237 61.4815 371.847C57.967 373.467 54.2165 374.165 51.834 374.833L52.104 375.796ZM73.9221 368.421C74.892 369.31 76.5108 370.683 78.4149 372.36L79.0759 371.609C77.1461 369.91 75.5602 368.566 74.5978 367.684L73.9221 368.421ZM78.4149 372.36C83.3438 376.701 90.2789 383.168 93.8572 389.383L94.7238 388.884C91.052 382.506 83.9924 375.94 79.0759 371.609L78.4149 372.36ZM51.469 375.315C51.469 375.962 51.7886 376.596 52.274 377.163C52.7646 377.736 53.4606 378.284 54.3069 378.771C56.001 379.745 58.3574 380.505 61.0625 380.704C66.49 381.105 73.3439 379.249 79.1295 372.305L78.3613 371.665C72.7924 378.348 66.2581 380.085 61.136 379.707C58.5663 379.518 56.3576 378.796 54.8053 377.904C54.0284 377.457 53.4308 376.976 53.0337 376.512C52.6313 376.042 52.469 375.632 52.469 375.315H51.469Z" fill="black"/>
<path d="M123.724 215.196C121.121 214.22 116.623 214.383 114.86 215.196C117.278 217.586 122.128 222.942 122.188 225.243C122.264 228.119 121.768 232.284 125.022 234.846C127.625 236.895 129.577 238.348 130.433 238.582L129.01 235.319V229.496C129.01 229.496 131.382 233.43 132.06 232.278C132.738 231.125 134.012 228.007 133.687 224.754C133.28 220.687 126.978 216.416 123.724 215.196Z" fill="#FF641E" fill-opacity="0.5"/>
<path d="M95.8666 252.894C89.301 251.607 87.3378 244.312 87.1769 240.825L85.5911 242.068C84.7841 242.338 83.2955 242.566 82.0682 242.068C81.493 241.835 80.1243 241.23 79.7609 240.607C78.3374 238.167 77.2008 231.35 79.7609 227.014C83.0464 221.45 86.5142 217.645 90.988 217.442C95.4618 217.238 99.5235 214.789 103.184 215.196C105.777 215.442 108.916 216.386 109.445 216.254C110.19 216.068 118.478 224.822 118.385 228.268C118.292 231.714 123.384 237.446 123.384 238.572C123.384 239.699 119.522 242.113 117.43 242.434C115.338 242.756 117.43 247.906 117.43 250.802C117.43 253.699 113.407 257.722 111.798 257.722C110.189 257.722 104.074 254.504 95.8666 252.894Z" fill="#FF641E" fill-opacity="0.5"/>
<path d="M114.915 230.39C114.478 229.515 111.574 229.418 110.177 229.479C109.174 228.567 114.004 225.287 115.462 227.018C116.92 228.75 115.462 231.484 114.915 230.39Z" fill="black"/>
<path d="M128.805 230.259C128.485 229.618 127.365 228.212 126.342 228.257C125.609 227.59 128.029 226.37 129.096 227.637C130.164 228.904 129.205 231.059 128.805 230.259Z" fill="black"/>
<path d="M139.113 244.771C137.117 242.194 124.302 236.977 122.934 231.304" stroke="black"/>
<ellipse cx="110.932" cy="233.654" rx="1.70418" ry="2.24993" transform="rotate(12.1435 110.932 233.654)" fill="black"/>
<ellipse cx="127.728" cy="233.215" rx="1.04419" ry="2.24993" transform="rotate(6.01549 127.728 233.215)" fill="black"/>
<path d="M106.399 249.119C110.74 257.387 123.556 259.778 128.258 258.897C132.959 258.015 136.475 255.229 137.577 254.433" stroke="black"/>
<path d="M132.245 254.862C130.427 248.18 130.61 245.654 130.61 245.654C130.61 243.247 137.266 242.856 139.367 243.552C141.469 244.249 141.78 246.458 141.678 248.751C141.562 251.362 140.469 253.515 138.169 254.862C136.454 255.866 132.766 256.779 132.245 254.862Z" fill="black"/>
<path d="M112.312 263.077C90.9241 268.044 79.426 256.598 77.1838 251.021C72.5484 251.021 72.7217 254.94 73.2966 256.435C85.7152 277.995 109.57 272.046 114.744 269.459C119.389 267.136 118.272 261.314 112.312 263.077Z" fill="#FF641E"/>
<path d="M81.0188 241.73C85.2632 244.13 89.4897 239.115 90.8322 234.5C92.5104 228.732 89.4022 223.391 94.0948 220.344C94.585 220.026 96.3616 219.049 96.7231 218.8M122.75 217.827C124.067 219.051 126.877 222.069 127.58 224.352M127.58 261.198C121.902 262.8 115.388 262.466 109.116 260.749" stroke="black"/>
<path d="M140.307 277.481C138.999 280.664 138.714 281.415 136.89 284.582C135.678 287.97 132.209 288.813 130.461 290.339L140.307 318.116C146.4 311.136 157.393 306.309 160.209 305.693C163.887 304.889 171.124 304.038 174.584 302.457C178.239 300.792 180.453 297.559 183.665 295.286C184.454 294.724 186.328 294.154 186.502 293.41C188.226 292.348 188.278 291.458 188.769 289.476C189.181 287.877 188.355 285.2 188.769 283.648C189.232 281.939 189.821 280.08 190.341 278.344C190.889 276.5 191.16 275.938 190.971 274.026C190.855 272.829 189.945 270.191 189.285 269.516C189.708 268.79 190.572 267.756 190.971 267.021C192.569 264.101 191.467 260.975 187.366 261.743C187.849 261.025 188.841 259.915 189.285 259.152C190.589 256.95 190.259 254.231 188.107 253.161C185.724 251.976 183.118 253.086 181.811 255.241C181.17 255.356 180.501 255.602 179.848 256.071C174.291 259.991 168.367 262.862 161.979 264.807C154.912 265.96 154.653 259.248 155.407 255.748C151.837 258.629 148.512 261.655 145.785 265.991C141.59 269.934 140.26 275.502 140.307 277.481Z" fill="white"/>
<path d="M133.864 288.667C144.554 275.091 136.163 277.045 146.68 264.745C150.336 260.469 153.27 257.854 155.739 255.827" stroke="black" stroke-linejoin="bevel"/>
<path d="M176.173 270.505C178.583 269.29 182.1 267.327 187.315 261.682C192.531 256.037 188.789 249.972 182.708 254.53C178.538 257.648 164.063 266.625 158.307 265.161C154.722 263.048 154.703 258.582 155.141 256.613" stroke="black" stroke-linejoin="bevel"/>
<path d="M189.264 261.857C191.218 262.8 193.182 262.667 189.761 269.182C186.341 275.698 184.818 275.707 184.383 278.523" stroke="black" stroke-linejoin="bevel"/>
<path d="M190.885 272.343C191.33 280.486 189.164 279.192 188.802 283.078C188.439 286.965 190.62 290.562 185.509 294.263C179.891 298.329 173.853 304.738 165.263 305.049C154.153 305.46 146.344 313.962 139.927 318.614" stroke="black" stroke-linejoin="bevel"/>
<path d="M151.161 315.389C141.863 314.255 134.147 288.26 133.169 283.385C133.169 283.385 89.9052 291.481 64.821 302.21C59.7025 304.399 52.3041 307.942 52.3041 307.942L29.546 357.607L64.3205 358.461L83.8897 351.865C83.8897 351.865 99.3922 347.851 105.306 344.582C129.566 331.171 151.161 315.389 151.161 315.389Z" fill="black"/>
<path d="M133.169 283.385C134.147 288.26 141.863 314.255 151.161 315.389M133.169 283.385C133.169 283.385 89.9052 291.481 64.821 302.21C59.7025 304.399 52.3041 307.942 52.3041 307.942L29.546 357.607L64.3205 358.461L83.8897 351.865C83.8897 351.865 99.3922 347.851 105.306 344.582C129.566 331.171 151.161 315.389 151.161 315.389M133.169 283.385C134.731 282.269 135.225 282.029 136.805 284.054M151.161 315.389C152.07 314.957 153.924 312.501 151.868 310.769" stroke="black"/>
<path d="M123.538 273.264C120.071 272.812 115.561 278.729 113.739 281.744L117.187 285.273C120.634 287.761 118.704 291.787 117.187 300.552C115.67 309.318 126.458 307.632 128.626 302.575C130.361 298.53 129.349 287.002 128.626 281.744C128.375 279.106 127.006 273.716 123.538 273.264Z" fill="white"/>
<path d="M99.8847 285.273C96.7777 281.871 84.5589 278.779 79.7993 279.771L88.5821 289.518C94.7109 293.651 92.4304 297.215 93.5706 306.337C94.4828 313.634 100.743 312.586 103.761 309.852C106.514 307.359 103.761 289.518 99.8847 285.273Z" fill="white"/>
<path d="M113.739 281.744C115.561 278.729 120.071 272.812 123.538 273.264C127.006 273.716 128.375 279.106 128.626 281.744C129.349 287.002 130.361 298.53 128.626 302.575C126.458 307.632 115.67 309.318 117.187 300.552C118.704 291.787 120.634 287.761 117.187 285.273M79.7993 279.771C84.5589 278.779 94.1675 279.014 99.8847 285.273C103.761 289.518 106.514 307.359 103.761 309.852C100.743 312.586 94.4828 313.634 93.5706 306.337C92.4304 297.215 93.9616 292.623 89.3687 291.659" stroke="black"/>
</svg>
