<svg width="67" height="63" viewBox="0 0 67 63" fill="none" xmlns="http://www.w3.org/2000/svg">
<path d="M22.6982 1.25887C15.8042 0.799283 9.22944 4.76968 6.80379 6.81232L3.8038 20.1995C3.8038 20.1995 -0.538937 43.1628 0.616748 54.1047C0.960451 57.3588 3.09943 59.5191 3.09943 59.5191C4.15156 59.3087 6.44821 59.0141 7.96328 59.5191C9.85712 60.1504 10.8991 62.9147 13.5285 62.6539C21.8421 61.8295 25.5027 60.1205 26.9951 59.5191C28.4876 58.9177 34.3691 60.73 36.3306 60.73C38.2922 60.73 40.4172 59.9228 41.2345 59.5191C46.4226 57.3998 57.481 52.4788 60.2101 49.7497C62.9392 47.0206 63.7636 44.1352 63.8347 43.0336C63.7636 42.3585 63.2803 40.9868 61.9158 40.9015L64.7941 37.1704C66.1444 34.6474 67.6724 29.6227 62.9818 29.708C63.6925 27.3272 64.3265 22.4612 59.6359 23.1435C53.9267 23.9739 54.1336 25.5504 48.1638 26.6165C44.1759 27.3286 26.8127 28.7675 19.8984 21.9886C18.9652 19.6036 17.6587 14.6905 19.8984 14.118C22.1382 13.5456 23.3902 11.7432 23.8544 10.9234L22.6982 1.25887Z" fill="white"/>
<path d="M2.83081 59.5192C3.88294 59.3088 5.89168 59.0142 7.40675 59.5192C9.30059 60.1505 11.1226 62.7279 14.4529 62.3976C20.2483 61.8228 23.8849 60.8369 25.2492 60.077M61.9157 40.9016C63.2803 40.9869 63.7635 42.3585 63.8346 43.0337C63.7635 44.1353 62.9391 47.0207 60.21 49.7498C59.3431 50.6168 57.6355 51.705 55.5426 52.8542M61.9157 40.9016L64.7941 37.1704C66.1444 34.6475 67.6724 29.6228 62.9818 29.7081M61.9157 40.9016C55.6452 44.0407 48.1637 49.7498 43.2769 50.4918C35.8589 51.6182 25.2085 49.5601 18.1305 49.7498M62.9818 29.7081C63.6925 27.3273 64.3265 22.4613 59.6359 23.1436C53.9266 23.974 54.1336 25.5505 48.1637 26.6166C44.1758 27.3287 26.8126 28.7676 19.8984 21.9887C18.9651 19.6037 17.9884 15.4205 19.8984 14.1181C21.8303 12.8008 22.5323 12.2226 23.5338 11.3033L22.9976 1.20219C16.9528 0.799212 10.9617 3.82754 7.90116 5.97613M62.9818 29.7081C51.3352 40.6502 36.1527 39.4686 21.276 37.9884M13.5285 55.6451C17.068 56.9104 26.9951 59.5192 26.9951 59.5192C26.9951 59.5192 34.369 60.7301 36.3306 60.7301C38.2921 60.7301 40.4171 59.9228 41.2344 59.5192C43.8816 58.4378 48.0571 56.6271 51.8746 54.7502" stroke="black"/>
</svg>
