<svg width="69" height="72" viewBox="0 0 69 72" fill="none" xmlns="http://www.w3.org/2000/svg">
<path d="M13.3066 29.4806C11.9988 32.6639 11.7135 33.415 9.89025 36.5818C8.67799 39.9701 5.20853 40.8126 3.46084 42.3395L13.3066 70.1162C19.4003 63.1358 30.3928 58.3092 33.2089 57.6932C36.8867 56.8887 44.1242 56.0378 47.584 54.4567C51.2388 52.7915 53.4527 49.5586 56.6648 47.2856C57.4535 46.7243 59.3284 46.1542 59.5023 45.4102C61.2256 44.3484 61.2779 43.4579 61.7694 41.4757C62.1807 39.8769 61.355 37.1996 61.7694 35.6479C62.2323 33.9393 62.8207 32.0803 63.3408 30.3442C63.8889 28.4999 64.1599 27.9384 63.9711 26.0259C63.8545 24.8291 62.9452 22.1915 62.2852 21.5158C62.7084 20.7902 63.5723 19.7565 63.9712 19.0208C65.5686 16.1014 64.4668 12.9754 60.3659 13.7431C60.8487 13.0253 61.8408 11.9146 62.2852 11.1521C63.5886 8.94951 63.2589 6.23127 61.1075 5.1606C58.7239 3.97576 56.118 5.08558 54.8114 7.24116C54.1695 7.35556 53.5012 7.60167 52.848 8.07117C47.2909 11.9914 41.3673 14.8617 34.9793 16.8067C27.9118 17.9599 27.6528 11.2481 28.4067 7.7481C24.8372 10.6294 21.5117 13.6554 18.7849 17.9912C14.5895 21.9345 13.2605 27.5016 13.3066 29.4806Z" fill="white"/>
<path d="M6.86393 40.6666C17.5538 27.091 9.16336 29.0454 19.6799 16.7454C23.3362 12.4692 26.2702 9.854 28.739 7.82715" stroke="black" stroke-linejoin="bevel"/>
<path d="M49.1733 22.505C51.5831 21.2904 55.0997 19.3275 60.3154 13.6823C65.5311 8.03716 61.789 1.9719 55.7082 6.53003C51.5377 9.64757 37.0635 18.6254 31.3066 17.1614C27.722 15.0478 27.7027 10.5816 28.1412 8.61279" stroke="black" stroke-linejoin="bevel"/>
<path d="M62.2644 13.8574C64.2182 14.7998 66.1816 14.6666 62.7612 21.1822C59.3407 27.6977 57.8177 27.7065 57.3827 30.5235" stroke="black" stroke-linejoin="bevel"/>
<path d="M63.8845 24.3425C64.3305 32.4857 62.1639 31.1916 61.8015 35.0785C61.4391 38.9654 63.62 42.5617 58.5087 46.2627C52.8906 50.3288 46.8527 56.7384 38.2633 57.0492C27.1532 57.4601 19.3437 65.9623 12.9268 70.6141" stroke="black" stroke-linejoin="bevel"/>
</svg>
