<svg width="72" height="100" viewBox="0 0 72 100" fill="none" xmlns="http://www.w3.org/2000/svg">
<path d="M5.39519 78.1331C6.28102 83.4914 5.39519 88.2178 5.39519 92.0402L28.8683 98.8116C28.8683 93.4168 29.2105 82.1535 30.5789 80.2588C31.9473 78.364 39.3671 67.4139 42.9059 62.1757C49.2552 56.673 59.6258 40.6937 57.721 38.5891C56.1972 36.9053 52.1641 38.7809 50.2852 39.9291L13.368 45.0227C19.5157 41.5199 17.5975 39.2741 15.8699 38.5891L17.4497 35.2829C26.7713 34.7858 23.2284 28.0451 19.9803 28.0451L21.7134 25.0989C28.3425 23.7521 26.1093 19.6227 23.2284 18.2437C22.3049 17.8017 18.9216 18.9002 17.4497 19.2682C15.9778 19.6362 13.5399 24.3144 12.5049 26.8443C11.47 29.3742 12.5049 30.8691 12.5049 30.8691C11.585 31.1451 9.66504 33.3675 8.66842 34.7858C7.6718 36.204 7.48799 39.9291 7.48799 39.9291C6.22305 40.0441 1.40165 47.3847 1.40173 51.2394C1.40194 60.6264 1.66267 61.7564 2.70559 67.319C3.74852 72.8817 4.81454 74.6207 5.39519 78.1331Z" fill="white"/>
<path d="M17.4498 19.2682C18.9217 18.9002 22.305 17.8017 23.2285 18.2437C26.1094 19.6227 28.3426 23.7521 21.7136 25.0989M17.4498 25.519C19.1629 25.4807 20.5701 25.3312 21.7136 25.0989M21.7136 25.0989L19.9804 28.0451C23.2285 28.0451 26.7714 34.7858 17.4498 35.2829L15.8701 38.5891C17.5976 39.2741 19.5158 41.5199 13.3681 45.0227M3.26473 45.4612C2.2169 47.4802 1.7381 48.8925 1.40186 51.2394C0.384964 58.3372 1.66279 61.7564 2.70572 67.319C3.74864 72.8817 4.81466 74.6207 5.39531 78.1331C6.28114 83.4914 5.39531 88.2178 5.39531 92.0402L28.8685 98.8116C28.8685 93.4168 29.2106 82.1535 30.579 80.2588C31.9475 78.364 39.3672 67.4139 42.906 62.1757C49.2553 56.673 59.626 40.6937 57.7211 38.5891C56.9514 37.7385 55.5414 37.7962 54.0922 38.2096" stroke="black"/>
<path d="M25.8831 14.0689C25.8829 10.7231 25.9745 4.24137 31.3401 2.51877C31.7704 2.38063 32.2586 2.22504 32.7091 2.19408C32.7091 2.19408 34.2661 0.888306 36.9861 0.888306C39.706 0.888306 57.4074 2.19408 63.6069 18.9441C64.105 20.2901 63.5547 21.4104 63.2693 22.6035C63.6567 24.611 63.2717 28.3624 59.2144 29.1231L25.8831 14.0689Z" fill="white"/>
<path d="M63.2693 22.6035C63.6567 24.611 63.2717 28.3624 59.2144 29.1231L25.8831 14.0689C25.8829 10.7231 25.9745 4.24137 31.3401 2.51876C31.7704 2.38063 32.2586 2.22504 32.7091 2.19408M63.2693 22.6035C59.2611 6.2701 40.9895 1.62514 32.7091 2.19408M63.2693 22.6035C63.5547 21.4104 64.105 20.2901 63.6069 18.9441C57.4074 2.19408 39.706 0.888306 36.9861 0.888306C34.2661 0.888306 32.7091 2.19408 32.7091 2.19408" stroke="black"/>
<g filter="url(#filter0_d_427_4511)">
<path d="M37.9384 60.1656C36.2415 63.5463 29.3329 63.5098 22.5076 60.084C15.6823 56.6582 11.5249 51.1404 13.2217 47.7597L27.5549 9.37578C28.965 6.5372 34.5685 2.12517 45.7018 7.18579C59.3883 13.4069 62.3043 20.3138 60.7535 25.8193C60.7016 26.0035 60.6176 26.1767 60.5113 26.3359L37.9384 60.1656Z" fill="#FF641E"/>
<path d="M37.5225 59.8881L37.5053 59.9138L37.4915 59.9413C36.7749 61.369 34.8839 62.1917 32.1488 62.1773C29.4486 62.163 26.0908 61.323 22.7319 59.6371C19.373 57.9512 16.6931 55.7606 15.0682 53.604C13.4223 51.4196 12.952 49.4117 13.6686 47.984L13.6807 47.9599L13.6901 47.9346L28.014 9.57564C28.6621 8.28929 30.2968 6.584 33.1161 5.80032C35.9448 5.014 40.0067 5.14633 45.4949 7.64097C52.2953 10.7321 56.3577 13.9669 58.5327 17.0586C60.6947 20.1318 61.0056 23.0801 60.2722 25.6837C60.2364 25.811 60.1765 25.9368 60.0954 26.0584L37.5225 59.8881Z" stroke="black"/>
</g>
<path d="M8.66835 34.7858C7.67173 36.204 7.48792 39.9291 7.48792 39.9291C8.9059 41.6269 12.0671 45.0227 13.3679 45.0227C19.5156 41.5199 17.5974 39.2741 15.8699 38.5891L17.4496 35.2829C26.7712 34.7858 23.2283 28.0451 19.9802 28.0451L21.7134 25.0989C28.3425 23.7521 26.1092 19.6227 23.2283 18.2437C22.3048 17.8017 18.9215 18.9002 17.4496 19.2682C15.9777 19.6362 13.5398 24.3144 12.5049 26.8443C11.4699 29.3742 12.5049 30.8691 12.5049 30.8691C11.5849 31.1451 9.66497 33.3675 8.66835 34.7858Z" fill="white"/>
<path d="M17.4496 25.519C19.1627 25.4807 20.5699 25.3312 21.7134 25.0989M21.7134 25.0989C28.3425 23.7521 26.1092 19.6227 23.2283 18.2437C22.3048 17.8017 19.484 18.2126 17.4496 19.2682C13.9957 21.0604 12.5518 25.0956 12.2168 28.9242M21.7134 25.0989L19.9802 28.0452M19.9802 28.0452C23.2283 28.0452 26.7712 34.7858 17.4496 35.2829L15.8699 38.5891M19.9802 28.0452C17.635 28.3205 11.6947 29.8388 9.51892 34.0038C8.75778 35.2211 7.2023 38.1292 7.06945 40.0237M15.8699 38.5891C17.5974 39.2742 19.5156 41.52 13.3679 45.0227C12.3196 45.1916 9.94991 45.4281 8.85774 45.0227M15.8699 38.5891C13.4183 38.5875 7.92466 39.3458 5.56243 42.3918C4.97311 43.0623 3.58472 44.8017 2.74579 46.3957M10.2248 45.7836C10.6792 46.9863 11.2176 49.7232 9.73537 51.0494M8.20858 56.9743C10.037 56.6818 12.8824 54.6093 12.8824 52.581M19.9802 74.8034C17.3381 71.8529 19.0809 65.638 22.0249 62.7616" stroke="black"/>
<defs>
<filter id="filter0_d_427_4511" x="2.84253" y="0.873535" width="68.2867" height="77.804" filterUnits="userSpaceOnUse" color-interpolation-filters="sRGB">
<feFlood flood-opacity="0" result="BackgroundImageFix"/>
<feColorMatrix in="SourceAlpha" type="matrix" values="0 0 0 0 0 0 0 0 0 0 0 0 0 0 0 0 0 0 127 0" result="hardAlpha"/>
<feOffset dy="6"/>
<feGaussianBlur stdDeviation="5"/>
<feComposite in2="hardAlpha" operator="out"/>
<feColorMatrix type="matrix" values="0 0 0 0 1 0 0 0 0 0.392157 0 0 0 0 0.117647 0 0 0 1 0"/>
<feBlend mode="normal" in2="BackgroundImageFix" result="effect1_dropShadow_427_4511"/>
<feBlend mode="normal" in="SourceGraphic" in2="effect1_dropShadow_427_4511" result="shape"/>
</filter>
</defs>
</svg>
