<svg width="273" height="568" viewBox="0 0 273 568" fill="none" xmlns="http://www.w3.org/2000/svg">
<path d="M47.9556 106.023C47.9554 102.678 48.047 96.1958 53.4126 94.4732C53.8429 94.3351 54.3311 94.1795 54.7817 94.1486C54.7817 94.1486 56.3386 92.8428 59.0586 92.8428C61.7785 92.8428 79.4799 94.1485 85.6794 110.899C86.1776 112.245 85.6272 113.365 85.3418 114.558C85.7292 116.565 85.3442 120.317 81.2869 121.078L47.9556 106.023Z" fill="white"/>
<path d="M85.3418 114.558C85.7292 116.565 85.3442 120.317 81.2869 121.078L47.9556 106.023C47.9554 102.678 48.047 96.1958 53.4126 94.4732C53.8429 94.3351 54.3311 94.1795 54.7817 94.1486M85.3418 114.558C81.3336 98.2246 63.062 93.5796 54.7817 94.1486M85.3418 114.558C85.6272 113.365 86.1776 112.245 85.6794 110.899C79.4799 94.1485 61.7785 92.8428 59.0586 92.8428C56.3386 92.8428 54.7817 94.1486 54.7817 94.1486" stroke="black"/>
<g filter="url(#filter0_d_665_1663)">
<path d="M60.3043 152.039C58.6074 155.419 50.2092 154.89 43.3839 151.465C36.5586 148.039 33.513 142.964 35.2099 139.583L49.6274 101.33C51.0374 98.4919 56.6409 94.0799 67.7743 99.1405C81.4648 105.363 84.3784 112.273 82.8246 117.779C82.7735 117.96 82.6913 118.13 82.5877 118.287L60.3043 152.039Z" fill="#FF641E"/>
<path d="M37.9065 138.181C39.3712 142.442 49.1552 151.544 59.8133 149.661M35.6567 139.808C35.977 139.17 36.5619 138.736 37.4406 138.363C37.804 139.407 38.596 140.653 39.6808 141.922C40.9824 143.444 42.7508 145.051 44.8477 146.452C48.9144 149.169 54.2769 151.149 59.906 150.153C60.0379 150.866 60.0942 151.343 59.8574 151.814C59.5138 152.499 58.807 153.034 57.7483 153.382C56.6913 153.729 55.334 153.872 53.789 153.805C50.7008 153.67 46.9635 152.702 43.6082 151.018C40.2516 149.333 37.8603 147.26 36.518 145.231C35.1723 143.197 34.9178 141.28 35.6567 139.808ZM40.4408 141.272C39.3756 140.026 38.6801 138.888 38.3824 138.028C39.734 137.647 41.4769 137.595 43.4489 137.903C45.6354 138.244 48.0696 139.023 50.5007 140.243C53.1027 141.549 55.3007 143.16 56.9157 144.825C58.3622 146.317 59.3141 147.825 59.698 149.174C54.4179 150.097 49.3307 148.244 45.4033 145.62C43.3805 144.269 41.6814 142.723 40.4408 141.272ZM37.6026 137.228C37.1936 137.375 36.8024 137.538 36.442 137.732L50.0861 101.531C50.734 100.245 52.3688 98.5388 55.1885 97.755C58.0172 96.9687 62.0792 97.101 67.5674 99.5957C74.3697 102.688 78.4325 105.923 80.607 109.016C82.7686 112.09 83.0782 115.039 82.3434 117.643C82.3081 117.768 82.2496 117.892 82.1704 118.012L60.9307 150.182C60.9048 150.032 60.8757 149.885 60.8473 149.741C60.8295 149.651 60.8121 149.562 60.7958 149.475C60.4713 147.741 59.328 145.877 57.6337 144.129C55.9318 142.374 53.6395 140.699 50.9493 139.349C48.435 138.087 45.902 137.273 43.6031 136.915C41.3114 136.557 39.2178 136.646 37.6026 137.228Z" stroke="black"/>
</g>
<defs>
<filter id="filter0_d_665_1663" x="24.749" y="92.8281" width="68.4526" height="77.4927" filterUnits="userSpaceOnUse" color-interpolation-filters="sRGB">
<feFlood flood-opacity="0" result="BackgroundImageFix"/>
<feColorMatrix in="SourceAlpha" type="matrix" values="0 0 0 0 0 0 0 0 0 0 0 0 0 0 0 0 0 0 127 0" result="hardAlpha"/>
<feOffset dy="6"/>
<feGaussianBlur stdDeviation="5"/>
<feComposite in2="hardAlpha" operator="out"/>
<feColorMatrix type="matrix" values="0 0 0 0 1 0 0 0 0 0.392157 0 0 0 0 0.117647 0 0 0 1 0"/>
<feBlend mode="normal" in2="BackgroundImageFix" result="effect1_dropShadow_665_1663"/>
<feBlend mode="normal" in="SourceGraphic" in2="effect1_dropShadow_665_1663" result="shape"/>
</filter>
</defs>
</svg>
