<svg width="424" height="622" viewBox="0 0 424 622" fill="none" xmlns="http://www.w3.org/2000/svg">
<path d="M116.242 410.893L111.037 428.82L119.712 501.109L149.206 584.386L211.085 557.205L256.771 453.11L270.651 406.845L242.314 387.76L125.495 398.748L116.242 410.893Z" fill="white" stroke="black"/>
<path d="M158.592 502.873L179.055 440.552M158.592 411.718L169.754 434.041M179.055 428.436L206.032 411.718" stroke="black"/>
<path d="M268.659 466.802L277.687 461.307C286.06 456.204 304.299 445.921 310.265 445.607C317.723 445.214 327.928 475.437 327.928 482.11L327.928 502.52C337.976 517.906 336.04 529.08 333.815 532.743C323.218 540.331 301.08 556.45 297.312 560.218C292.602 564.928 274.155 565.321 261.594 560.218C251.546 556.136 252.436 534.967 254.137 524.893L268.659 466.802Z" fill="white" stroke="black"/>
<path d="M277.679 461.906C279.028 461.424 285.515 462.358 288.753 466.289M295.674 451.755C297.409 451.658 304.903 453.6 307.556 457.176M269.02 467.31C273.549 468.37 283.417 474.248 286.655 489.281C290.702 508.072 293.015 509.228 301.109 508.65C307.585 508.187 321.731 497.857 327.994 492.75M286.655 564.014C291.763 562.247 300.938 550.987 296.773 520.084" stroke="black"/>
<path d="M280.989 431.507C277.835 433.427 278.258 452.013 278.486 461.099L286.215 463.636C286.215 455.293 286.715 437.096 288.361 433.393C290.418 428.764 292.133 434.079 295.218 435.107C297.687 435.93 297.504 446.536 297.104 451.736C297.618 452.022 301.115 452.229 303.172 453.601C306.18 455.606 305.162 451.393 305.162 446.765C305.162 442.136 301.904 433.564 299.676 427.907C297.447 422.25 284.932 429.107 280.989 431.507Z" fill="black" stroke="black"/>
<path d="M280.685 431.455C278.369 429.525 279.72 418.103 280.685 412.634C294.143 409.97 301.453 413.743 303.427 415.963L300.437 429.679L297.773 431.455C297.279 432.911 295.55 435.822 292.586 435.822C289.621 435.822 287.645 432.911 287.027 431.455C285.878 432.26 283.001 433.386 280.685 431.455Z" fill="white"/>
<path d="M288.656 417.897L288.656 429.679M297.773 421.062L297.773 428.096M280.685 412.634C279.72 418.103 278.369 429.525 280.685 431.455C283.001 433.386 285.878 432.26 287.027 431.455C287.645 432.911 289.621 435.822 292.586 435.822C295.55 435.822 297.279 432.911 297.773 431.455L300.437 429.679L303.427 415.963C301.453 413.743 294.143 409.97 280.685 412.634Z" stroke="black"/>
<path d="M218.873 160.229C205.006 176.407 185.557 164.391 176.409 158.613L127.874 224.747L147.614 315.746L147.614 407.708C156.858 403.086 209.564 401.931 234.761 401.931L250.65 237.747L234.761 152.044L215.831 148.262L218.873 160.229Z" fill="black" stroke="black"/>
<path d="M219.827 157.676C221.606 158.758 222.61 161.71 220.783 164.634C205.623 188.909 182.659 184.092 175.52 174.716C174.783 173.33 174.059 170.292 177.062 169.232M155.45 392.769C174.212 391.256 214.005 388.684 223.084 390.5" stroke="white"/>
<path d="M134.889 167.034C129.738 172.84 106.639 187.93 95.7334 194.75L107.871 207.107L95.0766 232.776L91.9711 245.013L84.5665 261.356L80.2771 300.21L106.678 310.627C105.725 349.084 106.387 370.319 104.967 382.577C103.219 389.221 101.155 393.161 100.694 396.013L99.3879 436.561L140.762 442.294L157.272 371.564L170.693 274.712L165.506 232.304L163.823 189.424L177.997 159.762L178.901 135.644L163.384 137.841C156.032 145.153 140.04 161.228 134.889 167.034Z" fill="white"/>
<path d="M288.414 188.309C281.946 184.804 256.914 154.243 245.207 139.4C245.207 139.4 223.937 134.893 217.159 139.4C205.326 147.268 227.775 153.928 227.775 153.928L233.846 173.884L236.3 203.68C229.693 204.335 226.807 220.918 226.191 229.127L212.961 260.83L222.534 340.542L229.834 397.684L240.197 456.073L280.331 442.676L280.733 416.663L308.531 424.814L317.209 404.228L322.526 365.859L328.844 355.274L322.783 289.237L317.109 279.214L308.346 240.512L288.414 188.309Z" fill="white"/>
<path d="M134.889 167.034C129.738 172.84 106.639 187.93 95.7334 194.75L107.871 207.107L95.0766 232.776L91.9711 245.013L84.5665 261.356L80.2771 300.21L106.678 310.627C105.725 349.084 106.387 370.319 104.967 382.578C103.219 389.221 101.155 393.161 100.694 396.013L99.3879 436.561L140.762 442.294L157.272 371.564L170.693 274.712L165.506 232.304L163.823 189.424L177.997 159.762L178.901 135.644L163.384 137.841C156.032 145.153 140.04 161.228 134.889 167.034Z" fill="#FF641E" fill-opacity="0.5"/>
<path d="M288.414 188.309C281.946 184.804 256.914 154.243 245.207 139.4C245.207 139.4 223.937 134.893 217.159 139.4C205.326 147.268 227.775 153.928 227.775 153.928L233.846 173.884L236.3 203.68C229.693 204.335 226.807 220.918 226.191 229.127L212.961 260.83L222.534 340.542L229.834 397.684L240.197 456.073L280.331 442.676L280.733 416.663L308.531 424.814L317.209 404.228L322.526 365.859L328.844 355.274L322.783 289.237L317.109 279.214L308.346 240.512L288.414 188.309Z" fill="#FF641E" fill-opacity="0.5"/>
<path d="M245.207 139.4C256.914 154.243 281.946 184.804 288.414 188.309L308.346 240.512L317.109 279.214L322.783 289.237L328.844 355.274L322.526 365.859L317.209 404.228L308.531 424.814L280.733 416.663L280.331 442.676L240.197 456.073L229.834 397.684L222.534 340.542L212.961 260.83L226.191 229.127C226.807 220.918 229.693 204.335 236.3 203.68L233.846 173.884L227.775 153.928M100.694 396.013L99.3879 436.561L140.762 442.294L157.272 371.564L170.693 274.712L165.506 232.304L163.824 189.424L177.997 159.762L178.901 135.644L163.384 137.841C156.032 145.153 140.04 161.228 134.889 167.034C129.738 172.84 106.639 187.93 95.7335 194.75L107.871 207.107M80.2771 292.31L84.5665 261.356L91.9711 245.013L95.0766 232.776L105.249 212.368" stroke="black"/>
<path d="M96.1711 196.006C106.198 205.372 127.826 224.676 134.125 226.967C140.425 229.258 149.665 228.53 153.497 227.879L154.249 239.504C159.4 244.256 169.583 254.628 169.101 258.106M217.538 260.093C223.286 248.192 236.186 223.666 241.795 220.773C247.405 217.881 274.685 199.206 287.624 190.23M236.812 204.529C244.165 201.931 259.332 195.497 261.176 190.544M137.068 222.176C143.588 214.519 157.257 199.292 159.773 199.641M92.7932 242.807L112.381 253.281M81.9296 296.313L107.987 299.924M120.947 322.069L144.814 325.376M117.467 256.4L111.043 302.762L106.58 310.076L105.091 358.156L105.146 382.652L102.305 390.709M112.787 380.952L134.236 383.924M104.417 427.734L127.718 430.963M167.938 266.498L136.398 438.374M234.937 270.264L264.104 266.546M271.536 212.91L270.708 267.461L276.04 317.023L280.847 382.512L279.894 410.783M284.627 355.233L311.502 355.592L322.805 352.952M281.438 311.461L298.553 303.315L318.823 302.759M277.373 264.201L292.392 253.662L307.899 251.048M284.122 407.454L308.561 413.239M243.41 391.59L274.146 385.332M237.881 328.271L267.028 324.377M135.336 261.98L155.614 264.79M227.089 274.695L238.553 394.949L249.63 449.926M253.165 438.899L273.623 434.648M257.423 342.731L261.365 379.522L270.708 376.894L267.028 340.103L257.423 342.731ZM117.145 336.391L124.671 338.971L120.947 373.423L112.787 369.505L117.145 336.391Z" stroke="black"/>
<path d="M165.608 62.0864C171.896 54.6932 183.685 51.7466 189.345 51.5202L192.146 51.2302C192.146 51.2302 192.604 49.7074 192.665 48.2236C192.719 46.9126 192.334 45.4275 192.545 44.1326C192.765 42.7868 193.926 40.9257 193.926 40.9257C193.588 40.2241 192.39 38.014 190.301 34.7864C187.69 30.7519 189.615 18.8183 197.101 17.7689C203.089 16.9293 210.747 22.0105 213.827 24.656C216.908 27.3015 220.492 35.0828 224.749 43.9498C226.539 47.6792 225.542 53.1421 223.628 54.8785C222.475 55.9236 220.326 57.6174 219.366 57.6635C228.192 60.2379 232.842 76.7071 233.617 80.0588C234.974 85.9274 234.525 94.8241 233.592 101.854C238.372 108.461 233.499 113.002 230.54 119.516C228.173 124.728 222.715 126.772 220.282 127.142C215.541 138.587 217.308 153.676 219.415 160.121C219.955 161.34 219.415 165.879 214.867 169.696C193.516 187.611 179.033 177.253 177.72 172.106L176.703 154.836C167.837 155.631 164.778 148.774 164.357 145.246L161.486 137.657C159.911 131.687 156.479 118.679 155.351 114.411C154.224 110.142 156.55 102.979 157.854 99.9307L155.771 93.5297C156.218 86.2914 158.349 70.6215 165.608 62.0864Z" fill="white"/>
<path d="M198.922 72.4749C215.839 76.7039 208.109 91.339 215.839 106.912C221.304 117.923 210.401 129.603 200.723 136.817C191.458 143.724 199.847 159.161 200.723 163.451" stroke="black"/>
<path d="M157.365 76.1313C149.971 79.8908 144.77 98.8804 153.77 120.634C161.446 139.191 152.265 144.707 146.999 148.468" stroke="black"/>
<path d="M172.299 97.1563C172.704 100.85 171.819 108.897 167.431 114.464C166.23 116.014 164.699 119.88 168.802 121.784C170.748 122.687 172.258 123.165 172.442 124.525M178.497 123.459C180.288 123.115 183.014 121.18 180.818 117.306M173.464 121.394C174.566 121.258 176.925 121.11 177.544 121.609" stroke="black"/>
<path d="M189.345 51.5202C183.685 51.7466 171.896 54.6932 165.608 62.0864C161.976 66.3571 158.593 75.4712 157.097 81.3644C155.603 87.2491 155.994 89.9132 155.771 93.5297L157.854 99.9307C156.95 102.043 155.556 106.13 155.16 109.862M176.703 154.836C167.837 155.631 164.778 148.774 164.357 145.246L161.486 137.657C159.911 131.687 156.479 118.679 155.351 114.411C155.21 113.874 155.122 113.291 155.081 112.676M176.703 154.836L177.72 172.106M176.703 154.836C180.647 154.324 187.497 152.926 194.083 150.469M219.415 160.121C217.308 153.676 215.541 138.587 220.282 127.142M220.282 127.142C222.715 126.772 228.173 124.728 230.54 119.516C233.499 113.002 238.372 108.461 233.592 101.854M220.282 127.142C218.913 127.258 216.549 126.508 218.04 122.584C218.04 122.584 223.271 114.25 223.518 113.77C226.591 107.795 229.423 101.843 233.671 104.927M233.592 101.854C234.525 94.8242 234.975 85.9274 233.617 80.0588C232.842 76.7071 229.543 61.3269 220.07 57.4048M233.592 101.854C231.899 100.596 227.815 99.4812 225.018 105.092C224.489 106.366 223.312 109.604 222.835 112.367M220.07 57.4048C220.07 57.4048 222.475 55.9236 223.628 54.8786C225.542 53.1421 226.539 47.6792 224.749 43.9498C220.492 35.0828 216.908 27.3016 213.827 24.656C210.747 22.0105 203.089 16.9293 197.101 17.7689C189.615 18.8183 187.691 30.7519 190.301 34.7864C192.39 38.014 193.588 40.2241 193.926 40.9257M220.07 57.4048C217.076 55.657 201.517 52.7886 193.004 51.3786M193.926 40.9257C202.281 41.7017 219.583 45.0095 221.952 52.0323M193.926 40.9257C192.325 43.4919 192.781 45.402 192.665 48.2236C192.604 49.7074 192.146 51.2302 192.146 51.2302M216.967 128.045C215.086 134.791 210.771 139.886 208.606 141.76C205.648 144.397 202.59 146.662 198.992 148.393M221.193 117.901C227.042 115.985 227.97 112.735 230.163 113.633M207.852 25.2428C206.673 26.2429 205.948 29.0868 212.479 32.4621C219.009 35.8375 219.286 35.8586 218.608 35.4472M202.924 22.7719C199.657 22.5877 193.348 23.7693 194.244 29.9689M205.121 27.4107C202.209 26.9076 196.31 32.2449 202.06 38.8753M198.328 42.4282C197.396 45.3038 198.991 51.7777 212.113 55.0281M191.554 54.655C183.252 55.7495 180.071 62.2345 180.4 63.3363M197.888 55.7495C195.542 58.445 190.808 64.0898 190.632 65.1044M202.06 57.4048L202.06 66.6992M219.633 100.151C219.258 98.3736 219.33 96.2364 219.206 93.842C218.975 89.3809 214.534 75.7512 207.474 72.5674C204.32 71.145 180.621 66.5504 177.065 66.6992C169.119 67.0318 162.48 74.5078 158.642 79.3699M220.728 102.69C221.154 103.245 221.711 103.731 222.444 104.141C222.902 104.389 223.877 104.895 224.119 104.936" stroke="black"/>
<path d="M165.963 90.2931C162.534 89.231 157.922 90.3772 156.37 90.919C155.465 91.5315 155.577 93.5157 156.019 94.3978C159.47 91.8426 162.94 92.4789 167.45 94.6207C168.742 95.2343 170.176 94.8017 170.272 93.8531C170.391 92.6673 170.014 91.5475 165.963 90.2931Z" fill="black"/>
<path d="M195.64 90.0593C190.076 89.3871 183.185 90.3036 181.149 92.0971C180.035 93.078 179.558 95.8879 183.188 95.5965C187.724 95.2323 194.511 93.009 196.683 93.051C200.021 93.1157 204.537 95.4888 207.479 96.4983C205.851 94.632 201.205 90.7315 195.64 90.0593Z" fill="black"/>
<ellipse cx="166.044" cy="100.619" rx="2.98575" ry="2.88084" transform="rotate(9.8037 166.044 100.619)" fill="black"/>
<ellipse cx="194.171" cy="101.308" rx="2.98575" ry="2.88084" transform="rotate(9.8037 194.171 101.308)" fill="black"/>
<path d="M164.264 132.646C164.531 133.13 165.49 133.567 166.425 133.624C167.36 133.68 167.985 132.822 169.032 132.521C172.636 131.483 174.908 132.175 178.576 133.439C181.652 134.499 184.682 133.678 186.131 133.326M165.729 131.95C166.423 130.609 168.078 127.992 169.751 128.361C171.843 128.821 172.772 128.586 173.493 128.415C174.215 128.243 176.72 128.873 179.023 130.852C181.325 132.83 183.198 133.803 184.399 133.714M186.81 130.716C186.548 131.611 187.197 133.633 188.866 133.921" stroke="black"/>
<path d="M166.144 135.023C165.506 138.716 177.875 142.12 183.503 135.629M169.116 134.128C170.899 134.671 175.29 135.561 178.58 134.778" stroke="black"/>
<path d="M159.543 99.4952C161.364 97.6714 166.18 95.5097 170.869 101.452M186.523 101.652C188.537 99.5642 194.093 96.5135 200.205 101.015" stroke="black"/>
<path d="M168.615 107.551C168.67 111.173 161.08 112.666 154.948 111.537C148.815 110.408 146.342 108.442 146.664 106.689C146.987 104.936 151.955 102.677 158.567 103.895C164.7 105.023 168.937 105.798 168.615 107.551Z" fill="#FF641E" fill-opacity="0.5"/>
<path d="M198.629 107.696C198.781 111.375 191.125 113.102 184.993 111.973C178.86 110.844 175.284 108.861 175.607 107.109C175.929 105.356 182.82 102.929 189.432 104.147C195.565 105.276 198.896 106.243 198.629 107.696Z" fill="#FF641E" fill-opacity="0.5"/>
<path d="M220.66 101.391L220.699 100.892L220.621 100.886L220.545 100.904L220.66 101.391ZM145.734 105.397L145.519 104.945C145.376 105.014 145.273 105.146 145.243 105.302C145.213 105.458 145.259 105.619 145.367 105.736L145.734 105.397ZM168.615 107.551L168.123 107.46L168.114 107.509L168.115 107.558L168.615 107.551ZM198.629 107.696L198.137 107.606L198.127 107.661L198.129 107.717L198.629 107.696ZM198.248 107.21L220.775 101.877L220.545 100.904L198.018 106.237L198.248 107.21ZM220.62 101.889L225.911 102.311L225.99 101.314L220.699 100.892L220.62 101.889ZM156.35 99.8024L145.519 104.945L145.948 105.849L156.779 100.706L156.35 99.8024ZM145.367 105.736L146.165 106.602L146.9 105.924L146.101 105.058L145.367 105.736ZM168.115 107.558C168.126 108.264 167.772 108.902 167.055 109.468C166.33 110.041 165.268 110.509 163.977 110.842C161.397 111.507 158.04 111.598 155.038 111.046L154.857 112.029C157.987 112.605 161.492 112.515 164.226 111.81C165.592 111.458 166.801 110.944 167.675 110.253C168.557 109.556 169.132 108.649 169.115 107.543L168.115 107.558ZM155.038 111.046C152.001 110.486 149.92 109.728 148.653 108.925C147.368 108.111 147.051 107.35 147.156 106.779L146.173 106.598C145.955 107.78 146.714 108.88 148.118 109.769C149.539 110.67 151.762 111.459 154.857 112.029L155.038 111.046ZM147.156 106.779C147.202 106.532 147.444 106.161 148.021 105.748C148.58 105.349 149.384 104.961 150.401 104.657C152.43 104.049 155.244 103.791 158.477 104.386L158.658 103.403C155.278 102.781 152.302 103.044 150.114 103.699C149.021 104.026 148.11 104.456 147.44 104.935C146.788 105.401 146.288 105.969 146.173 106.598L147.156 106.779ZM158.477 104.386C161.556 104.953 164.113 105.423 165.864 105.966C166.743 106.239 167.366 106.515 167.743 106.798C168.105 107.071 168.157 107.277 168.123 107.46L169.106 107.641C169.234 106.947 168.877 106.4 168.344 105.999C167.825 105.609 167.066 105.292 166.16 105.011C164.339 104.446 161.71 103.965 158.658 103.403L158.477 104.386ZM198.129 107.717C198.159 108.437 197.815 109.097 197.104 109.691C196.386 110.291 195.324 110.792 194.032 111.156C191.449 111.885 188.079 112.033 185.083 111.481L184.902 112.465C188.038 113.042 191.563 112.891 194.303 112.119C195.672 111.733 196.879 111.182 197.745 110.459C198.618 109.73 199.175 108.794 199.128 107.676L198.129 107.717ZM185.083 111.481C182.044 110.922 179.671 110.156 178.112 109.333C177.331 108.92 176.783 108.508 176.454 108.124C176.128 107.743 176.054 107.439 176.098 107.199L175.115 107.018C174.998 107.655 175.25 108.256 175.695 108.775C176.138 109.291 176.806 109.774 177.645 110.217C179.327 111.106 181.809 111.895 184.902 112.465L185.083 111.481ZM176.098 107.199C176.113 107.121 176.179 106.978 176.375 106.782C176.566 106.592 176.848 106.383 177.221 106.169C177.967 105.743 179.021 105.327 180.287 104.998C182.817 104.34 186.118 104.045 189.342 104.638L189.523 103.655C186.134 103.031 182.684 103.341 180.035 104.03C178.711 104.375 177.568 104.819 176.725 105.302C176.303 105.543 175.942 105.802 175.669 106.075C175.401 106.342 175.181 106.659 175.115 107.018L176.098 107.199ZM189.342 104.638C192.41 105.203 194.738 105.721 196.261 106.27C197.027 106.546 197.543 106.815 197.845 107.069C198.134 107.314 198.16 107.481 198.137 107.606L199.121 107.787C199.231 107.185 198.941 106.686 198.49 106.305C198.05 105.934 197.4 105.618 196.6 105.329C194.991 104.749 192.587 104.219 189.523 103.655L189.342 104.638ZM167.464 107.748C168.907 107.049 172.715 106.043 176.241 107.641L176.654 106.731C172.764 104.967 168.63 106.072 167.028 106.849L167.464 107.748Z" fill="black"/>
<path d="M80.624 190.643C83.1789 188.903 85.7915 187.718 88.4088 186.983C97.1507 187.848 115.074 190.318 116.834 193.275C119.246 194.904 121.283 196.592 122.816 198.089L119.928 208.867L119.928 232.644L122.816 264.216L116.834 307.113C114.359 312.604 100.471 310.774 93.8356 309.172L80.624 300.25L77.9452 278.63L65.3518 243.968L67.4109 224.064L77.9452 199.871L80.624 190.643Z" fill="white"/>
<path d="M80.624 190.643C83.1789 188.903 85.7915 187.718 88.4088 186.983C97.1507 187.848 115.074 190.318 116.834 193.275C119.246 194.904 121.283 196.592 122.816 198.089L119.928 208.867L119.928 232.644L122.816 264.216L116.834 307.113C114.359 312.604 100.471 310.774 93.8356 309.172L80.624 300.25L77.9452 278.63L65.3518 243.968L67.4109 224.064L77.9452 199.871L80.624 190.643Z" fill="#FF641E" fill-opacity="0.5"/>
<path d="M91.003 187.949C91.8888 193.308 91.003 198.034 91.003 201.857L114.476 208.628C114.476 203.233 114.818 191.97 116.187 190.075C117.555 188.18 124.975 177.23 128.514 171.992C134.863 166.489 145.234 150.51 143.329 148.405C141.805 146.722 137.772 148.597 135.893 149.745L98.9758 154.839C105.123 151.336 103.205 149.09 101.478 148.405L103.057 145.099C112.379 144.602 108.836 137.861 105.588 137.861L107.321 134.915C113.95 133.568 111.717 129.439 108.836 128.06C107.913 127.618 104.529 128.716 103.057 129.084C101.586 129.452 99.1477 134.131 98.1127 136.661C97.0778 139.19 98.1127 140.685 98.1127 140.685C97.1928 140.961 95.2728 143.184 94.2762 144.602C93.2796 146.02 93.0958 149.745 93.0958 149.745C91.8308 149.86 87.0094 157.201 87.0095 161.056C87.0097 170.443 87.2705 171.573 88.3134 177.135C89.3563 182.698 90.4223 184.437 91.003 187.949Z" fill="white"/>
<path d="M103.057 129.084C104.529 128.716 107.913 127.618 108.836 128.06C111.717 129.439 113.95 133.568 107.321 134.915M103.057 135.335C104.771 135.297 106.178 135.147 107.321 134.915M107.321 134.915L105.588 137.861C108.836 137.861 112.379 144.602 103.057 145.099L101.478 148.405C103.205 149.09 105.123 151.336 98.9758 154.839M88.8724 155.277C87.8246 157.297 87.3458 158.709 87.0095 161.056C85.9926 168.153 87.2705 171.573 88.3134 177.135C89.3563 182.698 90.4223 184.437 91.003 187.949C91.8888 193.308 91.003 198.034 91.003 201.857L114.476 208.628C114.476 203.233 114.818 191.97 116.187 190.075C117.555 188.18 124.975 177.23 128.514 171.992C134.863 166.489 145.234 150.51 143.329 148.405C142.559 147.555 141.149 147.613 139.7 148.026" stroke="black"/>
<path d="M94.2759 144.602C93.2793 146.02 93.0955 149.745 93.0955 149.745C94.5134 151.443 97.6746 154.839 98.9755 154.839C105.123 151.336 103.205 149.09 101.477 148.405L103.057 145.099C112.379 144.602 108.836 137.861 105.588 137.861L107.321 134.915C113.95 133.568 111.717 129.439 108.836 128.06C107.912 127.618 104.529 128.716 103.057 129.084C101.585 129.452 99.1473 134.131 98.1124 136.661C97.0774 139.19 98.1124 140.685 98.1124 140.685C97.1924 140.961 95.2725 143.184 94.2759 144.602Z" fill="white"/>
<path d="M103.057 135.335C104.77 135.297 106.178 135.147 107.321 134.915M107.321 134.915C113.95 133.568 111.717 129.439 108.836 128.06C107.913 127.618 105.092 128.029 103.057 129.084C99.6034 130.877 98.1595 134.912 97.8245 138.74M107.321 134.915L105.588 137.861M105.588 137.861C108.836 137.861 112.379 144.602 103.057 145.099L101.478 148.405M105.588 137.861C103.243 138.137 97.3024 139.655 95.1266 143.82C94.3655 145.037 92.81 147.945 92.6772 149.84M101.478 148.405C103.205 149.09 105.123 151.336 98.9757 154.839C97.9273 155.008 95.5576 155.244 94.4655 154.839M101.478 148.405C99.026 148.404 93.5324 149.162 91.1702 152.208C90.5808 152.878 89.1925 154.618 88.3535 156.212M95.8325 155.6C96.287 156.802 96.8253 159.539 95.3431 160.866M93.8163 166.79C95.6447 166.498 98.4901 164.425 98.4901 162.397M105.588 184.62C102.946 181.669 104.689 175.454 107.633 172.578" stroke="black"/>
<path d="M122.816 198.088C113.771 205.297 82.8179 198.088 80.6239 190.643L77.9451 199.871C88.4962 206.091 110.865 213.665 119.928 208.867L122.816 198.088Z" fill="white"/>
<path d="M122.816 198.088C113.771 205.297 82.8179 198.088 80.6239 190.643L77.9451 199.871C88.4962 206.091 110.865 213.665 119.928 208.867L122.816 198.088Z" fill="#FF641E" fill-opacity="0.5"/>
<path d="M80.624 190.643C82.8179 198.089 113.771 205.297 122.816 198.089M80.624 190.643C83.1789 188.903 85.7915 187.718 88.4088 186.983M80.624 190.643L77.9452 199.871M122.816 198.089C121.283 196.592 119.246 194.904 116.834 193.275M122.816 198.089L119.928 208.867M77.9452 199.871C88.4963 206.091 110.865 213.665 119.928 208.867M77.9452 199.871L67.4109 224.064L65.3518 243.968L77.9452 278.63L80.624 300.25L93.8356 309.172C100.471 310.774 114.359 312.604 116.834 307.113L122.816 264.216L119.928 232.644L119.928 208.867M72.5585 226.466C81.6587 229.898 102.155 235.938 111.338 232.644M72.5585 250.146C81.2524 256.094 101.935 267.236 115.113 264.216M83.8834 281.718C90.1715 283.777 104.466 287.278 111.338 284.807" stroke="black"/>
</svg>
