<svg width="54" height="50" viewBox="0 0 54 50" fill="none" xmlns="http://www.w3.org/2000/svg">
<path d="M13.4874 1.57611C7.12033 0.868634 4.55342 3.00923 4.35692 4.048C4.16043 5.08678 3.38896 8.54536 7.98509 9.85854C7.98509 9.85854 3.91151 9.60711 2.38714 10.9787C0.862778 12.3502 -0.217681 15.8535 4.76842 17.5878C9.75453 19.3221 16.3755 18.8102 28.4848 26.6135C25.4589 27.3361 12.7879 23.3513 6.39429 20.4331C2.37447 19.2816 -2.06179 24.5494 3.68447 27.9584C5.81858 29.2245 10.6951 32.0747 12.8283 32.9101C9.65125 32.9101 8.0157 35.7048 9.27044 38.0232C10.1164 39.1806 11.2492 40.845 16.3755 43.211C21.5017 45.5769 28.2186 48.2973 30.2156 49.0505C45.3717 47.9593 52.838 31.5994 53.6803 27.7884C54.1949 25.46 49.8857 17.3357 44.3283 12.983C35.9706 6.43685 23.7308 2.71429 13.4874 1.57611Z" fill="white"/>
<path d="M30.5843 48.4452C28.5873 47.692 21.5017 45.5769 16.3755 43.211C11.2492 40.845 10.1164 39.1806 9.27044 38.0232C8.25106 36.1396 9.13937 33.9418 11.2121 33.1835M29.9015 26.8895C26.5593 26.0314 22.6874 20.4331 4.76842 17.5878C-0.445369 16.7599 0.862786 12.3502 2.38715 10.9787C3.91152 9.60711 7.98509 9.85854 7.98509 9.85854C11.1039 9.81525 18.4108 10.3795 22.6874 12.983C26.964 15.5864 32.8416 17.1376 35.2458 17.5878M25.3635 36.6603C21.7331 37.2065 15.4941 34.3878 12.8283 32.9101C10.6951 32.0747 5.81858 29.2245 3.68447 27.9584C-2.06179 24.5494 2.37447 19.2816 6.39429 20.4331C11.6308 22.8231 22.0282 26.1138 27.2826 26.8297M5.64374 8.70942C3.70469 7.12206 4.20428 4.85493 4.35692 4.048C4.55342 3.00923 7.12033 0.868634 13.4874 1.57611C23.7308 2.71429 35.9706 6.43685 44.3283 12.983C48.5591 16.2967 51.9304 21.8777 53.4548 25.3937" stroke="black"/>
</svg>
