<svg width="69" height="79" viewBox="0 0 69 79" fill="none" xmlns="http://www.w3.org/2000/svg">
<path d="M23.5112 14.3004C23.511 10.9546 23.6026 4.47294 28.9682 2.75033C29.3985 2.61219 29.8867 2.45661 30.3373 2.42565C30.3373 2.42565 31.8943 1.11987 34.6142 1.11987C37.3342 1.11987 55.0355 2.42565 61.235 19.1757C61.7332 20.5216 61.1829 21.642 60.8974 22.8351C61.2848 24.8426 60.8998 28.594 56.8426 29.3547L23.5112 14.3004Z" fill="white"/>
<path d="M60.8974 22.8351C61.2848 24.8426 60.8998 28.594 56.8426 29.3547L23.5112 14.3004C23.511 10.9546 23.6026 4.47294 28.9682 2.75033C29.3985 2.61219 29.8867 2.45661 30.3373 2.42565M60.8974 22.8351C56.8892 6.50167 38.6176 1.85671 30.3373 2.42565M60.8974 22.8351C61.1829 21.642 61.7332 20.5216 61.235 19.1757C55.0355 2.42565 37.3342 1.11987 34.6142 1.11987C31.8943 1.11987 30.3373 2.42565 30.3373 2.42565" stroke="black"/>
<g filter="url(#filter0_d_546_115)">
<path d="M35.5665 60.3972C33.8696 63.7779 26.9611 63.7414 20.1357 60.3155C13.3104 56.8897 9.15301 51.372 10.8499 47.9912L25.1831 9.60735C26.5932 6.76876 32.1966 2.35674 43.33 7.41736C57.0165 13.6385 59.9324 20.5453 58.3817 26.0509C58.3298 26.2351 58.2457 26.4083 58.1395 26.5675L35.5665 60.3972Z" fill="#FF641E"/>
<path d="M35.1506 60.1197L35.1335 60.1453L35.1197 60.1729C34.4031 61.6006 32.512 62.4233 29.7769 62.4088C27.0767 62.3945 23.7189 61.5546 20.36 59.8687C17.0011 58.1828 14.3212 55.9922 12.6963 53.8356C11.0504 51.6511 10.5802 49.6432 11.2968 48.2155L11.3089 48.1914L11.3183 48.1661L25.6422 9.80721C26.2903 8.52086 27.925 6.81556 30.7442 6.03189C33.5729 5.24557 37.6349 5.3779 43.1231 7.87254C49.9235 10.9636 53.9858 14.1984 56.1609 17.2902C58.3229 20.3634 58.6338 23.3116 57.9004 25.9153C57.8645 26.0426 57.8047 26.1684 57.7236 26.2899L35.1506 60.1197Z" stroke="black"/>
</g>
<defs>
<filter id="filter0_d_546_115" x="0.470688" y="1.10498" width="68.2867" height="77.804" filterUnits="userSpaceOnUse" color-interpolation-filters="sRGB">
<feFlood flood-opacity="0" result="BackgroundImageFix"/>
<feColorMatrix in="SourceAlpha" type="matrix" values="0 0 0 0 0 0 0 0 0 0 0 0 0 0 0 0 0 0 127 0" result="hardAlpha"/>
<feOffset dy="6"/>
<feGaussianBlur stdDeviation="5"/>
<feComposite in2="hardAlpha" operator="out"/>
<feColorMatrix type="matrix" values="0 0 0 0 1 0 0 0 0 0.392157 0 0 0 0 0.117647 0 0 0 1 0"/>
<feBlend mode="normal" in2="BackgroundImageFix" result="effect1_dropShadow_546_115"/>
<feBlend mode="normal" in="SourceGraphic" in2="effect1_dropShadow_546_115" result="shape"/>
</filter>
</defs>
</svg>
